<?xml version="1.0" encoding="utf-8"?>
<!-- Generator: Adobe Illustrator 21.1.0, SVG Export Plug-In . SVG Version: 6.00 Build 0)  -->
<svg version="1.1" id="Layer_1" xmlns="http://www.w3.org/2000/svg" xmlns:xlink="http://www.w3.org/1999/xlink" x="0px" y="0px"
	 viewBox="0 0 1336.9 996.5" style="enable-background:new 0 0 1336.9 996.5;" xml:space="preserve">
<style type="text/css">
	.st0{fill:#FF0000;}
</style>
<g>
	<g>
		<path class="st0" d="M697.2,337.1c-60.1-57.2-128.1-89.9-212.8-71.9c-35.3,7.5-77.9,17.4-121.7,34.4
			c-79.9,31.1-151.1,46.6-216.9,26.6c-75-22.8-119.1-81.3-124.4-138.4c-6.6-70.4,28.1-130.2,93.7-150.5
			c65-20.2,133.2,16.1,141.7,66.6c6.7,39.8-10.2,61.1-35.8,69.2c-15.1,3.7-30.3-4.3-29.2-18.4c0.8-9.2,7.2-13.7,12.4-13.7
			c-4.1,2-8.8,6.4-9.1,13.6c-0.4,9,7.2,14.1,16.5,13.8c17.6-0.5,27.9-13.8,31.3-34.7c4.9-30.6-10.4-55.8-43.3-69
			C163,50,124.4,54.3,92.5,81.9c-28.2,24.5-40,59.3-35.3,99c5.5,47.3,38.1,80.8,84.6,101.3c46.6,20.5,105,19.9,170-0.6
			c83.9-26.5,173.3-52.5,251.5-37.2C609,253.4,653.7,283.2,697.2,337.1z"/>
		<path class="st0" d="M697.2,659.4c-60.1,57.2-128.1,89.9-212.8,71.9c-35.3-7.5-77.9-17.4-121.7-34.4
			c-79.9-31.1-151.1-46.6-216.9-26.6c-75,22.8-119.1,81.3-124.4,138.4c-6.6,70.4,28.1,130.2,93.7,150.5
			c65,20.2,133.2-16.1,141.7-66.6c6.7-39.8-10.2-61.1-35.8-69.2c-15.1-3.7-30.3,4.3-29.2,18.4c0.8,9.2,7.2,13.7,12.4,13.7
			c-4.1-2-8.8-6.4-9.1-13.6c-0.4-9,7.2-14.1,16.5-13.8c17.6,0.5,27.9,13.8,31.3,34.7c4.9,30.6-10.4,55.8-43.3,69
			c-36.6,14.7-75.2,10.4-107.1-17.2c-28.2-24.5-40-59.3-35.3-99c5.5-47.3,38.1-80.8,84.6-101.3c46.6-20.5,105-19.9,170,0.6
			c83.9,26.5,173.3,52.5,251.5,37.2C609,743.1,653.7,713.3,697.2,659.4z"/>
		<path class="st0" d="M89.2,231c-13.8-20-20.9-40.8-22.5-62.2l263.2,70.3c68.5-41.7,143.1-56.3,222.1-32
			c42.7,13.2,80.6,35.2,114.1,63c41.3,34.3,78.6,68,115.2,78.2c29.4,8.2,58.9,7.7,78.8-16.2c9.6-11.5,19.3-12.9,24.9-4.1
			c5.1,8.2,0,17.7-10.5,26.5c-22.4,18.7-46.7,21-73.4,11.4c-33.8-12.1-65.3-28.9-94.6-54.6c-50.1-44-102.3-76.6-150.8-93.7
			c-47.9-16.9-104.7-15-156-2.9c-40,9.4-81.7,33-123.7,67.5L89.2,231z"/>
		<path class="st0" d="M89.2,765.4c-13.8,20-20.9,40.8-22.5,62.2l263.2-70.3c68.5,41.7,143.1,56.3,222.1,32
			c42.7-13.2,80.6-35.2,114.1-63c41.3-34.3,78.6-68,115.2-78.2c29.4-8.2,58.9-7.7,78.8,16.2c9.6,11.5,19.3,12.9,24.9,4.1
			c5.1-8.2,0-17.7-10.5-26.5c-22.4-18.7-46.7-21-73.4-11.4c-33.8,12.1-65.3,28.9-94.6,54.6c-50.1,44-102.3,76.6-150.8,93.7
			c-47.9,16.9-104.7,15-156,2.9c-40-9.4-81.7-33-123.7-67.5L89.2,765.4z"/>
		<polygon class="st0" points="1300,498.2 473.7,276.8 378.4,308.3 1014.8,480.3 1082.4,498.2 1014.8,516.2 378.4,688.2 
			473.7,719.6 		"/>
	</g>
</g>
</svg>
