<?xml version="1.0" encoding="utf-8"?>
<!-- Generator: Adobe Illustrator 21.1.0, SVG Export Plug-In . SVG Version: 6.00 Build 0)  -->
<svg version="1.1" id="Layer_1" xmlns="http://www.w3.org/2000/svg" xmlns:xlink="http://www.w3.org/1999/xlink" x="0px" y="0px"
	 viewBox="0 0 1333.8 996.5" style="enable-background:new 0 0 1333.8 996.5;" xml:space="preserve">
<style type="text/css">
	.st0{fill:#FF0000;}
</style>
<g>
	<g>
		<path class="st0" d="M639.7,659.4c60.1,57.2,128.1,89.9,212.8,71.9c35.3-7.5,77.9-17.4,121.7-34.4
			c79.9-31.1,151.1-46.6,216.9-26.6c75,22.8,119.1,81.3,124.4,138.4c6.6,70.4-28.1,130.2-93.7,150.5c-65,20.2-133.2-16.1-141.7-66.6
			c-6.7-39.8,10.2-61.1,35.8-69.2c15.1-3.7,30.3,4.3,29.2,18.4c-0.8,9.2-7.2,13.7-12.4,13.7c4.1-2,8.8-6.4,9.1-13.6
			c0.4-9-7.2-14.1-16.5-13.8c-17.6,0.5-27.9,13.8-31.3,34.7c-4.9,30.6,10.4,55.8,43.3,69c36.6,14.7,75.2,10.4,107.1-17.2
			c28.2-24.5,40-59.3,35.3-99c-5.5-47.3-38.1-80.8-84.6-101.3c-46.6-20.5-105-19.9-170,0.6c-83.9,26.5-173.3,52.5-251.5,37.2
			C727.9,743.1,683.2,713.3,639.7,659.4z"/>
		<path class="st0" d="M639.7,337.1c60.1-57.2,128.1-89.9,212.8-71.9c35.3,7.5,77.9,17.4,121.7,34.4
			c79.9,31.1,151.1,46.6,216.9,26.6c75-22.8,119.1-81.3,124.4-138.4c6.6-70.4-28.1-130.2-93.7-150.5c-65-20.2-133.2,16.1-141.7,66.6
			c-6.7,39.8,10.2,61.1,35.8,69.2c15.1,3.7,30.3-4.3,29.2-18.4c-0.8-9.2-7.2-13.7-12.4-13.7c4.1,2,8.8,6.4,9.1,13.6
			c0.4,9-7.2,14.1-16.5,13.8c-17.6-0.5-27.9-13.8-31.3-34.7c-4.9-30.6,10.4-55.8,43.3-69c36.6-14.7,75.2-10.4,107.1,17.2
			c28.2,24.5,40,59.3,35.3,99c-5.5,47.3-38.1,80.8-84.6,101.3c-46.6,20.5-105,19.9-170-0.6C941.4,255,851.9,229,773.8,244.3
			C727.9,253.4,683.2,283.2,639.7,337.1z"/>
		<path class="st0" d="M1247.7,765.4c13.8,20,20.9,40.8,22.5,62.2l-263.2-70.3c-68.5,41.7-143.1,56.3-222.1,32
			c-42.7-13.2-80.6-35.2-114.1-63c-41.3-34.3-78.6-68-115.2-78.2c-29.4-8.2-58.9-7.7-78.8,16.2c-9.6,11.5-19.3,12.9-24.9,4.1
			c-5.1-8.2,0-17.7,10.5-26.5c22.4-18.7,46.7-21,73.4-11.4c33.8,12.1,65.3,28.9,94.6,54.6c50.1,44,102.3,76.6,150.8,93.7
			c47.9,16.9,104.7,15,156,2.9c40-9.4,81.7-33,123.7-67.5L1247.7,765.4z"/>
		<path class="st0" d="M1247.7,231c13.8-20,20.9-40.8,22.5-62.2l-263.2,70.3c-68.5-41.7-143.1-56.3-222.1-32
			c-42.7,13.2-80.6,35.2-114.1,63c-41.3,34.3-78.6,68-115.2,78.2c-29.4,8.2-58.9,7.7-78.8-16.2c-9.6-11.5-19.3-12.9-24.9-4.1
			c-5.1,8.2,0,17.7,10.5,26.5c22.4,18.7,46.7,21,73.4,11.4c33.8-12.1,65.3-28.9,94.6-54.6c50.1-44,102.3-76.6,150.8-93.7
			c47.9-16.9,104.7-15,156-2.9c40,9.4,81.7,33,123.7,67.5L1247.7,231z"/>
		<polygon class="st0" points="37,498.2 863.3,719.6 958.5,688.2 322.1,516.2 254.5,498.2 322.1,480.3 958.5,308.3 863.3,276.8 		
			"/>
	</g>
</g>
</svg>
