<?xml version="1.0" standalone="no"?>
<svg version="1.0" xmlns="http://www.w3.org/2000/svg"
  width="700.000000pt" height="350.000000pt" viewBox="0 0 4419.000000 2206.000000"
  preserveAspectRatio="xMidYMid meet">
  <defs>
    <radialGradient 
      id="exampleGradient"
      cx="0.6"
      cy="0.75"
      fx="0.61"
      fy="1.0"
      fr="5%"
    >
      <stop offset="30%" stop-color="#696969" />
      <stop offset="100%" stop-color="#000000"/>
    </radialGradient>
  </defs>

<g transform="translate(-60.000000,2500.000000) scale(0.100000,-0.100000)"
fill="#000000" stroke="none" style="fill: url(#exampleGradient);">
<path d="M34082 11368 c-7 -7 -12 -24 -12 -38 0 -48 -69 -94 -137 -91 -39 1
-45 -2 -54 -26 -6 -16 -12 -97 -14 -182 -4 -171 -13 -217 -131 -671 -69 -267
-84 -317 -113 -364 -11 -17 -25 -53 -32 -81 -14 -57 -90 -204 -119 -230 -21
-19 -27 -60 -10 -70 6 -4 10 -21 9 -38 0 -18 3 -49 7 -70 6 -36 4 -40 -42 -85
l-49 -46 -6 -91 c-10 -150 -39 -364 -64 -470 -12 -55 -26 -134 -30 -175 -9
-87 -88 -447 -102 -461 -16 -16 -335 -11 -362 6 -7 3 -58 11 -114 16 -56 5
-163 23 -237 39 -168 37 -267 39 -363 8 -86 -28 -104 -20 -99 43 l4 44 -47
-47 c-109 -108 -288 -160 -408 -119 -64 22 -75 12 -32 -29 42 -39 33 -61 -36
-93 -115 -54 -186 -147 -222 -290 -21 -86 -24 -112 -17 -167 18 -142 58 -230
142 -312 81 -80 110 -94 162 -77 54 17 329 180 319 189 -4 4 -46 17 -93 29
-46 12 -98 29 -115 38 -16 8 -46 24 -66 34 -48 24 -116 100 -140 156 -16 38
-18 54 -10 97 19 101 48 142 150 215 57 40 91 42 91 4 1 -33 41 -117 55 -115
6 0 14 16 18 35 20 84 231 177 277 122 19 -23 33 -18 26 8 -8 32 11 51 59 64
22 6 58 16 80 22 116 32 300 46 370 28 64 -16 71 -42 22 -80 -26 -19 -36 -38
-47 -80 -7 -30 -10 -70 -6 -89 14 -75 131 -145 197 -117 16 6 29 15 29 18 0 4
-23 13 -50 20 -88 23 -125 108 -80 184 34 58 144 89 236 66 66 -16 234 -97
241 -116 7 -17 -2 -55 -142 -625 -51 -207 -99 -388 -106 -404 -8 -15 -26 -36
-41 -47 -26 -19 -31 -20 -100 -6 -40 8 -107 14 -148 13 -65 -1 -88 -6 -165
-40 -94 -42 -230 -117 -240 -134 -12 -19 28 -23 109 -11 44 7 99 14 121 16 22
2 47 5 55 7 8 1 42 -1 75 -5 33 -4 104 -12 158 -19 53 -6 102 -17 107 -24 8
-8 1 -50 -21 -138 -27 -110 -35 -129 -60 -147 -27 -19 -29 -25 -29 -92 0 -40
-7 -96 -15 -126 -8 -30 -17 -86 -20 -125 -4 -42 -17 -95 -32 -130 -21 -48 -24
-69 -19 -110 4 -40 2 -54 -13 -71 -29 -33 -54 -112 -46 -148 15 -69 10 -106
-18 -134 l-27 -27 -52 23 c-133 58 -129 57 -177 27 -24 -15 -39 -31 -35 -35 5
-4 56 -27 114 -51 58 -24 109 -47 114 -51 5 -4 11 -31 13 -59 3 -43 0 -55 -21
-81 -15 -17 -29 -42 -32 -55 -5 -18 -23 -32 -69 -53 -34 -16 -97 -53 -141 -83
-105 -74 -202 -122 -343 -168 -182 -61 -292 -81 -487 -87 -186 -6 -254 1 -379
42 -83 27 -125 25 -125 -6 0 -50 -129 -78 -276 -60 -103 12 -175 36 -236 76
-22 15 -42 24 -46 21 -3 -4 2 -22 11 -41 22 -46 21 -57 -4 -89 -36 -46 -79
-25 -79 38 0 44 -22 33 -69 -36 -17 -27 -36 -48 -41 -48 -10 0 -30 64 -30 97
0 22 -1 22 -118 16 -65 -3 -139 -3 -164 1 -45 7 -46 8 -52 49 -8 61 -65 687
-71 787 -2 47 -7 105 -10 130 -5 37 -2 51 14 72 23 28 27 58 12 86 -15 26 -49
143 -52 178 -4 33 14 64 37 64 7 0 18 9 24 20 6 11 19 20 29 20 11 0 21 7 25
15 3 8 12 15 21 15 11 0 15 11 15 38 l0 38 -77 -8 c-100 -9 -112 1 -118 93 -2
35 -10 118 -18 184 -22 177 -32 457 -17 484 9 17 8 31 -1 59 -7 20 -13 81 -13
136 l0 98 -79 89 c-67 76 -83 89 -110 90 -18 0 -41 4 -52 8 -13 5 -37 0 -70
-15 -27 -13 -58 -24 -67 -24 -9 0 -19 -4 -22 -8 -7 -11 11 -74 36 -132 42 -93
46 -107 51 -181 4 -47 3 -79 -4 -86 -7 -7 -4 -25 10 -59 19 -47 36 -147 47
-279 2 -33 8 -112 13 -175 15 -197 15 -290 -2 -307 -12 -11 -160 -22 -314 -23
l-71 0 15 -49 16 -49 44 15 c57 20 186 14 231 -10 17 -9 47 -25 65 -34 17 -9
35 -21 39 -27 7 -11 3 -73 -13 -178 -9 -58 -8 -70 8 -98 48 -85 44 -69 58
-255 3 -44 12 -152 20 -240 8 -88 19 -221 25 -295 6 -74 13 -145 15 -157 5
-20 -5 -28 -75 -63 -92 -46 -130 -51 -145 -17 -9 19 -19 23 -90 28 -116 8
-218 -23 -273 -83 -61 -66 -79 -82 -121 -101 -56 -25 -157 -33 -191 -15 -37
20 -36 60 3 181 38 116 39 111 -35 122 -25 4 -50 10 -56 14 -11 7 -20 66 -21
148 -1 40 -5 45 -111 138 -147 128 -216 199 -324 331 -177 216 -289 385 -396
594 -69 136 -66 130 -170 397 -27 68 -37 83 -60 92 -59 20 -72 -37 -86 -385
-12 -311 43 -698 156 -1089 4 -16 15 -55 23 -85 18 -63 80 -238 127 -355 l32
-80 -20 -40 c-30 -62 -133 -187 -197 -239 -139 -113 -300 -179 -482 -198 -84
-8 -130 -19 -203 -48 -150 -59 -245 -79 -438 -92 -182 -11 -435 0 -500 23 -52
18 -50 54 8 195 13 30 12 31 -62 105 -41 41 -93 103 -116 138 l-42 63 -29 -63
c-16 -35 -41 -107 -56 -159 -15 -52 -42 -128 -61 -167 -51 -107 -96 -124 -206
-79 l-57 23 -48 -49 c-93 -96 -241 -186 -363 -221 -53 -16 -56 -18 -73 -67
-10 -28 -25 -54 -33 -57 -9 -3 -29 7 -49 27 -31 30 -34 38 -40 119 -3 47 -13
131 -20 186 -8 55 -15 120 -16 145 -1 25 -8 90 -15 145 -8 55 -14 132 -14 170
0 39 -5 86 -10 105 -6 19 -24 163 -40 320 -39 373 -46 437 -69 615 -18 136
-24 215 -22 270 1 11 33 58 72 105 72 86 101 129 80 116 -15 -10 -14 -1 4 33
14 28 14 29 -8 24 -18 -5 -20 -3 -9 8 14 16 16 33 2 24 -12 -8 -13 15 -1 34 5
7 6 22 4 32 -5 16 -8 17 -21 7 -13 -11 -14 -11 -8 1 5 8 4 16 -4 21 -10 6 -7
16 11 41 20 28 20 32 5 26 -15 -6 -17 -4 -11 10 4 10 8 23 9 29 1 7 8 19 15
28 16 20 5 42 -14 26 -26 -22 -30 16 -5 60 12 23 12 24 -3 11 -20 -16 -23 -1
-6 32 9 18 9 20 -2 10 -24 -23 -30 -14 -14 23 13 33 13 35 -1 30 -12 -4 -14
-1 -9 13 3 11 1 22 -5 26 -8 5 -6 14 4 31 21 30 20 40 -1 23 -15 -13 -15 -12
-5 7 8 15 8 24 1 31 -8 8 -5 20 7 39 l18 29 -24 -20 c-16 -14 -22 -15 -17 -5
3 8 17 43 30 77 28 69 18 89 -21 44 -21 -24 -21 -22 4 22 43 77 21 64 -30 -18
-62 -98 -129 -182 -134 -167 -5 17 -32 15 -32 -3 0 -21 -4 -19 -52 15 -23 17
-54 54 -70 82 -16 29 -32 55 -37 58 -5 3 -22 35 -37 72 -15 38 -29 67 -30 65
-2 -2 7 -36 20 -77 14 -41 27 -93 31 -115 l6 -40 -16 28 c-30 53 -25 21 10
-68 20 -48 34 -90 31 -92 -4 -5 -42 75 -71 150 -10 26 -20 45 -22 43 -3 -2 12
-50 32 -106 21 -55 35 -103 32 -106 -2 -3 -10 9 -16 27 -6 18 -13 30 -16 27
-3 -2 9 -36 25 -74 16 -38 30 -83 30 -100 0 -17 3 -33 6 -37 10 -10 54 -107
48 -107 -3 0 -16 24 -29 53 -27 57 -34 42 -9 -19 15 -35 15 -37 0 -25 -10 8
-16 9 -16 3 0 -6 5 -14 10 -17 6 -4 20 -25 32 -48 12 -25 15 -37 7 -30 -11 9
-14 6 -14 -17 0 -15 3 -26 6 -24 4 2 10 -3 13 -12 9 -22 8 -26 -5 -18 -7 4 -9
0 -6 -12 3 -11 9 -30 12 -43 5 -16 4 -21 -4 -17 -6 4 -2 -15 8 -42 11 -28 17
-52 14 -56 -3 -3 -1 -12 5 -19 7 -8 9 -17 5 -20 -5 -6 76 -109 104 -132 8 -6
21 -82 33 -190 52 -461 173 -1557 189 -1707 l17 -167 -45 -38 c-80 -68 -114
-78 -146 -44 -17 20 -18 84 -1 124 7 14 3 17 -17 17 -29 0 -96 -51 -182 -139
-33 -34 -66 -61 -75 -61 -9 0 -37 20 -62 45 -58 56 -80 57 -203 9 -77 -30
-262 -94 -273 -94 -5 0 -237 478 -268 552 -14 33 -141 292 -283 576 -141 284
-263 533 -271 552 -35 92 -77 167 -109 195 -95 82 -133 127 -152 177 -10 29
-19 54 -19 55 0 1 39 21 88 43 291 137 407 174 574 184 54 3 86 0 169 -16 10
-2 51 39 112 112 96 114 109 133 85 125 -7 -2 -31 -7 -53 -10 -73 -10 -248
-57 -350 -92 -55 -19 -116 -39 -135 -45 -19 -6 -44 -17 -55 -24 -11 -8 -26
-14 -35 -14 -9 0 -33 -9 -55 -20 -22 -11 -42 -20 -46 -20 -4 0 -68 -29 -143
-65 -191 -91 -178 -90 -210 -9 -25 61 -101 201 -117 214 -3 3 -23 35 -43 72
-21 37 -42 70 -47 74 -5 3 -23 33 -39 67 -16 34 -43 85 -60 112 -17 28 -41 70
-53 95 -30 59 -68 120 -130 203 -48 66 -50 70 -39 105 10 33 9 39 -13 62 -14
14 -25 31 -25 38 0 7 -8 12 -18 12 -27 0 -52 32 -46 58 5 15 -8 42 -42 94 -27
40 -77 128 -112 195 -78 152 -85 192 -49 283 15 35 24 66 21 70 -9 8 -137 5
-159 -4 -21 -9 -35 -14 -60 -19 -23 -5 -118 -69 -143 -96 -26 -28 -62 -82 -62
-92 0 -4 21 -12 47 -18 123 -31 151 -66 262 -316 9 -22 28 -73 42 -114 17 -52
30 -77 46 -84 28 -13 37 -40 23 -67 -8 -15 -7 -27 5 -49 8 -17 15 -37 15 -45
0 -8 10 -18 23 -22 37 -11 55 -34 62 -77 11 -63 32 -121 86 -235 27 -56 49
-105 49 -108 0 -3 18 -45 39 -92 21 -48 53 -125 71 -172 62 -165 93 -236 133
-303 23 -39 36 -72 31 -77 -5 -4 -63 -36 -129 -70 -66 -35 -141 -76 -166 -91
-25 -16 -49 -29 -52 -29 -7 0 -62 -34 -207 -128 -76 -50 -185 -129 -216 -157
-7 -5 -39 -32 -72 -60 -107 -90 -108 -89 69 -81 84 3 153 7 153 9 1 1 14 27
30 57 36 70 99 148 153 190 24 17 57 45 75 61 18 16 38 29 43 29 6 0 23 11 39
25 16 14 33 25 37 25 5 0 38 18 74 40 83 51 201 110 217 109 20 0 55 -50 67
-94 6 -22 14 -80 17 -130 6 -79 12 -99 45 -160 21 -38 167 -326 324 -640 158
-313 335 -664 395 -780 71 -139 104 -212 97 -216 -28 -16 -352 -30 -645 -30
-174 0 -338 0 -364 -1 -52 -1 -98 22 -98 50 0 23 40 46 118 67 l62 18 -73 48
c-74 48 -209 180 -242 236 -14 24 -27 32 -57 36 -44 6 -72 27 -95 70 -20 39
-37 29 -45 -27 -8 -57 -28 -90 -71 -117 -58 -35 -105 -43 -181 -28 -65 12 -70
12 -112 -10 -25 -14 -66 -51 -96 -89 -87 -107 -151 -125 -290 -82 -76 23 -93
43 -85 99 15 114 94 240 244 388 101 100 129 134 106 133 -5 -1 -30 -7 -58
-14 -108 -29 -101 6 30 143 105 110 128 151 85 151 -55 0 -199 -99 -298 -205
-58 -62 -75 -88 -88 -133 -14 -48 -29 -68 -103 -142 -91 -91 -194 -170 -255
-195 -34 -14 -36 -14 -50 7 -40 63 -108 355 -109 468 0 184 78 244 338 261 77
4 169 15 205 24 202 48 410 142 410 185 0 43 -438 -44 -711 -141 -166 -58
-228 -68 -282 -45 -35 14 -43 14 -100 -2 -46 -13 -101 -17 -215 -17 -83 0
-152 -1 -152 -1 0 -1 9 -21 20 -45 32 -72 28 -84 -37 -109 -199 -75 -616 -152
-803 -149 -107 2 -128 -4 -188 -54 -29 -25 -57 -38 -90 -43 -60 -9 -218 7
-446 46 l-179 31 -66 -18 c-94 -25 -319 -25 -416 1 -93 25 -175 59 -249 106
-39 24 -83 42 -121 49 -95 17 -137 60 -99 102 17 19 17 21 -5 50 -120 162
-181 334 -181 508 0 48 -7 113 -15 146 -33 124 -128 257 -223 308 -45 24 -76
33 -198 52 l-32 6 19 84 c10 47 30 122 44 166 14 45 30 112 35 149 5 38 35
169 66 292 117 470 134 538 154 639 31 153 88 369 104 393 7 12 62 50 121 85
59 36 117 73 128 83 l22 19 -25 -12 c-22 -10 -21 -7 10 26 l35 38 -28 -5 -28
-5 23 25 c13 14 17 22 11 18 -20 -11 -15 5 9 31 12 13 22 32 23 43 2 21 -10
27 -20 10 -3 -5 -11 -10 -17 -10 -6 0 -3 9 6 19 13 15 14 20 4 24 -9 3 -1 15
22 35 28 25 31 31 16 32 -18 0 -18 1 -3 18 10 10 14 22 10 27 -5 4 -2 5 5 1 6
-4 12 -3 12 3 0 5 9 13 20 16 11 3 20 11 20 16 0 6 -6 7 -12 3 -8 -5 -8 -1 1
10 13 16 12 17 -12 11 -17 -5 -27 -3 -27 4 0 6 5 11 11 11 6 0 9 6 6 13 -3 8
7 21 25 31 33 20 32 34 -1 16 -30 -16 -27 6 4 26 29 19 34 40 6 24 -33 -17
-34 -11 -5 27 19 26 23 35 11 30 -21 -8 -22 6 -2 23 13 11 13 15 3 21 -9 6 -5
16 17 40 28 30 29 31 5 19 -25 -13 -25 -13 -7 8 10 11 17 26 15 34 -2 8 11 27
27 42 l30 27 -33 -16 c-44 -21 -36 -6 36 69 56 60 64 73 31 55 -15 -8 -19 -8
-15 0 13 20 -9 11 -49 -20 -24 -19 -18 -11 15 20 30 28 58 51 63 51 4 0 7 8 7
17 0 14 -5 12 -27 -9 -62 -56 -238 -178 -258 -178 -3 0 -5 7 -5 15 0 17 -25
20 -35 5 -10 -17 -25 -11 -34 13 -5 12 -18 31 -29 43 -12 12 -22 42 -27 75 -4
30 -11 70 -16 89 -6 19 -14 71 -18 115 l-8 80 -3 -90 c-2 -49 -4 -94 -5 -100
-2 -5 -3 -27 -4 -47 -1 -46 -21 -51 -21 -6 0 17 -3 28 -7 25 -3 -4 -6 -60 -6
-125 2 -131 -13 -112 -17 23 -3 106 -19 157 -19 60 0 -38 0 -99 -2 -135 -2
-64 -2 -64 -9 -20 -7 45 -7 46 -16 -205 -2 -62 -6 -73 -14 -40 -6 24 -8 17
-10 -35 -1 -36 -4 -57 -7 -47 -2 9 -9 17 -14 17 -11 0 -12 -23 0 -36 4 -5 11
-31 14 -59 6 -47 6 -49 -8 -25 -13 22 -14 22 -13 5 3 -52 -3 -96 -13 -90 -6 4
-10 1 -8 -6 1 -8 1 -30 0 -49 -1 -27 -4 -31 -11 -20 -9 14 -16 -69 -12 -140 1
-20 -1 -22 -9 -10 -16 24 0 -47 23 -100 44 -101 45 -104 35 -145 -5 -22 -58
-242 -118 -490 -129 -539 -276 -1152 -281 -1180 -4 -23 2 -23 -146 5 -63 12
-129 20 -148 17 -19 -3 -34 -3 -34 -1 0 3 -14 69 -30 147 -17 78 -39 185 -50
237 -27 126 -59 268 -109 479 -23 95 -44 199 -48 232 -6 58 -5 59 49 141 108
162 126 195 92 167 -15 -12 -15 -10 0 25 9 21 16 40 16 42 0 7 -35 -10 -43
-20 -9 -11 -6 1 9 38 6 15 4 17 -6 11 -10 -6 -12 -2 -8 16 3 13 8 31 12 39 3
8 2 22 -4 30 -8 13 -11 12 -25 -5 -15 -19 -15 -19 -9 9 5 21 4 27 -5 22 -15
-10 -13 14 4 44 19 33 19 46 0 30 -14 -11 -15 -8 -11 24 3 21 10 44 16 51 8 9
8 20 2 31 -6 11 -11 13 -16 5 -12 -19 -28 -12 -21 9 4 12 2 20 -5 20 -7 0 -5
8 4 22 21 29 20 49 0 23 -16 -20 -16 -19 -11 5 2 14 8 34 12 45 5 17 3 16 -16
-5 l-22 -25 7 50 c5 35 4 46 -3 35 -9 -12 -11 -9 -11 13 0 15 -5 27 -11 27
-10 0 -7 15 9 60 5 13 4 13 -13 0 -17 -14 -18 -14 -6 9 11 20 11 25 -2 33 -14
7 -14 12 -1 36 20 39 17 48 -7 21 l-21 -24 7 25 c4 14 13 48 20 75 7 28 16 59
20 70 6 16 3 16 -15 -5 -21 -24 -21 -24 -10 -2 6 13 9 26 6 29 -2 3 -18 -21
-35 -53 -39 -76 -39 -65 0 21 16 37 28 72 26 78 -2 7 -23 -28 -46 -78 -64
-136 -141 -249 -141 -205 0 18 -22 10 -27 -10 -7 -25 -11 -25 -48 1 -16 11
-40 24 -52 29 -13 5 -23 16 -23 25 0 8 -4 15 -8 15 -5 0 -18 18 -31 40 -12 22
-28 43 -36 47 -7 5 -32 39 -54 78 -44 74 -55 82 -19 12 28 -56 78 -197 69
-197 -4 0 -15 14 -25 31 -10 17 -20 28 -23 26 -2 -3 21 -53 51 -111 31 -58 53
-106 48 -106 -4 0 -34 48 -66 106 -32 58 -60 103 -63 101 -2 -3 16 -45 40 -93
54 -107 70 -158 33 -99 -37 58 -32 32 8 -41 19 -34 32 -65 29 -68 -4 -3 -2 -6
4 -6 10 0 17 -26 26 -100 2 -14 11 -39 20 -57 21 -39 21 -44 2 -37 -8 4 -15 1
-15 -5 0 -7 6 -14 14 -17 8 -3 26 -24 41 -46 22 -32 24 -40 10 -34 -14 5 -15
3 -8 -6 6 -7 13 -22 15 -33 3 -11 9 -29 14 -39 5 -14 4 -17 -4 -12 -16 9 -15
5 5 -34 11 -24 13 -35 5 -38 -8 -2 -3 -20 13 -52 14 -27 25 -56 25 -65 0 -8 5
-15 11 -15 6 0 8 -8 4 -19 -5 -18 30 -53 143 -147 5 -3 39 -154 128 -564 41
-190 88 -403 103 -475 l29 -130 -45 -52 c-24 -29 -53 -53 -63 -53 -27 0 -81
68 -136 173 -27 50 -60 105 -74 121 -44 52 -139 105 -249 139 -89 27 -111 38
-148 74 -26 26 -52 43 -67 43 -13 0 -61 12 -107 26 -77 23 -101 26 -271 27
-168 2 -187 0 -197 -15 -16 -25 -28 -22 -45 11 -11 20 -30 34 -60 44 l-45 16
-35 -47 c-38 -52 -132 -145 -185 -181 -39 -28 -50 -19 -51 39 -1 49 -73 712
-120 1090 -11 91 -25 215 -31 275 -5 61 -12 120 -15 132 -3 12 -16 117 -28
235 -23 209 -23 214 -5 244 20 33 25 74 10 90 -13 14 -61 159 -61 186 0 16 15
36 44 61 25 20 48 37 52 37 4 0 15 6 23 14 32 27 189 45 236 27 16 -6 19 -16
17 -44 -8 -90 105 -104 176 -22 24 27 29 76 12 119 -19 50 -102 69 -203 47
-99 -22 -201 -38 -302 -47 -87 -7 -91 -3 -104 97 -5 41 -16 124 -25 184 -25
188 -41 451 -29 477 8 18 7 32 -4 59 -20 46 -22 201 -4 223 9 11 16 53 19 115
4 89 2 103 -19 145 -36 72 -74 91 -184 90 -97 0 -132 -12 -180 -59 -76 -77
-75 -150 5 -322 28 -60 32 -80 35 -170 2 -66 8 -112 18 -130 20 -37 33 -118
57 -338 24 -234 33 -387 23 -402 -10 -15 -194 -33 -331 -33 -166 0 -222 -28
-225 -112 -2 -52 9 -69 71 -105 37 -22 49 -25 80 -17 49 12 72 51 53 88 -11
19 -11 29 -2 39 35 43 214 48 287 9 21 -12 52 -26 67 -32 l28 -10 -6 -82 c-3
-46 -8 -104 -11 -131 -5 -40 -2 -52 19 -80 33 -44 43 -83 57 -217 6 -63 16
-146 21 -185 5 -38 20 -173 34 -300 13 -126 27 -246 29 -265 5 -37 14 -119 46
-425 11 -104 22 -206 25 -225 6 -40 41 -352 51 -452 l7 -66 -58 -7 c-101 -13
-261 1 -355 29 -47 15 -137 33 -200 41 -63 8 -159 24 -214 36 -89 21 -101 21
-125 8 -19 -11 -26 -23 -26 -44 0 -35 -31 -55 -90 -55 -30 0 -179 -42 -204
-58 -8 -4 72 -82 91 -88 50 -16 -3 -61 -122 -105 -91 -33 -146 -37 -192 -13
-35 18 -224 195 -221 206 2 4 -16 12 -39 19 -23 6 -72 26 -108 44 l-65 33 -36
-18 c-53 -28 -155 -60 -239 -76 -44 -9 -83 -22 -95 -34 l-21 -19 -69 147 c-38
81 -133 284 -212 452 -162 343 -153 324 -184 405 -18 49 -39 76 -109 145 -94
92 -104 106 -114 162 -7 37 -6 38 46 64 152 74 396 159 513 179 57 9 173 7
220 -5 22 -5 45 -10 51 -10 6 0 45 39 87 88 41 48 84 98 96 111 20 23 29 47
14 38 -5 -3 -30 -8 -58 -11 -27 -3 -59 -8 -70 -11 -106 -25 -152 -36 -165 -39
-8 -2 -22 -5 -30 -8 -8 -3 -62 -20 -120 -38 -58 -18 -125 -40 -150 -50 -25
-10 -72 -28 -105 -41 -33 -12 -87 -34 -120 -49 -181 -82 -224 -100 -236 -100
-12 0 -59 99 -59 123 0 4 -30 59 -67 123 -38 63 -75 127 -83 142 -8 15 -18 29
-21 32 -4 3 -41 73 -84 155 -97 188 -142 265 -195 335 -40 53 -41 57 -35 108
4 28 3 52 -2 52 -5 0 -17 14 -26 30 -10 17 -27 30 -37 30 -24 0 -43 34 -35 61
4 12 -1 31 -12 47 -38 56 -102 170 -148 262 -62 124 -69 188 -31 274 14 33 24
61 22 63 -8 8 -155 4 -173 -5 -10 -5 -36 -15 -58 -22 -56 -18 -138 -81 -174
-134 -17 -25 -31 -47 -31 -49 0 -3 20 -8 44 -11 96 -15 165 -84 221 -224 15
-37 34 -82 42 -100 8 -18 25 -68 39 -112 18 -56 31 -81 45 -85 31 -10 43 -41
25 -67 -13 -18 -13 -24 0 -49 7 -15 14 -35 14 -43 0 -8 17 -23 37 -33 35 -17
38 -23 54 -93 9 -41 25 -97 37 -125 22 -55 115 -272 137 -320 8 -16 30 -75 49
-130 62 -179 97 -264 132 -322 19 -31 34 -62 34 -67 0 -6 -89 -56 -198 -111
-108 -55 -206 -108 -216 -117 -11 -10 -24 -18 -29 -18 -6 0 -35 -16 -66 -37
-31 -20 -87 -57 -126 -82 -38 -25 -74 -49 -80 -53 -5 -5 -28 -22 -50 -39 -97
-74 -175 -143 -175 -154 0 -4 64 -5 143 -2 78 4 147 6 154 7 6 0 15 10 19 23
22 72 133 193 255 280 100 71 413 239 422 226 54 -79 56 -84 68 -204 13 -129
11 -125 123 -345 48 -93 378 -787 439 -924 l31 -69 -48 -43 c-27 -24 -63 -48
-79 -55 -29 -12 -32 -11 -58 20 -28 34 -62 100 -142 273 -44 95 -110 181 -147
193 -47 15 -146 -61 -385 -295 -191 -187 -276 -249 -349 -257 -50 -6 -67 10
-75 70 -8 54 -24 57 -46 8 -19 -43 -96 -95 -113 -76 -5 6 -24 55 -42 110 -18
55 -50 145 -72 200 -66 167 -128 344 -129 373 -1 15 18 68 41 117 40 84 62
184 37 168 -14 -8 -27 17 -27 53 0 39 -9 48 -26 26 -12 -15 -12 -15 -7 6 3 14
1 22 -7 22 -7 0 -10 6 -7 13 17 46 18 57 4 51 -13 -5 -14 1 -7 32 5 22 5 45 0
53 -6 10 -10 11 -10 4 0 -7 -6 -13 -13 -13 -15 0 -16 47 -2 71 7 11 5 11 -10
-1 -17 -14 -18 -13 -11 14 7 27 6 28 -10 15 -16 -13 -17 -11 -12 19 4 26 2 32
-10 27 -10 -4 -13 0 -9 15 3 11 1 20 -5 20 -6 0 -8 11 -6 25 3 13 1 22 -3 19
-5 -3 -9 4 -9 15 0 12 -4 21 -10 21 -6 0 -6 9 0 26 14 36 12 41 -5 18 -14 -18
-15 -15 -10 31 3 28 8 59 10 71 3 14 -1 21 -11 21 -9 0 -13 -6 -10 -14 3 -8 1
-11 -4 -8 -6 3 -10 1 -10 -6 0 -7 -2 -10 -5 -8 -2 3 0 22 6 43 18 66 3 49 -20
-21 -35 -107 -83 -206 -93 -191 -7 10 -11 9 -22 -5 -13 -16 -15 -16 -54 1 -39
17 -120 93 -185 173 l-28 34 22 -34 c44 -66 78 -145 66 -153 -7 -4 5 -27 32
-63 24 -31 41 -59 38 -61 -2 -2 -30 30 -62 73 -32 43 -62 83 -68 88 -16 17 14
-36 48 -84 18 -25 38 -57 44 -71 11 -23 10 -22 -15 5 l-27 30 18 -30 c10 -16
25 -39 35 -50 9 -11 25 -38 35 -60 10 -22 36 -62 58 -90 l39 -50 -36 37 c-41
43 -45 40 -14 -10 12 -20 16 -32 10 -28 -23 14 -12 -6 18 -31 29 -24 42 -52
18 -37 -9 6 -9 3 1 -9 7 -9 11 -24 7 -32 -3 -9 -2 -14 3 -11 5 3 15 -2 22 -11
10 -12 10 -14 2 -9 -17 10 -16 0 3 -29 11 -16 12 -25 5 -25 -7 0 0 -17 14 -37
14 -21 25 -43 25 -49 0 -7 7 -15 16 -18 8 -3 13 -10 9 -15 -6 -10 96 -91 114
-91 11 0 21 -26 136 -345 46 -126 86 -237 89 -245 5 -13 -6 -15 -66 -14 -107
0 -105 -1 -171 63 -87 82 -93 85 -163 60 -96 -33 -190 -49 -285 -49 l-90 0 45
-56 c26 -31 44 -60 40 -65 -8 -13 -676 -11 -770 2 -149 20 -257 79 -453 246
-107 90 -131 117 -118 129 4 5 63 11 130 15 176 10 273 35 325 82 28 26 28 41
-1 68 -20 19 -29 20 -96 15 -59 -5 -90 -14 -145 -42 -153 -80 -294 -110 -464
-101 -59 3 -131 13 -160 21 l-53 14 -97 -45 c-227 -106 -780 -326 -997 -396
-108 -36 -197 -49 -235 -35 -36 12 -44 37 -38 114 5 52 4 55 -16 50 -106 -29
-317 -32 -406 -7 -21 6 -275 12 -630 14 -399 2 -606 7 -627 15 -31 10 -33 9
-33 -14 0 -36 -18 -64 -39 -64 -27 0 -117 70 -175 137 -28 32 -99 105 -157
163 -113 112 -160 181 -214 310 -50 121 -223 318 -321 365 -48 23 -168 32
-218 15 -78 -25 -97 -76 -147 -397 -62 -406 -146 -769 -203 -881 -51 -101
-185 -172 -323 -172 -46 0 -58 4 -92 35 -21 19 -42 35 -46 35 -4 0 -25 -15
-46 -34 -44 -41 -110 -63 -229 -78 -147 -18 -235 2 -259 60 -7 16 -9 41 -5 55
7 32 3 33 -68 8 -96 -33 -198 -45 -316 -36 -59 4 -132 7 -162 7 -30 -1 -125
-2 -210 -4 -134 -2 -166 0 -235 19 -57 16 -119 23 -215 26 -158 6 -251 27
-376 87 -46 22 -90 40 -99 40 -13 0 -15 -270 -15 -2505 l0 -2505 22095 0
22095 0 0 2395 0 2395 -123 -3 c-121 -2 -124 -2 -172 28 -61 38 -122 125 -209
300 -69 138 -101 238 -91 284 3 15 21 49 40 76 55 76 52 80 -79 88 -52 4 -73
10 -89 26 -20 20 -20 24 -9 91 20 118 16 123 -63 60 -27 -21 -51 -37 -54 -35
-2 3 1 29 8 58 7 28 11 63 10 77 -3 21 -10 25 -45 28 -36 3 -45 -1 -67 -28
-55 -65 -45 -164 28 -270 52 -76 120 -269 184 -517 70 -275 115 -523 95 -523
-5 0 -148 -9 -319 -20 -571 -37 -744 -23 -803 61 -11 16 -26 19 -106 19 -81 0
-176 11 -228 26 -14 4 -19 -6 -29 -55 -30 -152 -99 -181 -434 -181 -268 0
-356 17 -383 73 -10 21 -19 27 -42 25 -16 -1 -37 6 -49 16 -19 18 -30 37 -125
236 -54 114 -120 197 -213 267 -131 100 -287 153 -446 153 -118 0 -215 -28
-351 -100 -134 -72 -206 -90 -356 -90 -113 0 -414 23 -520 40 -158 26 -207 62
-244 180 l-24 74 -108 -3 c-116 -2 -217 13 -318 48 -33 12 -61 21 -63 21 -1 0
-3 -11 -3 -24 0 -13 -7 -29 -15 -36 -24 -20 -64 15 -100 84 -42 82 -96 119
-178 124 -48 2 -71 -1 -100 -17 l-39 -20 6 25 c4 14 13 62 22 107 8 45 23 116
33 157 10 41 24 108 32 149 10 60 18 79 42 100 16 14 33 34 39 45 5 10 9 82 9
162 -2 132 0 145 19 164 11 11 28 20 38 20 11 0 33 7 51 16 18 9 59 18 91 21
l59 6 6 38 c4 21 4 42 1 47 -3 5 -27 12 -53 15 -26 3 -73 14 -103 24 l-55 18
-3 49 c-3 52 11 135 65 376 59 264 150 610 164 625 5 5 9 24 9 42 0 38 23 98
47 125 9 10 21 27 27 38 49 86 60 111 72 155 8 28 14 73 14 101 0 43 -6 59
-39 105 -127 177 -445 147 -492 -46 -14 -55 -14 -184 -2 -255 5 -25 5 -65 1
-90 -92 -578 -183 -1037 -213 -1070 -8 -9 -15 -28 -15 -42 0 -14 -6 -28 -14
-31 -14 -6 -173 24 -208 38 -19 8 -23 2 -32 -52 -5 -29 -2 -34 27 -48 18 -8
63 -44 101 -80 65 -62 68 -67 62 -100 -6 -29 -54 -143 -98 -232 -8 -17 -7 -34
6 -72 22 -67 20 -102 -9 -234 -13 -62 -40 -186 -59 -277 -101 -476 -118 -557
-147 -690 -16 -80 -36 -169 -42 -199 l-12 -54 -80 2 c-188 4 -271 37 -376 147
-67 71 -90 105 -98 145 l-6 30 -140 2 c-121 2 -154 6 -239 31 -92 27 -99 28
-108 11 -28 -49 -45 -56 -136 -54 -49 1 -100 -4 -117 -11 -55 -22 -176 -40
-266 -40 -112 0 -219 21 -329 66 l-85 34 -27 -32 c-20 -22 -28 -43 -28 -69 0
-63 -71 -183 -133 -224 -25 -16 -28 -16 -53 0 -14 9 -33 30 -42 46 -10 16 -21
27 -27 25 -5 -2 -27 -11 -47 -20 -34 -15 -37 -15 -42 2 -4 10 5 83 19 162 14
80 46 267 70 415 25 149 57 324 70 390 13 66 33 192 45 280 25 196 44 311 63
367 8 24 20 90 27 148 13 117 36 241 74 405 15 61 29 153 32 205 3 52 23 196
44 320 21 124 46 272 55 330 9 58 23 139 32 180 8 41 23 127 33 190 10 63 28
165 40 225 25 129 60 385 60 436 0 32 -4 37 -46 57 -26 13 -49 20 -52 17 -8
-8 -225 -1314 -433 -2610 -17 -104 -44 -266 -60 -360 -41 -236 -134 -803 -169
-1023 -16 -101 -32 -187 -35 -190 -4 -4 -91 -7 -193 -8 -182 0 -189 -1 -252
-29 -62 -26 -73 -28 -225 -29 -88 0 -176 2 -196 7 -37 8 -40 10 -147 162 -31
44 -107 148 -168 231 -167 224 -159 206 -139 314 18 103 13 189 -11 169 -11
-9 -14 -8 -14 5 0 10 -4 14 -10 11 -6 -3 -10 4 -10 18 0 32 -26 56 -33 30 -4
-17 -5 -17 -6 0 0 9 -5 17 -11 17 -5 0 -10 14 -10 31 0 16 -4 28 -9 25 -11 -7
-23 37 -15 57 3 8 -2 17 -10 20 -10 4 -16 1 -16 -8 0 -8 -4 -15 -10 -15 -10 0
-15 20 -11 54 1 16 -1 17 -14 6 -13 -11 -15 -8 -16 16 0 25 -2 26 -9 9 -7 -18
-9 -16 -16 13 -5 24 -9 30 -15 20 -6 -9 -9 -6 -9 10 0 13 -4 20 -10 17 -10 -6
-14 7 -11 34 2 7 -2 10 -8 6 -6 -3 -11 1 -11 9 0 9 -6 16 -14 16 -9 0 -12 9
-8 28 4 26 4 26 -12 7 -15 -19 -15 -18 -17 20 -2 48 -16 110 -18 80 -2 -19 -2
-19 -16 -2 -7 11 -11 25 -8 33 3 8 0 14 -6 14 -7 0 -11 -26 -11 -73 0 -98 -18
-187 -36 -180 -8 3 -14 -1 -14 -11 0 -27 -79 -11 -149 31 -34 20 -61 40 -61
45 0 18 61 242 72 262 6 12 24 41 41 64 28 42 29 46 17 88 -13 47 -6 106 26
214 12 40 19 50 37 50 43 0 212 -52 255 -78 46 -29 152 -113 195 -156 55 -55
63 -15 16 78 -81 160 -214 281 -351 320 -84 24 -85 29 -43 203 20 82 57 234
82 338 119 497 141 579 160 593 24 19 110 10 238 -23 118 -31 151 -53 189
-129 38 -75 33 -128 -16 -168 -38 -32 -61 -34 -112 -13 -46 19 -49 1 -5 -34
26 -21 38 -23 86 -18 111 12 180 98 155 193 -18 68 -16 84 12 84 13 0 29 -7
37 -16 7 -8 29 -24 48 -35 20 -11 56 -35 81 -54 25 -20 61 -42 80 -51 19 -9
43 -24 52 -34 9 -10 41 -26 70 -35 29 -10 59 -22 66 -28 23 -18 12 -46 -27
-73 -22 -14 -42 -32 -45 -40 -9 -24 15 -27 46 -4 43 32 87 22 154 -36 79 -67
115 -151 90 -206 -6 -13 -4 -18 6 -18 17 0 42 26 51 53 4 11 17 17 37 17 45 0
62 -48 54 -154 -11 -142 -61 -224 -169 -276 -47 -23 -48 -23 -121 -6 -47 11
-86 28 -110 47 -20 16 -47 29 -59 29 -24 0 -55 -28 -55 -51 0 -21 92 -130 203
-241 73 -72 107 -99 132 -104 40 -7 91 3 124 25 39 25 115 109 132 146 8 19
23 43 32 53 9 10 30 70 47 133 38 146 39 226 4 354 -28 99 -27 124 6 132 32 8
24 19 -37 49 -115 57 -262 204 -303 303 -16 39 -29 39 -37 0 -10 -50 -30 -47
-88 15 -29 31 -57 56 -63 56 -6 0 -23 11 -39 24 -15 13 -46 29 -67 36 -22 7
-72 27 -112 46 -39 18 -125 47 -189 64 -65 17 -150 47 -190 66 -39 19 -76 34
-82 34 -6 0 -23 10 -38 23 -30 23 -82 53 -155 87 -72 34 -75 36 -78 62 -2 13
13 69 33 124 42 113 49 137 101 324 20 74 43 147 50 162 18 35 57 146 79 223
9 33 30 85 46 115 16 30 29 60 29 66 0 6 12 21 26 35 23 21 25 29 19 69 -4 24
-15 61 -26 82 -10 20 -19 42 -19 49 0 11 20 40 75 106 27 33 29 41 27 100 -2
36 5 109 17 166 11 56 25 147 31 203 6 56 20 138 30 183 11 45 20 107 20 137
0 103 94 484 134 544 13 19 29 51 35 71 6 20 22 50 34 67 32 43 61 133 54 163
-4 13 -25 44 -48 68 -50 54 -61 83 -53 127 10 52 -31 85 -64 52z m-17235
-3465 c-3 -10 -5 -2 -5 17 0 19 2 27 5 18 2 -10 2 -26 0 -35z m208 -493 c-3
-5 -12 -10 -18 -10 -7 0 -6 4 3 10 19 12 23 12 15 0z m-1575 -33 c0 -7 11 -28
25 -47 14 -19 25 -39 25 -44 0 -6 -16 13 -35 41 -38 56 -40 63 -25 63 6 0 10
-6 10 -13z m8940 -637 c-6 -11 -13 -20 -16 -20 -2 0 0 9 6 20 6 11 13 20 16
20 2 0 0 -9 -6 -20z m70 -794 c0 -2 -8 -10 -17 -17 -16 -13 -17 -12 -4 4 13
16 21 21 21 13z m8450 -140 l35 -40 -30 19 -30 18 29 -31 c16 -18 47 -44 68
-58 21 -15 36 -29 34 -31 -5 -6 -156 107 -156 116 0 9 12 52 14 49 0 -2 17
-21 36 -42z m0 -65 c25 -21 45 -43 45 -48 0 -13 116 -124 164 -158 60 -41 64
-54 5 -16 l-49 33 33 -31 c33 -31 42 -48 20 -35 -7 4 -10 4 -6 0 3 -4 20 -15
37 -24 18 -9 32 -21 32 -27 0 -5 10 -20 21 -32 12 -13 17 -23 12 -23 -5 0 -1
-7 9 -14 10 -8 20 -20 21 -28 1 -7 25 -35 52 -63 37 -38 64 -55 114 -72 l65
-21 193 -267 c106 -147 191 -269 189 -271 -8 -9 -118 45 -187 91 -79 52 -162
132 -218 208 -33 44 -51 58 -99 76 -78 30 -616 262 -626 271 -4 3 5 30 19 59
25 49 26 60 21 138 -6 82 -5 86 27 147 19 35 37 82 41 105 4 22 10 41 13 41 4
0 27 -18 52 -39z m80 -66 c7 -8 8 -15 2 -15 -5 0 -15 7 -22 15 -7 8 -8 15 -2
15 5 0 15 -7 22 -15z m-25588 -302 c13 -30 23 -76 26 -123 3 -66 1 -79 -20
-110 -58 -86 -174 -102 -303 -42 -71 34 -125 76 -125 98 0 28 57 77 148 128
153 85 175 95 215 96 36 0 39 -3 59 -47z m30687 -270 c203 -128 341 -241 341
-279 0 -38 -210 -104 -474 -149 -192 -33 -187 -33 -180 8 8 40 45 225 84 416
17 79 30 146 30 148 0 3 21 -14 47 -36 25 -23 94 -71 152 -108z m-28350 52 c0
-5 -4 -3 -9 5 -5 8 -9 22 -9 30 0 16 17 -16 18 -35z m23152 -34 c408 -183 580
-280 624 -354 16 -26 16 -30 0 -46 -34 -38 -97 -46 -360 -45 -225 0 -526 17
-548 31 -5 3 -2 12 6 21 43 49 57 98 54 194 -2 88 0 95 27 135 17 25 31 61 34
88 2 25 6 45 7 45 2 0 72 -31 156 -69z m-25309 14 c8 -30 2 -66 -14 -99 -8
-15 -12 -16 -19 -5 -10 17 -12 123 -2 133 12 12 27 0 35 -29z m-4269 -137 c27
-36 35 -129 14 -147 -24 -19 -49 -10 -73 27 -28 41 -39 103 -24 132 15 29 57
23 83 -12z m16590 -678 c58 -68 101 -158 101 -213 1 -43 -3 -52 -35 -82 -27
-24 -54 -37 -107 -49 -232 -53 -842 30 -842 114 0 36 80 66 450 170 135 38
263 75 285 84 22 8 57 15 77 15 31 1 42 -5 71 -39z m5358 -381 c67 -29 91 -60
77 -100 -22 -63 -115 -84 -164 -38 -27 25 -74 109 -74 132 0 43 68 46 161 6z
m-3488 -525 c36 -19 57 -61 36 -75 -49 -31 -162 -36 -221 -8 -32 14 -35 28
-10 58 38 48 128 59 195 25z"/>
<path d="M9100 6612 c6 -13 14 -21 18 -18 3 4 -2 14 -12 24 -18 16 -18 16 -6
-6z"/>
<path d="M16907 6189 c-10 -35 -9 -39 7 -39 22 0 26 13 12 39 l-13 23 -6 -23z"/>
<path d="M41380 5373 c0 -6 9 -21 21 -34 l20 -24 -17 30 c-24 39 -24 40 -24
28z"/>
<path d="M31785 5185 c-27 -8 -75 -17 -105 -21 -30 -4 -73 -16 -95 -27 l-39
-20 48 -43 c63 -58 108 -60 163 -10 37 33 102 137 86 135 -4 0 -30 -7 -58 -14z"/>
</g>
</svg>
