<?xml version="1.0" standalone="no"?>
<svg version="1.0" xmlns="http://www.w3.org/2000/svg"
  width="700.000000pt" height="350.000000pt" viewBox="0 0 4419.000000 2206.000000"
  preserveAspectRatio="xMidYMid meet">
  <defs>
    <radialGradient 
      id="exampleGradient"
      cx="0.6"
      cy="0.75"
      fx="0.61"
      fy="1.0"
      fr="5%"
    >
      <stop offset="30%" stop-color="#696969" />
      <stop offset="100%" stop-color="#000000"/>
    </radialGradient>
  </defs>

<g transform="translate(-60.000000,2500.000000) scale(0.100000,-0.100000)"
fill="#000000" stroke="none" style="fill: url(#exampleGradient);">
<path d="M22072 13344 c-20 -14 -22 -21 -16 -63 6 -44 4 -51 -26 -85 -38 -42
-78 -66 -114 -66 -58 0 -73 -76 -36 -185 11 -32 20 -73 20 -92 0 -18 9 -59 21
-91 19 -53 21 -83 24 -422 4 -438 -6 -731 -29 -815 -9 -32 -16 -89 -16 -126 0
-39 -8 -92 -20 -129 -11 -34 -20 -72 -20 -84 0 -12 -11 -42 -25 -68 -30 -56
-31 -70 -6 -92 10 -10 22 -34 26 -54 4 -20 15 -47 26 -60 25 -32 25 -84 -1
-107 -11 -10 -20 -24 -20 -30 0 -7 -10 -24 -21 -39 -24 -30 -23 -65 6 -166 8
-30 15 -82 15 -115 0 -33 7 -98 15 -145 9 -47 20 -175 25 -285 5 -110 14 -229
21 -265 6 -36 11 -179 12 -319 l2 -255 -60 -23 c-33 -13 -94 -27 -136 -32 -41
-5 -86 -14 -98 -20 -12 -7 -75 -16 -139 -21 -64 -5 -137 -14 -162 -19 -25 -6
-128 -13 -230 -16 -261 -8 -434 -44 -505 -106 -11 -10 -36 -25 -56 -33 -51
-21 -79 -1 -79 55 0 45 -15 51 -32 12 -43 -101 -210 -247 -308 -270 -14 -3
-44 -11 -67 -19 -28 -9 -64 -11 -107 -7 -55 5 -66 3 -66 -9 0 -9 13 -21 29
-28 44 -18 64 -45 57 -75 -4 -14 -11 -25 -17 -25 -18 0 -111 -94 -145 -146
-18 -28 -36 -64 -40 -80 -3 -16 -14 -40 -23 -54 -24 -37 -23 -304 1 -340 9
-14 20 -43 24 -65 3 -22 12 -47 19 -55 6 -8 23 -36 38 -61 38 -66 150 -172
216 -204 31 -15 68 -33 83 -41 34 -18 92 -18 108 1 7 8 18 15 26 15 15 0 325
301 322 312 -2 4 -64 9 -138 11 -95 3 -146 9 -174 21 -21 9 -48 16 -60 16 -11
0 -32 7 -46 15 -14 8 -35 19 -48 24 -40 19 -92 65 -125 111 -31 44 -32 48 -32
150 0 98 2 108 30 155 16 28 34 55 40 61 5 6 24 27 41 46 40 45 80 72 98 65 7
-3 16 -18 19 -34 8 -36 73 -123 92 -123 11 0 15 12 15 48 0 39 7 57 41 105 22
31 44 57 49 57 5 0 21 10 37 23 15 13 52 33 80 45 49 21 55 21 89 7 43 -18 50
-15 35 13 -21 40 -13 71 22 87 29 14 63 32 107 57 8 4 26 13 40 19 14 6 32 15
40 20 8 5 26 14 40 20 14 6 44 20 68 30 23 10 52 19 63 19 11 0 40 9 64 20 44
20 179 31 203 16 20 -12 13 -41 -18 -81 -28 -35 -30 -44 -30 -120 0 -75 2 -85
30 -123 17 -23 36 -42 44 -42 7 0 25 -9 39 -20 35 -28 151 -28 185 -1 37 32
27 41 -43 41 -60 0 -68 3 -103 34 -50 46 -65 99 -45 166 20 68 69 104 193 142
46 14 205 4 252 -16 21 -9 56 -16 78 -16 27 0 47 -7 60 -20 19 -19 20 -35 22
-557 2 -705 0 -780 -21 -818 -23 -40 -75 -65 -138 -65 -154 0 -226 -24 -364
-119 -77 -54 -259 -228 -259 -248 0 -29 87 -5 212 58 20 11 46 19 58 19 12 0
38 9 58 19 57 30 424 73 445 52 8 -8 12 -62 12 -176 l0 -164 -30 -31 -29 -30
21 -93 c13 -53 24 -146 28 -221 3 -70 10 -137 16 -148 8 -15 6 -42 -6 -102
-15 -77 -15 -86 0 -127 27 -71 28 -85 10 -118 -10 -20 -17 -60 -18 -104 -2
-60 2 -77 20 -102 36 -50 38 -92 7 -150 -34 -62 -36 -151 -5 -218 l20 -44 -25
-73 c-31 -87 -27 -154 11 -210 38 -57 38 -71 4 -135 -40 -75 -44 -159 -11
-205 28 -38 29 -107 2 -157 -28 -52 -27 -171 0 -232 25 -55 25 -75 -2 -119
-19 -31 -22 -50 -22 -137 1 -90 4 -106 29 -153 23 -45 27 -61 22 -105 -3 -29
-16 -74 -30 -100 l-24 -48 -47 52 c-25 28 -54 64 -63 79 -12 21 -26 29 -55 33
-44 6 -72 27 -95 70 -20 39 -37 29 -45 -27 -8 -57 -28 -90 -71 -117 -58 -35
-105 -43 -181 -28 -65 12 -70 12 -112 -10 -25 -14 -66 -51 -96 -89 -87 -107
-151 -125 -290 -82 -76 23 -93 43 -85 99 15 114 94 240 244 388 101 100 129
134 106 133 -5 -1 -30 -7 -58 -14 -108 -29 -101 6 30 143 105 110 128 151 85
151 -55 0 -199 -99 -298 -205 -58 -62 -75 -88 -88 -133 -14 -48 -29 -68 -103
-142 -91 -91 -194 -170 -255 -195 -34 -14 -36 -14 -50 7 -40 63 -108 355 -109
468 0 184 78 244 338 261 77 4 169 15 205 24 202 48 410 142 410 185 0 43
-438 -44 -711 -141 -166 -58 -228 -68 -282 -45 -35 14 -43 14 -100 -2 -46 -13
-101 -17 -215 -17 -83 0 -152 -1 -152 -1 0 -1 9 -21 20 -45 32 -72 28 -84 -37
-109 -199 -75 -616 -152 -803 -149 -107 2 -128 -4 -188 -54 -29 -25 -57 -38
-90 -43 -60 -9 -218 7 -446 46 l-179 31 -66 -18 c-94 -25 -319 -25 -416 1 -93
25 -175 59 -249 106 -39 24 -83 42 -121 49 -95 17 -137 60 -99 102 17 19 17
21 -5 50 -120 162 -181 334 -181 508 0 48 -7 113 -15 146 -33 124 -128 257
-223 308 -45 24 -76 33 -198 52 l-32 6 19 84 c10 47 30 122 44 166 14 45 30
112 35 149 5 38 35 169 66 292 117 470 134 538 154 639 31 153 88 369 104 393
7 12 62 50 121 85 59 36 117 73 128 83 l22 19 -25 -12 c-22 -10 -21 -7 10 26
l35 38 -28 -5 -28 -5 23 25 c13 14 17 22 11 18 -20 -11 -15 5 9 31 12 13 22
32 23 43 2 21 -10 27 -20 10 -3 -5 -11 -10 -17 -10 -6 0 -3 9 6 19 13 15 14
20 4 24 -9 3 -1 15 22 35 28 25 31 31 16 32 -18 0 -18 1 -3 18 10 10 14 22 10
27 -5 4 -2 5 5 1 6 -4 12 -3 12 3 0 5 9 13 20 16 11 3 20 11 20 16 0 6 -6 7
-12 3 -8 -5 -8 -1 1 10 13 16 12 17 -12 11 -17 -5 -27 -3 -27 4 0 6 5 11 11
11 6 0 9 6 6 13 -3 8 7 21 25 31 33 20 32 34 -1 16 -30 -16 -27 6 4 26 29 19
34 40 6 24 -33 -17 -34 -11 -5 27 19 26 23 35 11 30 -21 -8 -22 6 -2 23 13 11
13 15 3 21 -9 6 -5 16 17 40 28 30 29 31 5 19 -25 -13 -25 -13 -7 8 10 11 17
26 15 34 -2 8 11 27 27 42 l30 27 -33 -16 c-44 -21 -36 -6 36 69 56 60 64 73
31 55 -15 -8 -19 -8 -15 0 13 20 -9 11 -49 -20 -24 -19 -18 -11 15 20 30 28
58 51 63 51 4 0 7 8 7 17 0 14 -5 12 -27 -9 -62 -56 -238 -178 -258 -178 -3 0
-5 7 -5 15 0 17 -25 20 -35 5 -10 -17 -25 -11 -34 13 -5 12 -18 31 -29 43 -12
12 -22 42 -27 75 -4 30 -11 70 -16 89 -6 19 -14 71 -18 115 l-8 80 -3 -90 c-2
-49 -4 -94 -5 -100 -2 -5 -3 -27 -4 -47 -1 -46 -21 -51 -21 -6 0 17 -3 28 -7
25 -3 -4 -6 -60 -6 -125 2 -131 -13 -112 -17 23 -3 106 -19 157 -19 60 0 -38
0 -99 -2 -135 -2 -64 -2 -64 -9 -20 -7 45 -7 46 -16 -205 -2 -62 -6 -73 -14
-40 -6 24 -8 17 -10 -35 -1 -36 -4 -57 -7 -47 -2 9 -9 17 -14 17 -11 0 -12
-23 0 -35 4 -6 11 -32 14 -60 6 -47 6 -49 -8 -25 -13 22 -14 22 -13 5 3 -52
-3 -96 -13 -90 -6 4 -10 1 -8 -6 1 -8 1 -30 0 -49 -1 -27 -4 -31 -11 -20 -9
14 -16 -69 -12 -140 1 -20 -1 -22 -9 -10 -16 24 0 -47 23 -100 44 -101 45
-104 35 -145 -5 -22 -58 -242 -118 -490 -129 -539 -276 -1152 -281 -1180 -4
-23 2 -23 -146 5 -63 12 -129 20 -148 17 -19 -3 -34 -3 -34 -1 0 3 -14 69 -30
147 -17 78 -39 185 -50 237 -27 126 -59 268 -109 479 -23 95 -44 199 -48 232
-6 58 -5 59 49 141 108 162 126 195 92 167 -15 -12 -15 -10 0 25 9 21 16 40
16 42 0 7 -35 -10 -43 -20 -9 -11 -6 1 9 38 6 15 4 17 -6 11 -10 -6 -12 -2 -8
16 3 13 8 31 12 39 3 8 2 22 -4 30 -8 13 -11 12 -25 -5 -15 -19 -15 -19 -9 9
5 21 4 27 -5 22 -15 -10 -13 14 4 44 19 33 19 46 0 30 -14 -11 -15 -8 -11 24
3 21 10 44 16 51 8 9 8 20 2 31 -6 11 -11 13 -16 5 -12 -19 -28 -12 -21 9 4
12 2 20 -5 20 -7 0 -5 8 4 22 21 29 20 49 0 23 -16 -20 -16 -19 -11 5 2 14 8
34 12 45 5 17 3 16 -16 -5 l-22 -25 7 50 c5 35 4 46 -3 35 -9 -12 -11 -9 -11
13 0 15 -5 27 -11 27 -10 0 -7 15 9 60 5 13 4 13 -13 0 -17 -14 -18 -14 -6 9
11 20 11 25 -2 33 -14 7 -14 12 -1 36 20 39 17 48 -7 21 l-21 -24 7 25 c4 14
13 48 20 75 7 28 16 59 20 70 6 16 3 16 -15 -5 -21 -24 -21 -24 -10 -2 6 13 9
26 6 29 -2 3 -18 -21 -35 -53 -39 -76 -39 -65 0 21 16 37 28 72 26 78 -2 7
-23 -28 -46 -78 -64 -136 -141 -249 -141 -205 0 18 -22 10 -27 -10 -7 -25 -11
-25 -48 1 -16 11 -40 24 -52 29 -13 5 -23 16 -23 25 0 8 -4 15 -8 15 -5 0 -18
18 -31 40 -12 22 -28 43 -36 47 -7 5 -32 39 -54 78 -44 74 -55 82 -19 12 28
-56 78 -197 69 -197 -4 0 -15 14 -25 31 -10 17 -20 28 -23 26 -2 -3 21 -53 51
-111 31 -58 53 -106 48 -106 -4 0 -34 48 -66 106 -32 58 -60 103 -63 101 -2
-3 16 -45 40 -93 54 -107 70 -158 33 -99 -37 58 -32 32 8 -41 19 -34 32 -65
29 -68 -4 -3 -2 -6 4 -6 10 0 17 -26 26 -100 2 -14 11 -39 20 -57 21 -39 21
-44 2 -37 -8 4 -15 1 -15 -5 0 -7 6 -14 14 -17 8 -3 26 -24 41 -46 22 -32 24
-40 10 -34 -14 5 -15 3 -8 -6 6 -7 13 -22 15 -33 3 -11 9 -29 14 -39 5 -14 4
-17 -4 -12 -16 9 -15 5 5 -34 11 -24 13 -35 5 -38 -8 -2 -3 -20 13 -52 14 -27
25 -56 25 -65 0 -8 5 -15 11 -15 6 0 8 -8 4 -19 -5 -18 30 -53 143 -147 5 -3
39 -154 128 -564 41 -190 88 -403 103 -475 l29 -130 -45 -52 c-24 -29 -53 -53
-63 -53 -27 0 -81 68 -136 173 -27 50 -60 105 -74 121 -44 52 -139 105 -249
139 -89 27 -111 38 -148 74 -26 26 -52 43 -67 43 -13 0 -61 12 -107 26 -77 23
-101 26 -271 27 -168 2 -187 0 -197 -15 -16 -25 -28 -22 -45 11 -11 20 -30 34
-60 44 l-45 16 -35 -47 c-38 -52 -132 -145 -185 -181 -39 -28 -50 -19 -51 39
-1 49 -73 712 -120 1090 -11 91 -25 215 -31 275 -5 61 -12 120 -15 132 -3 12
-16 117 -28 235 -23 209 -23 214 -5 244 20 33 25 74 10 89 -13 15 -61 160 -61
187 0 16 15 36 44 61 25 20 48 37 52 37 4 0 15 6 23 14 32 27 189 45 236 27
16 -6 19 -16 17 -44 -8 -90 105 -104 176 -22 24 27 29 76 12 119 -19 50 -102
69 -203 47 -99 -22 -201 -38 -302 -47 -87 -7 -91 -3 -104 97 -5 41 -16 124
-25 184 -25 188 -41 451 -29 477 8 18 7 32 -4 59 -20 46 -22 201 -4 223 9 11
16 53 19 115 4 89 2 103 -19 145 -36 72 -74 91 -184 90 -97 0 -132 -12 -180
-59 -76 -77 -75 -150 5 -322 28 -60 32 -80 35 -170 2 -66 8 -112 18 -130 20
-37 33 -118 57 -338 24 -234 33 -387 23 -402 -10 -15 -194 -33 -331 -33 -166
0 -222 -28 -225 -112 -2 -52 9 -69 71 -105 37 -22 49 -25 80 -17 49 12 72 51
53 88 -11 19 -11 29 -2 39 35 43 214 48 287 9 21 -12 52 -26 67 -32 l28 -10
-6 -82 c-3 -46 -8 -104 -11 -131 -5 -40 -2 -52 19 -80 33 -44 43 -83 57 -217
6 -63 16 -146 21 -185 5 -38 20 -173 34 -300 13 -126 27 -246 29 -265 5 -37
14 -119 46 -425 11 -104 22 -206 25 -225 6 -40 41 -352 51 -452 l7 -66 -58 -7
c-101 -13 -261 1 -355 29 -47 15 -137 33 -200 41 -63 8 -159 24 -214 36 -89
21 -101 21 -125 8 -19 -11 -26 -23 -26 -44 0 -35 -31 -55 -90 -55 -30 0 -179
-42 -204 -58 -8 -4 72 -82 91 -88 50 -16 -3 -61 -122 -105 -91 -33 -146 -37
-192 -13 -35 18 -224 195 -221 206 2 4 -16 12 -39 19 -23 6 -72 26 -108 44
l-65 33 -36 -18 c-53 -28 -155 -60 -239 -76 -44 -9 -83 -22 -95 -34 l-21 -19
-69 147 c-38 81 -133 284 -212 452 -162 343 -153 324 -184 405 -18 49 -39 76
-109 145 -94 92 -104 106 -114 162 -7 37 -6 38 46 64 152 74 396 159 513 179
57 9 173 7 220 -5 22 -5 45 -10 51 -10 6 0 45 39 87 88 41 48 84 98 96 111 20
23 29 47 14 38 -5 -3 -30 -8 -58 -11 -27 -3 -59 -8 -70 -11 -106 -25 -152 -36
-165 -39 -8 -2 -22 -5 -30 -8 -8 -3 -62 -20 -120 -38 -58 -18 -125 -40 -150
-50 -25 -10 -72 -28 -105 -41 -33 -12 -87 -34 -120 -49 -181 -82 -224 -100
-236 -100 -12 0 -59 99 -59 123 0 4 -30 59 -67 123 -38 63 -75 127 -83 142 -8
15 -18 29 -21 32 -4 3 -41 73 -84 155 -97 188 -142 265 -195 335 -40 53 -41
57 -35 108 4 28 3 52 -2 52 -5 0 -17 14 -26 30 -10 17 -27 30 -37 30 -24 0
-43 34 -35 61 4 12 -1 31 -12 47 -38 56 -102 170 -148 262 -62 124 -69 188
-31 274 14 33 24 61 22 63 -8 8 -155 4 -173 -5 -10 -5 -36 -15 -58 -22 -56
-18 -138 -81 -174 -134 -17 -25 -31 -47 -31 -49 0 -3 20 -8 44 -11 96 -15 165
-84 221 -224 15 -37 34 -82 42 -100 8 -18 25 -68 39 -112 18 -56 31 -81 45
-85 31 -10 43 -41 25 -67 -13 -18 -13 -24 0 -49 7 -15 14 -35 14 -43 0 -8 17
-23 37 -33 35 -17 38 -23 54 -93 9 -41 25 -97 37 -125 22 -55 115 -272 137
-320 8 -16 30 -75 49 -130 62 -179 97 -264 132 -322 19 -31 34 -62 34 -67 0
-6 -89 -56 -198 -111 -108 -55 -206 -108 -216 -117 -11 -10 -24 -18 -29 -18
-6 0 -35 -16 -66 -37 -31 -20 -87 -57 -126 -82 -38 -25 -74 -49 -80 -53 -5 -5
-28 -22 -50 -39 -97 -74 -175 -143 -175 -154 0 -4 64 -5 143 -2 78 4 147 6
154 7 6 0 15 10 19 23 22 72 133 193 255 280 100 71 413 239 422 226 54 -79
56 -84 68 -204 13 -129 11 -125 123 -345 48 -93 378 -787 439 -924 l31 -69
-48 -43 c-27 -24 -63 -48 -79 -55 -29 -12 -32 -11 -58 20 -28 34 -62 100 -142
273 -44 95 -110 181 -147 193 -47 15 -146 -61 -385 -295 -191 -187 -276 -249
-349 -257 -50 -6 -67 10 -75 70 -8 54 -24 57 -46 8 -19 -43 -96 -95 -113 -76
-5 6 -24 55 -42 110 -18 55 -50 145 -72 200 -66 167 -128 344 -129 373 -1 15
18 68 41 117 40 84 62 184 37 168 -14 -8 -27 17 -27 53 0 39 -9 48 -26 26 -12
-15 -12 -15 -7 6 3 13 1 22 -7 22 -11 0 -9 14 7 58 3 8 0 10 -10 6 -13 -5 -14
0 -7 32 5 22 5 45 0 53 -6 10 -10 11 -10 4 0 -7 -6 -13 -13 -13 -15 0 -16 47
-2 71 7 11 5 11 -10 -1 -17 -14 -18 -13 -11 14 7 27 6 28 -10 15 -16 -13 -17
-11 -12 19 4 26 2 32 -10 27 -10 -4 -13 0 -9 15 3 11 1 20 -5 20 -6 0 -8 11
-6 25 3 13 1 22 -3 19 -5 -3 -9 4 -9 15 0 12 -4 21 -10 21 -6 0 -6 9 0 26 14
36 12 41 -5 18 -14 -18 -15 -15 -10 31 3 28 8 59 10 71 3 14 -1 21 -11 21 -9
0 -13 -6 -10 -14 3 -8 1 -11 -4 -8 -6 3 -10 1 -10 -6 0 -7 -2 -10 -5 -8 -2 3
0 22 6 43 18 66 3 49 -20 -21 -35 -107 -83 -206 -93 -191 -7 10 -11 9 -22 -5
-13 -16 -15 -16 -54 1 -39 17 -120 93 -185 173 l-28 34 22 -34 c44 -66 78
-145 66 -153 -7 -4 5 -27 32 -63 24 -31 41 -59 38 -61 -2 -2 -30 30 -62 73
-32 43 -62 83 -68 88 -16 17 14 -36 48 -84 18 -25 38 -57 44 -71 11 -23 10
-22 -15 5 l-27 30 18 -30 c10 -16 25 -39 35 -50 9 -11 25 -38 35 -60 10 -22
36 -62 58 -90 l39 -50 -36 37 c-41 43 -45 40 -14 -10 12 -20 16 -32 10 -28
-23 14 -12 -6 18 -31 29 -24 42 -52 18 -37 -9 6 -9 3 1 -9 7 -9 11 -24 7 -32
-3 -9 -2 -14 3 -11 5 3 15 -2 22 -11 10 -12 10 -14 2 -9 -17 10 -16 0 3 -29
11 -16 12 -25 5 -25 -7 0 0 -17 14 -37 14 -21 25 -43 25 -49 0 -7 7 -15 16
-18 8 -3 13 -10 9 -15 -6 -10 96 -91 114 -91 11 0 21 -26 136 -345 46 -126 86
-237 89 -245 5 -13 -6 -15 -66 -14 -107 0 -105 -1 -171 63 -87 82 -93 85 -163
60 -96 -33 -190 -49 -285 -49 l-90 0 45 -56 c26 -31 44 -60 40 -65 -8 -13
-676 -11 -770 2 -149 20 -257 79 -453 246 -107 90 -131 117 -118 129 4 5 63
11 130 15 120 7 237 28 280 50 32 17 67 51 67 65 0 7 -10 23 -22 35 -21 19
-30 20 -97 15 -59 -5 -90 -14 -145 -42 -153 -80 -294 -110 -464 -101 -59 3
-131 13 -160 21 l-53 14 -97 -45 c-227 -106 -780 -326 -997 -396 -108 -36
-197 -49 -235 -35 -36 12 -44 37 -38 114 5 52 4 55 -16 50 -106 -29 -317 -32
-406 -7 -21 6 -275 12 -630 14 -399 2 -606 7 -627 15 -31 10 -33 9 -33 -14 0
-36 -18 -64 -39 -64 -27 0 -117 70 -175 137 -28 32 -99 105 -157 163 -113 112
-160 181 -214 310 -50 121 -223 318 -321 365 -48 23 -168 32 -218 15 -78 -25
-97 -76 -147 -397 -62 -406 -146 -769 -203 -881 -51 -101 -185 -172 -323 -172
-46 0 -58 4 -92 35 -21 19 -42 35 -46 35 -4 0 -25 -15 -46 -34 -44 -41 -110
-63 -229 -78 -147 -18 -235 2 -259 60 -7 16 -9 41 -5 55 7 32 3 33 -68 8 -96
-33 -198 -45 -316 -36 -59 4 -132 7 -162 7 -30 -1 -125 -2 -210 -4 -134 -2
-166 0 -235 19 -57 16 -119 23 -215 26 -158 6 -251 27 -376 87 -46 22 -90 40
-99 40 -13 0 -15 -270 -15 -2505 l0 -2505 22095 0 22095 0 0 2395 0 2395 -123
-3 c-121 -2 -124 -2 -172 28 -61 38 -122 125 -209 300 -69 138 -101 238 -91
284 3 15 21 49 40 76 55 76 52 80 -79 88 -52 4 -73 10 -89 26 -20 20 -20 24
-9 91 20 118 16 123 -63 60 -27 -21 -51 -37 -54 -35 -2 3 1 29 8 58 7 28 11
63 10 77 -3 21 -10 25 -45 28 -36 3 -45 -1 -67 -28 -55 -65 -45 -164 28 -270
52 -76 120 -269 184 -517 70 -275 115 -523 95 -523 -5 0 -148 -9 -319 -20
-571 -37 -744 -23 -803 61 -11 16 -26 19 -106 19 -81 0 -176 11 -228 26 -14 4
-19 -6 -29 -55 -30 -152 -99 -181 -434 -181 -268 0 -356 17 -383 73 -10 21
-19 27 -42 25 -16 -1 -37 6 -49 16 -19 18 -30 37 -125 236 -54 114 -120 197
-213 267 -131 100 -287 153 -446 153 -118 0 -215 -28 -351 -100 -134 -72 -206
-90 -356 -90 -113 0 -414 23 -520 40 -158 26 -207 62 -244 180 l-24 74 -108
-3 c-116 -2 -217 13 -318 48 -33 12 -61 21 -63 21 -1 0 -3 -11 -3 -24 0 -13
-7 -29 -15 -36 -24 -20 -64 15 -100 84 -42 82 -96 119 -178 124 -48 2 -71 -1
-100 -17 l-39 -20 6 25 c4 14 13 62 22 107 8 45 23 116 33 157 10 41 24 108
32 149 10 60 18 79 42 100 16 14 33 34 39 45 5 10 9 82 9 162 -2 132 0 145 19
164 11 11 28 20 38 20 11 0 33 7 51 16 18 9 59 18 91 21 l59 6 6 38 c4 21 4
42 1 47 -3 5 -27 12 -53 15 -26 3 -73 14 -103 24 l-55 18 -3 49 c-3 52 11 135
65 376 59 264 150 610 164 624 5 6 9 25 9 43 0 38 23 98 47 125 9 10 21 27 27
38 49 86 60 111 72 155 8 28 14 73 14 101 0 43 -6 59 -39 105 -127 177 -445
147 -492 -46 -14 -55 -14 -184 -2 -255 5 -25 5 -65 1 -90 -92 -578 -183 -1037
-213 -1070 -8 -9 -15 -28 -15 -42 0 -14 -6 -28 -14 -31 -14 -6 -173 24 -208
38 -19 8 -23 2 -32 -52 -5 -29 -2 -34 27 -48 18 -8 63 -44 101 -80 65 -62 68
-67 62 -100 -6 -29 -54 -143 -98 -232 -8 -17 -7 -34 6 -72 22 -67 20 -102 -9
-234 -13 -62 -40 -186 -59 -277 -101 -476 -118 -557 -147 -690 -16 -80 -36
-169 -42 -199 l-12 -54 -80 2 c-188 4 -271 37 -376 147 -67 71 -90 105 -98
145 l-6 30 -140 2 c-121 2 -154 6 -239 31 -92 27 -99 28 -108 11 -28 -49 -45
-56 -136 -54 -49 1 -100 -4 -117 -11 -55 -22 -176 -40 -266 -40 -112 0 -219
21 -329 66 l-85 34 -27 -32 c-20 -22 -28 -43 -28 -69 0 -63 -71 -183 -133
-224 -25 -16 -28 -16 -53 0 -14 9 -33 30 -42 46 -10 16 -21 27 -27 25 -5 -2
-27 -11 -47 -20 -34 -15 -37 -15 -42 2 -4 10 5 83 19 162 14 80 46 267 70 415
25 149 57 324 70 390 13 66 33 192 45 280 25 196 44 311 63 367 8 24 20 90 27
148 13 117 36 241 74 405 15 61 29 153 32 205 3 52 23 196 44 320 21 124 46
272 55 330 9 58 23 139 32 180 8 41 23 127 33 190 10 63 28 165 40 225 25 129
60 385 60 436 0 32 -4 37 -46 57 -26 13 -49 20 -52 17 -8 -8 -225 -1314 -433
-2610 -17 -104 -44 -266 -60 -360 -41 -236 -134 -803 -169 -1023 -16 -101 -32
-187 -35 -190 -4 -4 -91 -7 -193 -8 -182 0 -189 -1 -252 -29 -62 -26 -73 -28
-225 -29 -88 0 -176 2 -196 7 -37 8 -40 10 -147 162 -31 44 -107 148 -168 231
-167 224 -159 206 -139 314 18 103 13 189 -11 169 -11 -9 -14 -8 -14 5 0 10
-4 14 -10 11 -6 -3 -10 4 -10 18 0 32 -26 56 -33 30 -4 -17 -5 -17 -6 0 0 9
-5 17 -11 17 -5 0 -10 14 -10 31 0 16 -4 28 -9 25 -11 -7 -23 37 -15 57 3 8
-2 17 -10 20 -10 4 -16 1 -16 -8 0 -8 -4 -15 -10 -15 -10 0 -15 20 -11 54 1
16 -1 17 -14 6 -13 -11 -15 -8 -16 16 0 25 -2 26 -9 9 -7 -18 -9 -16 -16 13
-5 24 -9 30 -15 20 -6 -9 -9 -6 -9 10 0 13 -4 20 -10 17 -10 -6 -14 7 -11 34
2 7 -2 10 -8 6 -6 -3 -11 1 -11 9 0 9 -6 16 -14 16 -9 0 -12 9 -8 28 4 26 4
26 -12 7 -15 -19 -15 -18 -17 20 -2 48 -16 110 -18 80 -2 -19 -2 -19 -16 -2
-7 11 -11 25 -8 33 3 8 0 14 -6 14 -7 0 -11 -26 -11 -73 0 -98 -18 -187 -36
-180 -8 3 -14 -1 -14 -11 0 -13 -8 -15 -44 -11 -43 5 -115 42 -206 105 l-45
31 36 -33 c19 -18 53 -53 75 -78 37 -42 37 -44 9 -26 l-30 19 29 -31 c16 -18
47 -44 68 -58 21 -15 36 -29 34 -32 -3 -2 -33 17 -68 44 -90 68 -100 73 -43
21 28 -24 50 -49 50 -54 0 -13 116 -124 164 -158 60 -41 64 -54 5 -16 l-49 33
33 -31 c33 -31 42 -48 20 -35 -7 4 -10 4 -6 0 3 -4 21 -16 40 -25 18 -10 31
-21 28 -24 -3 -3 6 -17 19 -31 14 -14 20 -26 15 -26 -5 0 -1 -7 9 -14 10 -8
20 -20 21 -28 1 -7 25 -35 52 -63 37 -38 64 -55 114 -72 l65 -21 193 -267
c106 -147 191 -269 189 -271 -8 -9 -118 45 -187 91 -79 52 -162 132 -218 208
-31 41 -51 58 -89 72 -43 16 -741 318 -982 425 -52 23 -103 39 -113 37 -13 -4
-19 2 -23 27 -6 41 -54 578 -60 681 -3 44 -7 100 -10 125 -5 37 -2 51 14 72
23 28 27 58 12 86 -15 26 -49 143 -52 178 -4 33 14 64 37 64 7 0 18 9 24 20 6
11 19 20 29 20 11 0 21 7 25 15 3 8 12 15 21 15 11 0 15 11 15 38 l0 38 -77
-8 c-100 -9 -112 1 -118 93 -2 35 -10 118 -18 184 -22 177 -32 457 -17 484 9
17 8 31 -1 59 -7 20 -13 81 -13 136 l0 98 -79 89 c-67 76 -83 89 -110 90 -18
0 -41 4 -52 8 -13 5 -37 0 -70 -15 -27 -13 -58 -24 -67 -24 -9 0 -19 -4 -22
-8 -7 -11 11 -74 36 -132 42 -93 46 -107 51 -181 4 -47 3 -79 -4 -86 -7 -7 -4
-25 10 -59 19 -47 36 -147 47 -279 2 -33 8 -112 13 -175 15 -197 15 -290 -2
-307 -12 -11 -160 -22 -314 -23 l-71 0 15 -49 16 -49 44 15 c59 20 186 14 233
-11 19 -10 49 -25 65 -34 17 -8 33 -20 37 -26 7 -11 3 -73 -13 -178 -9 -58 -8
-70 8 -98 48 -85 44 -69 58 -255 3 -44 12 -154 20 -245 25 -282 54 -621 60
-710 4 -47 11 -128 15 -180 8 -81 7 -97 -6 -107 -25 -19 -253 -90 -359 -113
-60 -13 -158 -23 -246 -27 l-146 -6 -21 59 c-11 32 -40 113 -63 179 -23 66
-45 128 -50 137 -5 9 -20 59 -34 110 l-25 93 24 20 c52 44 59 95 22 178 -28
63 -43 70 -110 49 -34 -11 -53 -13 -65 -5 -25 16 -72 120 -88 198 -15 69 -21
84 -68 160 -31 49 -29 43 -50 140 -9 44 -30 101 -45 127 -20 32 -32 71 -40
130 -9 62 -20 95 -43 132 -29 45 -32 58 -35 145 -3 114 -22 193 -61 259 -50
85 -73 161 -79 257 l-5 90 -47 39 c-25 21 -63 45 -83 53 -34 14 -39 13 -91
-12 -59 -29 -68 -44 -81 -137 -4 -34 -2 -56 11 -80 12 -24 18 -63 20 -143 6
-204 64 -507 145 -750 64 -191 104 -287 206 -493 57 -118 103 -215 101 -216
-1 -2 -25 -9 -53 -15 -78 -19 -95 -34 -95 -84 0 -55 25 -141 47 -158 9 -8 37
-14 62 -14 l45 0 48 -140 c26 -77 47 -146 47 -153 1 -7 12 -37 25 -65 13 -29
27 -64 30 -79 5 -24 3 -28 -21 -35 -41 -10 -222 13 -283 36 -29 11 -70 32 -92
46 -22 15 -42 24 -46 21 -3 -4 2 -22 11 -41 22 -46 21 -57 -4 -89 -36 -46 -79
-25 -79 38 0 44 -22 33 -69 -36 -17 -27 -36 -48 -41 -48 -10 0 -30 63 -30 95
0 19 -7 20 -167 20 -151 1 -176 4 -249 26 l-81 25 1 -39 c1 -48 -21 -67 -80
-67 -61 0 -74 22 -49 83 12 28 -27 21 -105 -18 -82 -41 -121 -45 -135 -12 -9
19 -19 23 -90 28 -116 8 -218 -23 -273 -83 -61 -66 -79 -82 -121 -101 -56 -25
-157 -33 -191 -15 -37 20 -36 60 3 181 31 94 33 107 18 111 -9 2 -51 12 -94
22 l-78 17 -62 -60 c-86 -83 -133 -117 -224 -162 -117 -59 -207 -81 -356 -88
l-128 -6 -19 -37 c-31 -61 -134 -184 -195 -234 -139 -113 -300 -179 -482 -198
-84 -8 -129 -19 -203 -48 -95 -38 -225 -73 -312 -85 l-47 -6 74 218 c40 120
144 432 230 693 87 261 199 601 251 755 51 154 143 433 204 620 62 187 125
374 140 415 15 41 26 78 24 82 -2 3 -6 53 -8 110 -4 94 -3 108 20 156 13 28
26 52 28 52 1 0 34 -11 72 -24 351 -120 557 -240 644 -374 l30 -47 151 16 c82
9 153 19 156 23 4 3 1 6 -5 6 -6 0 -17 7 -26 15 -41 42 -276 172 -451 250 -16
7 -50 22 -75 33 -77 35 -170 69 -309 116 -74 25 -139 50 -145 56 -7 7 -3 27
13 62 13 29 33 91 46 138 21 80 28 112 56 243 7 28 20 79 29 112 64 220 110
410 110 460 0 50 16 84 49 102 24 15 30 25 34 68 3 27 1 54 -4 60 -11 11 -12
55 -1 55 27 1 33 17 58 150 3 14 7 33 10 42 3 10 7 30 10 45 3 16 19 72 37
127 39 119 72 162 156 200 34 15 61 30 61 34 0 5 -19 26 -42 49 -51 49 -149
100 -209 108 -24 4 -53 8 -64 10 -19 3 -136 -14 -144 -21 -2 -1 6 -16 18 -33
35 -49 53 -103 53 -156 0 -46 -43 -206 -62 -230 -4 -5 -11 -21 -15 -35 -4 -14
-25 -62 -47 -108 -31 -66 -36 -86 -28 -102 13 -25 -3 -60 -28 -60 -10 0 -25
-18 -38 -46 -20 -43 -21 -49 -7 -81 13 -33 13 -37 -10 -72 -35 -54 -72 -136
-117 -262 -22 -63 -47 -127 -54 -144 -8 -16 -18 -43 -22 -60 -4 -16 -22 -61
-39 -100 -67 -145 -133 -311 -139 -352 -10 -68 -24 -96 -43 -88 -17 6 -167 51
-328 98 -38 11 -79 21 -90 21 -11 1 -38 7 -60 13 -44 13 -204 45 -245 49 -14
2 -41 5 -60 8 -37 4 -194 16 -267 20 -39 1 -57 -7 -34 -16 5 -1 45 -35 88 -74
125 -114 137 -123 153 -114 40 22 152 42 236 42 92 -1 192 -10 206 -18 4 -3
20 -7 35 -9 74 -10 359 -91 367 -104 6 -10 -13 -114 -22 -120 -4 -3 -18 -21
-31 -38 -12 -18 -41 -55 -65 -83 -42 -49 -56 -85 -99 -250 -8 -30 -91 -292
-185 -581 -94 -289 -175 -543 -180 -565 -5 -21 -38 -127 -72 -234 -34 -107
-66 -208 -70 -225 -4 -16 -35 -113 -68 -215 -33 -102 -90 -279 -127 -395 -36
-115 -86 -274 -111 -353 l-46 -144 -51 7 c-82 10 -116 24 -123 49 -5 21 12 78
46 162 13 30 12 31 -62 105 -41 41 -93 103 -116 138 l-42 63 -29 -63 c-16 -35
-41 -107 -56 -159 -15 -52 -42 -128 -61 -167 -51 -107 -96 -124 -206 -79 l-57
23 -48 -49 c-93 -96 -241 -186 -363 -221 -53 -16 -56 -18 -73 -67 -10 -28 -25
-54 -33 -57 -9 -3 -29 7 -49 27 -31 30 -34 38 -40 119 -3 47 -13 131 -20 186
-8 55 -15 120 -16 145 -1 25 -8 90 -15 145 -8 55 -14 132 -14 170 0 39 -5 86
-10 105 -6 19 -24 163 -40 320 -39 373 -46 437 -69 615 -18 136 -24 215 -22
270 1 11 33 58 72 105 72 86 101 129 80 116 -15 -10 -14 -1 4 33 14 28 14 29
-8 24 -18 -5 -20 -3 -9 8 15 16 16 33 0 23 -7 -5 -9 -1 -6 12 10 33 10 39 9
58 -1 16 -3 17 -18 5 -14 -12 -15 -12 -9 0 5 8 4 16 -4 21 -10 6 -7 16 11 41
20 28 20 32 5 26 -15 -6 -17 -4 -11 10 4 10 8 23 9 29 1 7 8 19 15 28 16 20 5
42 -14 26 -26 -22 -30 16 -5 60 12 23 12 24 -3 11 -20 -16 -23 -1 -6 32 9 18
9 20 -2 10 -24 -23 -30 -14 -14 23 13 33 13 35 -1 30 -12 -4 -14 -1 -9 13 3
11 1 22 -5 26 -8 5 -6 14 4 31 21 30 20 40 -1 23 -15 -13 -15 -12 -5 7 8 15 8
24 1 31 -8 8 -5 20 7 39 l18 29 -24 -20 c-16 -14 -22 -15 -17 -5 3 8 17 43 30
77 28 69 18 89 -21 44 -21 -24 -21 -22 4 22 43 77 21 64 -30 -18 -62 -98 -129
-182 -134 -167 -5 17 -32 15 -32 -3 0 -21 -4 -19 -52 15 -23 17 -54 54 -70 82
-16 29 -32 55 -37 58 -5 3 -22 35 -37 72 -15 38 -29 67 -30 65 -2 -2 7 -36 20
-77 14 -41 27 -93 31 -115 l6 -40 -16 28 c-30 53 -25 21 10 -68 20 -48 34 -90
31 -92 -4 -5 -42 75 -71 150 -10 26 -20 45 -22 43 -3 -2 12 -50 32 -106 21
-55 35 -103 32 -106 -2 -3 -10 9 -16 27 -6 18 -13 30 -16 27 -3 -2 9 -36 25
-74 16 -38 30 -83 30 -100 0 -17 3 -33 6 -37 10 -10 54 -107 48 -107 -3 0 -16
24 -29 53 -27 57 -34 42 -9 -19 15 -35 15 -37 0 -25 -10 8 -16 9 -16 3 0 -6 5
-14 10 -17 6 -4 20 -25 32 -48 12 -25 15 -37 7 -30 -11 9 -14 6 -14 -17 0 -15
3 -26 6 -24 4 2 10 -3 13 -12 9 -22 8 -26 -5 -18 -7 4 -9 0 -6 -12 3 -11 9
-30 12 -43 5 -16 4 -21 -4 -17 -6 4 -2 -15 8 -42 11 -28 17 -52 14 -56 -3 -3
-1 -12 5 -19 7 -8 9 -17 5 -20 -5 -6 76 -109 104 -132 8 -6 21 -82 33 -190 52
-461 173 -1557 189 -1707 l17 -167 -45 -38 c-80 -68 -114 -78 -146 -44 -17 20
-18 84 -1 124 7 14 3 17 -17 17 -29 0 -96 -51 -182 -139 -33 -34 -66 -61 -75
-61 -9 0 -37 20 -62 45 -58 56 -80 57 -203 9 -319 -126 -648 -181 -1146 -191
l-265 -6 0 104 c1 87 -3 111 -22 151 -21 45 -21 48 -5 90 20 51 22 265 4 338
-6 25 -16 171 -21 325 -8 225 -13 288 -27 318 -14 33 -15 43 -4 70 38 95 38
195 0 281 -24 54 -22 112 6 166 21 40 18 106 -5 159 -23 50 -26 137 -9 224 10
48 9 67 -6 119 -10 35 -24 72 -31 83 -19 26 -18 73 3 126 14 37 18 97 23 364
l6 320 27 66 28 67 -30 57 c-30 56 -31 62 -31 191 0 87 4 135 11 140 6 3 76 6
156 5 117 -2 154 -6 194 -21 27 -11 56 -20 64 -20 13 0 49 -16 165 -75 19 -10
42 -24 50 -31 8 -7 27 -16 43 -19 37 -10 36 13 -2 69 -33 47 -179 188 -216
208 -13 7 -49 28 -81 46 -32 17 -65 32 -73 32 -9 0 -36 9 -60 20 -28 13 -65
20 -106 20 -82 0 -123 15 -131 47 -4 14 -7 332 -8 706 l-1 681 35 20 c31 19
55 21 221 24 171 4 189 2 225 -16 92 -47 154 -132 154 -209 0 -44 -5 -55 -40
-93 l-40 -43 -65 7 c-76 8 -84 -4 -25 -34 53 -27 94 -25 158 7 74 37 115 97
120 175 3 45 0 64 -14 85 -24 35 -44 81 -44 99 0 25 47 28 83 5 19 -12 43 -21
53 -21 11 0 35 -8 54 -19 19 -10 51 -21 71 -25 21 -4 42 -13 48 -20 7 -8 33
-17 59 -21 26 -3 57 -13 69 -21 13 -8 62 -18 109 -23 54 -5 90 -14 95 -22 17
-26 9 -53 -25 -89 -33 -33 -40 -49 -37 -77 2 -24 24 -13 58 27 29 34 41 40 72
40 89 0 257 -111 281 -186 7 -20 10 -51 7 -70 -4 -24 -2 -34 7 -34 18 0 50 48
56 85 4 26 10 30 42 33 33 3 40 -1 68 -39 16 -23 30 -52 30 -65 0 -12 7 -53
16 -91 15 -63 15 -74 -1 -153 -10 -47 -24 -96 -33 -109 -23 -38 -111 -121
-139 -132 -13 -5 -65 -9 -114 -9 -70 0 -98 4 -129 20 -52 27 -91 26 -118 -3
-34 -36 -28 -60 24 -98 25 -19 67 -51 94 -71 27 -21 52 -38 54 -38 3 0 26 -15
52 -32 52 -37 88 -59 176 -107 53 -28 69 -32 105 -27 66 9 126 51 172 121 36
56 80 156 81 183 0 13 7 37 16 55 24 46 26 358 3 402 -9 17 -19 47 -23 69 -7
37 -98 210 -117 222 -19 11 -9 54 16 70 33 21 27 37 -16 46 -19 4 -59 12 -89
18 -30 7 -62 18 -70 25 -8 7 -26 16 -40 20 -14 4 -32 13 -40 20 -8 6 -36 22
-63 34 -26 13 -87 62 -139 112 -51 49 -96 89 -100 89 -4 0 -7 -21 -5 -47 2
-42 -1 -48 -19 -51 -11 -2 -32 7 -47 18 -38 30 -133 80 -152 80 -9 0 -30 7
-48 17 -18 9 -68 20 -112 25 -44 5 -105 13 -135 19 -30 5 -140 14 -245 18
-118 6 -212 15 -248 25 -32 9 -75 16 -95 16 -21 0 -53 8 -72 18 -19 11 -55 22
-79 26 -24 4 -56 13 -72 21 -15 8 -50 15 -76 15 -28 0 -58 7 -71 16 -19 13
-22 24 -22 87 0 40 7 117 15 172 8 59 14 179 15 291 0 125 5 222 15 279 9 48
20 156 25 239 5 83 16 176 24 206 9 30 16 69 16 86 0 17 9 43 20 57 11 14 20
34 20 45 0 10 -25 56 -55 101 -56 84 -66 119 -40 141 8 7 15 20 15 29 0 10 12
41 27 70 l26 54 -23 71 c-17 53 -25 110 -31 221 -5 83 -13 170 -19 195 -5 25
-12 115 -16 200 -3 89 -13 178 -21 210 -12 42 -17 129 -20 362 -5 292 -4 311
16 375 12 36 21 84 21 105 0 21 9 55 19 76 11 22 22 71 26 125 9 103 8 103
-97 174 -68 46 -82 66 -92 136 -9 65 -38 83 -84 51z m-5225 -5441 c-3 -10 -5
-2 -5 17 0 19 2 27 5 18 2 -10 2 -26 0 -35z m208 -493 c-3 -5 -12 -10 -18 -10
-7 0 -6 4 3 10 19 12 23 12 15 0z m-1575 -33 c0 -7 11 -28 25 -47 14 -19 25
-39 25 -44 0 -6 -16 13 -35 41 -38 56 -40 63 -25 63 6 0 10 -6 10 -13z m8940
-637 c-6 -11 -13 -20 -16 -20 -2 0 0 9 6 20 6 11 13 20 16 20 2 0 0 -9 -6 -20z
m70 -794 c0 -2 -8 -10 -17 -17 -16 -13 -17 -12 -4 4 13 16 21 21 21 13z m8530
-271 c7 -8 8 -15 2 -15 -5 0 -15 7 -22 15 -7 8 -8 15 -2 15 5 0 15 -7 22 -15z
m-25588 -302 c13 -30 23 -76 26 -123 3 -66 1 -79 -20 -110 -58 -86 -174 -102
-303 -42 -71 34 -125 76 -125 98 0 28 57 77 148 128 153 85 175 95 215 96 36
0 39 -3 59 -47z m25208 -128 c640 -279 854 -392 905 -478 16 -26 16 -30 1 -46
-28 -31 -87 -43 -247 -48 -259 -9 -756 28 -837 63 -34 14 -35 17 -18 27 100
63 108 82 47 123 -41 27 -58 55 -45 75 12 19 87 47 144 54 81 9 97 13 114 31
12 11 13 20 6 33 -32 61 -208 54 -371 -13 -19 -8 -24 22 -35 213 -6 95 -4 113
7 109 8 -3 156 -68 329 -143z m5479 -142 c203 -128 341 -241 341 -279 0 -38
-210 -104 -474 -149 -192 -33 -187 -33 -180 8 8 40 45 225 84 416 17 79 30
146 30 148 0 3 21 -14 47 -36 25 -23 94 -71 152 -108z m-28350 52 c0 -5 -4 -3
-9 5 -5 8 -9 22 -9 30 0 16 17 -16 18 -35z m-2157 -20 c8 -30 2 -66 -14 -99
-8 -15 -12 -16 -19 -5 -10 17 -12 123 -2 133 12 12 27 0 35 -29z m-4269 -137
c27 -36 35 -129 14 -147 -24 -19 -49 -10 -73 27 -28 41 -39 103 -24 132 15 29
57 23 83 -12z m16590 -678 c58 -68 101 -158 101 -213 1 -43 -3 -52 -35 -82
-27 -24 -54 -37 -107 -49 -232 -53 -842 30 -842 114 0 36 80 66 450 170 135
38 263 75 285 84 22 8 57 15 77 15 31 1 42 -5 71 -39z m5358 -381 c67 -29 91
-60 77 -100 -22 -63 -115 -84 -164 -38 -27 25 -74 109 -74 132 0 43 68 46 161
6z m-3305 -464 c-4 -14 -11 -23 -16 -20 -14 9 -12 43 3 48 18 6 20 1 13 -28z
m-183 -61 c36 -19 57 -61 36 -75 -49 -31 -162 -36 -221 -8 -32 14 -35 28 -10
58 38 48 128 59 195 25z"/>
<path d="M9100 6612 c6 -13 14 -21 18 -18 3 4 -2 14 -12 24 -18 16 -18 16 -6
-6z"/>
<path d="M16907 6189 c-10 -35 -9 -39 7 -39 22 0 26 13 12 39 l-13 23 -6 -23z"/>
<path d="M41380 5373 c0 -6 9 -21 21 -34 l20 -24 -17 30 c-24 39 -24 40 -24
28z"/>
<path d="M31785 5185 c-27 -8 -75 -17 -105 -21 -30 -4 -73 -16 -95 -27 l-39
-20 48 -43 c63 -58 108 -60 163 -10 37 33 102 137 86 135 -4 0 -30 -7 -58 -14z"/>
<path d="M23257 3841 c-9 -16 -37 -51 -63 -80 -25 -28 -43 -51 -40 -51 15 0
90 78 107 113 24 46 21 59 -4 18z"/>
</g>
</svg>
