
<svg version="1.0" xmlns="http://www.w3.org/2000/svg"
 width="1060.500000pt" height="529.500000pt" viewBox="0 0 707.000000 353.000000"
 preserveAspectRatio="xMidYMid meet" >
  <defs>
    <radialGradient 
      id="exampleGradient"
      cx="0.6"
      cy="0.59"
      fx="0.61"
      fy="0.90"
      fr="10%"
    >
      <!-- <stop offset="50%" stop-color="#FF0000" /> -->
      <stop offset="20%" stop-color="#696969" />
      <stop offset="90%" stop-color="#000000"/>
    </radialGradient>
  </defs>
<g transform="translate(0.000000,353.000000) scale(0.100000,-0.100000)"
fill="#000000" stroke="none" style="fill: url(#exampleGradient);">
<path d="M3237 2211 c-4 -18 -7 -49 -7 -68 0 -18 -9 -52 -21 -75 -15 -29 -19
-50 -14 -75 5 -27 3 -33 -7 -27 -11 6 -11 5 0 -8 21 -26 -4 -32 -41 -10 -46
28 -81 34 -103 18 -18 -14 -18 -15 0 -35 19 -21 19 -21 -9 -21 -16 0 -39 -10
-51 -21 -27 -25 -55 -19 -47 10 7 27 -41 67 -89 75 -42 7 -108 -19 -108 -41 0
-26 30 -71 60 -93 36 -25 40 -68 10 -95 -22 -20 -19 -57 9 -90 30 -34 10 -125
-26 -125 -7 0 -13 -4 -13 -8 0 -5 -6 -16 -13 -26 -12 -16 -27 -9 -197 89 -199
115 -251 143 -235 127 6 -6 101 -65 212 -132 l202 -122 -15 -24 c-19 -28 -8
-33 13 -6 10 12 16 14 19 5 3 -7 22 -13 41 -13 30 0 34 2 23 15 -10 12 -6 22
23 54 28 31 37 51 42 95 4 31 10 58 14 60 11 7 84 -29 103 -50 9 -10 23 -38
31 -62 l15 -42 -34 -16 c-24 -12 -34 -23 -34 -40 0 -12 -5 -26 -10 -29 -6 -4
-22 -30 -37 -58 -14 -29 -36 -65 -48 -82 -12 -16 -28 -48 -35 -70 -9 -26 -39
-66 -89 -117 -42 -43 -73 -78 -68 -78 4 0 5 -4 2 -10 -4 -6 1 -7 11 -3 13 5
16 3 11 -10 -11 -28 1 -19 18 13 9 17 20 30 26 30 5 0 3 -13 -6 -30 -19 -37
-19 -62 0 -36 11 14 15 16 15 5 0 -12 2 -12 9 0 15 23 34 -55 28 -111 -7 -58
-18 -74 -54 -81 -40 -7 -53 2 -53 38 0 38 -28 77 -56 80 -10 1 -34 5 -52 9
-26 6 -36 4 -46 -10 -14 -18 -17 -16 -41 30 -5 11 -25 24 -42 28 -40 10 -41
15 -7 146 32 121 27 145 -30 156 -29 6 -36 11 -36 31 0 13 5 27 10 30 16 10
12 62 -6 79 -14 15 -13 17 9 25 40 15 68 60 65 100 -3 34 -6 36 -40 39 -41 4
-92 -19 -111 -48 -14 -24 -35 -25 -66 -4 -32 23 -94 23 -118 1 -11 -9 -43 -24
-71 -32 -37 -11 -59 -25 -78 -50 -14 -19 -30 -35 -35 -35 -4 0 -31 43 -60 96
-28 52 -53 93 -55 91 -2 -2 21 -49 51 -104 30 -55 55 -113 55 -128 0 -18 6
-28 20 -32 11 -3 31 -25 46 -50 14 -24 28 -42 31 -40 2 3 -7 23 -22 45 -22 33
-24 43 -15 64 13 27 40 46 82 59 33 9 34 5 8 -46 -11 -21 -23 -55 -26 -74 -4
-20 -15 -48 -25 -63 -11 -14 -19 -32 -19 -40 0 -15 -102 -168 -112 -168 -4 0
-23 31 -42 68 -21 42 -44 72 -59 79 -13 6 -38 36 -55 66 -17 31 -36 58 -42 62
-5 3 -10 23 -10 43 0 20 -11 61 -25 90 -14 29 -23 63 -21 75 3 12 5 33 6 47 1
14 4 19 7 12 13 -33 61 -74 84 -70 35 5 47 56 24 104 -11 24 -18 65 -20 110
-1 40 -7 79 -13 87 -16 19 -18 68 -3 95 7 13 10 31 6 40 -6 15 -8 15 -23 -3
-19 -23 -80 -27 -105 -7 -15 13 -37 -2 -37 -25 0 -8 -12 -11 -36 -9 -23 2 -38
-3 -44 -13 -7 -13 -11 -13 -24 -2 -14 12 -16 12 -10 -3 5 -12 2 -15 -11 -9
-15 5 -17 2 -12 -19 5 -19 1 -30 -19 -47 -17 -15 -23 -28 -19 -39 8 -20 8 -21
6 -44 -1 -25 -38 -23 -52 3 -6 13 -10 55 -7 104 3 79 5 86 45 144 48 69 47 89
-6 146 -35 37 -43 59 -28 75 9 9 4 11 -23 5 -19 -4 -41 -12 -47 -17 -9 -7 -19
-4 -33 13 -10 13 -19 19 -20 13 0 -6 7 -17 15 -24 22 -19 18 -34 -14 -53 -28
-16 -31 -16 -61 0 -31 18 -31 18 -51 -6 -10 -13 -19 -36 -19 -52 0 -25 -15
-38 -145 -123 -80 -52 -145 -98 -145 -101 0 -7 -7 -11 144 83 141 88 146 90
146 65 0 -10 7 -29 16 -41 13 -19 13 -22 0 -22 -27 0 -66 -23 -72 -43 -5 -17
-12 -19 -49 -14 -42 6 -43 6 -60 -33 -17 -37 -17 -42 -1 -82 9 -24 34 -67 56
-96 41 -54 48 -72 29 -72 -23 0 -70 -43 -105 -96 -21 -31 -44 -58 -51 -61 -9
-3 -13 -14 -10 -25 8 -30 -35 -53 -74 -39 -44 15 -43 15 -19 -24 12 -20 18
-35 14 -34 -25 4 -36 -2 -30 -17 5 -13 1 -15 -19 -12 -14 3 -25 4 -25 2 0 -11
92 -64 102 -58 7 4 8 3 4 -4 -11 -19 13 -14 45 9 17 12 37 18 46 15 10 -4 27
3 44 20 l28 27 33 -26 c18 -14 48 -38 67 -54 l34 -29 -22 -42 c-20 -40 -21
-44 -5 -75 9 -17 30 -51 46 -75 17 -24 27 -46 24 -49 -10 -10 -171 -75 -199
-80 -22 -4 -27 -2 -27 15 0 10 8 30 19 43 24 32 33 79 15 79 -8 0 -14 -7 -14
-15 0 -8 -6 -15 -14 -15 -9 0 -16 -12 -18 -31 -3 -31 -30 -60 -44 -47 -3 4 3
42 15 86 11 43 21 87 20 98 0 10 -12 -27 -27 -83 l-26 -103 -69 0 -69 0 3 58
c2 39 -2 67 -14 89 -9 18 -17 38 -17 46 0 8 -19 52 -42 98 -24 46 -48 100 -55
119 -20 55 -16 139 8 184 29 55 23 88 -21 102 -24 8 -39 9 -47 2 -10 -8 -13 0
-13 36 0 83 -44 144 -96 134 -34 -6 -56 -65 -48 -132 6 -58 6 -58 -17 -51 -36
11 -50 26 -44 46 4 11 2 19 -3 19 -6 0 -15 15 -21 32 -10 28 -9 35 6 45 9 7
12 13 6 13 -21 0 -35 -29 -28 -60 5 -24 -1 -42 -29 -89 -20 -32 -36 -70 -36
-85 0 -25 3 -26 53 -26 66 -1 93 -22 107 -85 15 -66 4 -153 -47 -370 -2 -12
-14 -25 -25 -30 -12 -6 -33 -32 -48 -60 -47 -90 -52 -95 -88 -95 -29 0 -32 3
-28 24 2 13 9 34 16 45 9 17 8 29 -5 54 -11 23 -13 33 -4 36 6 2 25 16 41 30
23 21 31 36 32 67 1 37 0 39 -33 42 -50 5 -81 -6 -112 -39 -23 -25 -31 -28
-53 -19 l-26 10 0 -520 0 -520 3535 0 3535 0 0 383 0 383 -27 -1 c-22 0 -31 9
-51 47 -20 39 -22 51 -12 63 10 13 9 15 -10 15 -18 0 -21 4 -17 21 4 17 3 18
-9 8 -12 -10 -13 -9 -8 5 3 9 1 16 -5 16 -20 0 -24 -30 -6 -50 12 -13 42 -123
45 -165 0 0 -19 -2 -42 -3 -142 -10 -154 -5 -137 52 6 17 14 76 19 131 6 55
15 125 21 155 11 55 12 73 8 230 -3 122 12 158 78 190 29 14 55 31 57 37 8 19
-31 136 -54 166 -11 14 -20 33 -20 44 -1 17 -1 17 -15 -1 -21 -28 -19 -53 5
-59 13 -3 20 -14 20 -30 0 -13 3 -39 6 -56 l7 -31 -54 4 c-30 2 -54 8 -53 13
0 4 4 25 8 45 10 45 3 77 -23 109 -18 22 -21 23 -46 9 -49 -26 -67 -114 -33
-157 11 -14 -32 -29 -57 -19 -16 6 -79 -46 -69 -57 3 -3 -1 -16 -10 -29 -23
-32 -21 -36 29 -60 43 -21 45 -24 46 -67 1 -26 0 -50 -1 -56 -2 -5 -12 -39
-22 -75 -11 -36 -20 -74 -20 -85 1 -33 1 -208 0 -238 -2 -62 30 -41 56 37 9
27 16 62 16 77 0 15 10 45 22 65 22 37 22 38 29 13 10 -33 -1 -339 -13 -361
-7 -14 -22 -18 -68 -18 -36 0 -60 4 -60 11 0 5 -4 8 -8 5 -5 -3 -14 10 -21 29
-24 68 -105 100 -163 65 -30 -18 -45 -19 -106 -14 -79 7 -76 5 -87 89 -4 28
-13 64 -20 80 -8 17 -19 50 -26 75 -6 25 -21 64 -32 88 -17 37 -19 59 -15 150
3 81 9 114 22 135 26 39 41 185 25 249 -15 65 -3 78 97 99 74 16 96 11 74 -16
-17 -20 23 -30 57 -13 29 14 46 42 19 32 -11 -4 -16 -1 -16 10 0 9 8 16 18 17
13 0 12 2 -5 9 -25 10 -30 26 -10 33 9 4 8 8 -3 16 -16 12 -57 6 -77 -11 -17
-13 -17 -29 0 -26 6 2 12 -4 12 -12 0 -20 -153 -54 -173 -38 -9 8 -20 6 -40
-9 -34 -24 -241 -68 -256 -53 -17 17 -44 11 -60 -12 -9 -12 -12 -24 -7 -28 5
-3 12 -34 16 -70 7 -68 26 -110 49 -110 8 0 26 -16 41 -36 26 -34 27 -40 22
-117 -7 -103 -10 -120 -30 -182 -8 -27 -19 -70 -23 -95 -3 -24 -10 -51 -14
-60 -5 -8 -13 -46 -20 -85 -19 -108 -21 -115 -39 -115 -28 0 -30 9 -14 50 23
58 10 99 -58 190 -65 86 -72 117 -22 100 44 -15 123 -28 127 -21 8 13 -65 101
-125 151 -89 74 -118 86 -168 71 -39 -11 -41 -13 -38 -51 3 -44 32 -81 78
-100 28 -12 28 -13 11 -36 -9 -13 -20 -24 -23 -24 -3 0 -13 18 -22 40 -11 28
-26 44 -52 57 -52 25 -70 10 -70 -55 1 -44 5 -55 38 -88 28 -29 35 -43 30 -59
-4 -11 -7 -35 -6 -54 1 -19 -5 -44 -13 -55 -8 -11 -14 -28 -14 -38 0 -9 -12
-30 -26 -45 -16 -18 -24 -22 -20 -10 3 9 1 17 -4 17 -5 0 -12 -9 -15 -20 -8
-26 -10 -26 -102 14 -186 81 -176 75 -163 91 10 13 10 23 -4 53 -9 20 -20 61
-25 90 -4 29 -11 55 -15 59 -3 3 -38 -1 -77 -11 -39 -9 -73 -16 -74 -14 -2 2
-5 45 -6 97 -2 93 -2 93 28 117 17 13 50 53 74 89 23 36 45 65 48 65 4 0 22
-5 41 -10 19 -6 74 -11 122 -12 95 -1 121 -9 100 -30 -23 -23 -12 -32 12 -9
16 15 26 19 31 11 5 -8 10 -8 20 0 9 8 15 8 20 0 3 -5 12 -10 18 -9 7 0 2 7
-10 16 -13 8 -23 21 -23 27 0 6 39 50 86 96 47 47 122 125 167 175 74 82 68
77 -70 -54 -84 -79 -163 -158 -177 -175 -23 -30 -24 -30 -43 -13 -23 20 -40
23 -24 3 9 -11 4 -12 -31 -5 -24 5 -65 13 -93 17 -58 9 -94 27 -114 55 -11 16
-21 18 -59 13 -43 -6 -44 -5 -37 17 15 46 16 112 2 131 -20 27 -62 14 -88 -27
-15 -24 -19 -42 -15 -74 5 -41 4 -43 -19 -43 -25 0 -37 20 -12 20 6 0 -3 8
-20 16 -32 16 -36 34 -7 34 8 0 12 5 9 10 -4 6 -15 8 -26 5 -15 -5 -19 -1 -19
17 0 15 -3 19 -8 11 -6 -9 -12 -7 -25 7 -9 11 -27 20 -40 20 -24 0 -58 37 -79
87 -11 25 -12 26 -15 7 -2 -11 3 -41 11 -65 14 -41 14 -45 -2 -57 -15 -11 -20
-9 -41 15 l-24 28 6 -32 c6 -29 1 -37 -58 -94 -68 -65 -80 -86 -70 -120 5 -15
14 -19 33 -17 17 2 26 -2 25 -10 -2 -6 2 -12 8 -12 6 0 8 -9 4 -20 -9 -27 19
-27 38 1 11 15 30 22 73 26 56 6 58 5 44 -12 -14 -17 -105 -62 -341 -171 -106
-49 -121 -52 -118 -26 3 35 -1 72 -9 72 -4 0 -16 -14 -26 -31 -14 -23 -21 -28
-27 -18 -9 15 -12 10 -26 -56 -7 -32 -14 -41 -33 -43 -14 -2 -32 -10 -40 -17
-19 -16 -116 -65 -130 -65 -6 0 -15 11 -20 25 -5 14 -14 25 -20 25 -5 0 -10 5
-10 10 0 6 7 10 15 10 8 0 15 8 15 18 0 10 4 22 9 27 24 26 -20 145 -54 145
-20 0 -54 -45 -61 -80 -12 -64 -29 -80 -83 -80 -50 0 -81 -20 -81 -52 0 -9 -7
-21 -15 -28 -9 -7 -29 -30 -46 -52 l-31 -38 17 -49 c9 -27 23 -55 31 -62 13
-11 19 -9 34 11 28 37 34 18 11 -29 -16 -30 -22 -62 -23 -126 l-2 -85 -28 0
c-16 0 -46 -9 -68 -20 -45 -23 -66 -25 -73 -7 -4 7 -6 6 -6 -4 -1 -19 -24 -31
-45 -23 -8 3 -21 -5 -29 -17 -12 -16 -22 -20 -41 -15 -23 6 -24 9 -15 34 6 15
22 37 37 49 16 14 20 20 10 17 -24 -8 -23 1 4 26 12 11 17 20 11 20 -17 0 -63
-40 -63 -55 0 -12 -50 -55 -63 -55 -3 0 -10 21 -16 48 -12 55 1 72 56 72 29 0
93 23 93 34 0 6 -85 -11 -113 -23 -46 -18 -55 -14 -91 42 -52 78 -53 93 -13
168 19 35 40 82 47 103 24 75 49 106 96 118 24 7 58 25 75 40 25 24 29 31 19
43 -10 13 -8 20 15 40 25 24 28 25 57 10 17 -8 37 -15 44 -15 20 0 104 84 104
104 0 15 -2 15 -31 1 -17 -9 -40 -15 -52 -13 -34 5 -26 31 10 39 18 3 40 12
48 19 11 10 18 9 30 -3 12 -12 14 -28 9 -70 -5 -42 -3 -57 11 -70 36 -36 82
-9 71 40 -6 27 -21 63 -52 126 -13 26 -12 32 5 56 39 54 43 54 111 8 35 -23
72 -46 82 -52 15 -8 18 -17 13 -42 -5 -29 -2 -35 27 -53 51 -31 61 -27 53 23
-8 48 -48 112 -85 135 -14 9 -50 38 -81 64 -31 26 -65 48 -76 48 -10 0 -47
-20 -81 -45 -37 -27 -64 -40 -68 -34 -3 6 -8 33 -9 60 -4 57 -23 86 -110 173
-86 87 -116 156 -66 156 10 0 24 7 31 15 7 9 18 14 24 12 23 -9 64 23 71 53
10 43 -15 77 -62 86 -75 14 -121 40 -128 73 -9 42 -22 47 -30 11 -11 -50 -34
-48 -52 5 l-10 30 -6 -34z m-1895 -128 c48 -56 44 -82 -20 -109 -46 -19 -45
-19 -65 26 -22 52 -22 55 9 75 26 17 27 17 50 -11 27 -33 32 -25 8 11 -19 29
-5 34 18 8z m1772 -158 c3 -8 1 -15 -3 -15 -5 0 -16 -3 -25 -6 -10 -4 -16 -1
-16 9 0 14 12 24 31 26 4 1 9 -6 13 -14z m75 -101 c-7 -8 -6 -13 2 -16 7 -2
12 -30 12 -71 1 -37 5 -67 9 -67 5 0 8 -7 8 -15 0 -25 -23 -6 -66 53 -61 85
-69 102 -52 118 7 7 27 20 43 28 27 15 31 14 42 -1 9 -11 10 -20 2 -29z
m-2043 -90 c29 -30 30 -44 5 -44 -12 0 -23 11 -30 31 -17 49 -11 53 25 13z
m4974 -47 c0 -18 4 -47 9 -65 8 -27 6 -39 -11 -67 -11 -19 -24 -35 -29 -35
-12 0 -11 7 2 29 17 26 2 89 -28 119 l-26 26 -30 -34 c-27 -30 -29 -37 -23
-83 6 -45 5 -49 -11 -42 -10 4 -36 8 -58 9 -39 1 -40 2 -52 50 -18 73 -11 80
114 105 59 12 113 24 118 25 18 6 25 -5 25 -37z m-4933 -13 c-3 -3 -12 -4 -19
-1 -8 3 -5 6 6 6 11 1 17 -2 13 -5z m-3 -24 c20 -7 26 -16 26 -41 0 -28 -3
-31 -22 -25 -13 3 -29 6 -35 6 -8 0 -13 14 -13 35 0 38 5 40 44 25z m241 -18
c-3 -3 -11 0 -18 7 -9 10 -8 11 6 5 10 -3 15 -9 12 -12z m1367 -144 c-7 -7
-12 -8 -12 -2 0 14 12 26 19 19 2 -3 -1 -11 -7 -17z m-2489 5 c-7 -2 -19 -2
-25 0 -7 3 -2 5 12 5 14 0 19 -2 13 -5z m4358 -131 c-15 -28 -31 -38 -91 -57
-30 -10 -82 -39 -115 -65 -65 -52 -115 -80 -140 -80 -20 0 -35 -38 -28 -73 5
-23 8 -25 26 -16 12 7 2 -10 -24 -40 -41 -48 -44 -49 -52 -29 -11 30 3 175 17
187 17 14 389 189 404 190 9 1 10 -4 3 -17z m-3811 -72 c0 -5 -2 -10 -4 -10
-3 0 -8 5 -11 10 -3 6 -1 10 4 10 6 0 11 -4 11 -10z m1460 -30 c0 -11 -4 -20
-10 -20 -5 0 -10 9 -10 20 0 11 5 20 10 20 6 0 10 -9 10 -20z m-608 -119 c35
-22 78 -52 97 -68 37 -30 91 -108 91 -131 0 -14 -95 -112 -109 -112 -4 0 -15
18 -24 40 -8 22 -22 40 -30 40 -7 0 -33 -20 -56 -45 -41 -44 -70 -57 -72 -32
0 10 -2 10 -6 0 -6 -15 -33 -17 -33 -3 0 5 -6 7 -13 4 -8 -3 -20 2 -27 11 -7
8 -17 15 -22 15 -26 0 -162 122 -178 159 -6 16 -22 34 -35 41 -35 19 -65 64
-58 89 5 19 10 21 37 15 44 -9 47 -13 35 -36 -17 -31 7 -65 60 -89 53 -23 71
-13 46 24 -10 16 -14 34 -10 47 4 11 2 20 -4 20 -6 0 -11 5 -11 11 0 5 4 8 9
4 5 -3 12 -1 16 5 11 18 53 11 70 -12 11 -17 31 -26 78 -33 54 -9 63 -13 71
-37 12 -34 -1 -77 -26 -89 -10 -5 -26 -13 -35 -18 -23 -11 -30 -69 -9 -77 30
-12 121 61 111 89 -4 9 -1 41 5 72 10 47 9 60 -4 80 -8 13 -25 26 -36 30 -19
6 -19 25 0 25 5 0 38 -18 72 -39z m1218 -39 c0 -39 -6 -58 -31 -91 -17 -24
-33 -41 -35 -38 -9 9 17 88 26 82 6 -3 7 1 4 9 -5 13 22 86 32 86 2 0 4 -22 4
-48z m1235 -22 c-8 -65 7 -104 50 -138 40 -32 32 -60 -41 -134 -49 -51 -69
-80 -80 -118 -15 -52 -22 -57 -55 -40 -16 9 -19 22 -19 85 0 77 -13 105 -48
105 -19 1 -119 34 -128 43 -8 8 15 87 26 87 5 0 12 9 15 21 6 18 13 20 59 17
l52 -3 79 72 c43 39 83 69 88 66 5 -3 6 -31 2 -63z m-1859 19 c-3 -17 -6 -40
-6 -50 0 -11 -15 -28 -32 -40 -31 -19 -31 -20 -8 -17 22 3 25 0 22 -22 -5 -29
-2 -26 -29 -34 -19 -6 -27 2 -62 62 -23 37 -41 73 -41 79 0 5 23 13 51 16 29
4 61 13 73 21 32 23 39 19 32 -15z m2104 22 c0 -13 -28 -22 -35 -11 -3 4 1 11
7 13 20 8 28 8 28 -2z m-3835 -51 c11 -14 35 -42 54 -63 24 -27 34 -48 35 -75
1 -20 6 -49 10 -64 13 -46 -15 -33 -54 23 -61 89 -81 109 -105 109 -29 0 -32
-4 -40 -60 -10 -67 -24 -130 -35 -150 -11 -20 -57 -32 -66 -18 -4 7 -9 7 -13
0 -3 -5 -22 -12 -41 -13 -56 -6 -52 27 10 85 27 26 50 49 50 52 0 3 11 20 24
37 14 18 38 62 55 99 22 50 35 67 53 70 29 5 38 0 63 -32z m656 -34 c11 -19
40 -46 64 -60 35 -21 165 -138 165 -149 0 -2 -33 -3 -73 -2 -67 0 -76 3 -113
32 -39 32 -39 32 -12 33 14 0 33 3 42 6 28 11 17 24 -19 24 -22 0 -38 6 -44
18 -6 9 -11 11 -11 5 0 -23 -19 -14 -35 17 -16 30 -19 67 -9 94 9 25 23 19 45
-18z m954 -49 c15 -26 25 -51 21 -54 -8 -9 -64 -7 -100 2 -21 6 -27 5 -22 -4
10 -15 -36 -15 -53 2 -11 10 -11 8 -2 -10 6 -12 16 -23 23 -26 7 -3 0 -10 -16
-16 -26 -10 -32 -9 -50 9 l-21 20 83 81 c93 92 81 92 137 -4z m929 19 c-3 -17
-13 -52 -22 -78 l-15 -46 56 -83 c32 -46 54 -86 50 -89 -13 -11 -118 -32 -139
-28 -10 2 -23 -2 -29 -9 -8 -10 -27 -10 -94 2 -47 8 -85 16 -86 18 -1 1 0 19
3 40 3 31 9 38 31 43 37 7 74 27 79 42 3 10 -2 10 -21 -3 -18 -11 -27 -13 -32
-5 -4 6 -13 9 -21 6 -23 -9 -16 33 10 59 15 15 20 26 13 28 -7 2 14 20 45 41
32 20 62 45 68 56 6 11 28 31 48 44 33 21 38 22 49 9 7 -9 10 -29 7 -47z
m-752 -18 c-7 -24 -11 -29 -16 -17 -4 8 -2 29 5 45 15 37 23 16 11 -28z m3729
14 c9 -19 24 -41 32 -50 18 -20 39 -112 25 -112 -5 0 -11 6 -14 14 -8 21 -34
28 -50 15 -22 -18 -17 -27 37 -60 28 -18 47 -35 42 -39 -15 -14 -102 -30 -161
-30 -48 0 -62 4 -80 23 -21 23 -22 25 -7 67 8 23 15 53 15 67 0 39 50 131 74
136 47 10 69 2 87 -31z m-3340 15 c-6 -8 -8 -17 -4 -21 4 -4 0 -4 -10 0 -14 5
-15 9 -6 20 6 8 16 14 21 14 7 0 6 -5 -1 -13z m2325 -22 c13 -32 19 -75 10
-75 -2 0 -20 7 -41 16 -20 8 -34 10 -30 5 3 -6 12 -11 18 -11 7 0 19 -5 27
-10 12 -7 11 -13 -10 -35 l-24 -25 20 -27 c30 -40 41 -39 64 7 16 31 26 40 38
35 9 -3 65 -27 124 -53 146 -64 143 -83 -12 -72 -53 4 -70 8 -57 14 14 7 16
11 6 17 -17 10 -8 20 19 22 11 0 18 5 16 9 -9 15 -51 8 -77 -12 -48 -38 -150
-56 -199 -35 -11 4 -18 3 -18 -3 0 -14 -61 -12 -79 2 -11 8 -13 8 -8 -1 4 -6
3 -14 -3 -18 -5 -3 -10 0 -10 7 0 9 -3 9 -10 -2 -10 -16 -11 -15 -15 28 -2 15
-8 63 -14 106 -6 43 -8 83 -5 87 10 17 23 8 29 -20 3 -16 13 -35 20 -41 21
-17 50 -8 48 15 -1 15 17 31 70 62 40 24 76 43 80 43 4 0 15 -16 23 -35z
m-1392 3 c10 -39 7 -66 -9 -72 -25 -9 -52 21 -47 54 4 25 13 33 43 39 4 0 9
-9 13 -21z m1067 -157 c-6 -22 -9 -52 -5 -66 5 -19 2 -25 -11 -25 -9 0 -13 5
-9 11 4 8 0 8 -15 0 -11 -7 -21 -8 -21 -4 0 16 -52 7 -62 -10 -5 -9 -20 -17
-33 -17 -23 0 -23 2 -13 33 15 45 23 53 97 97 75 44 90 40 72 -19z m-3548 7
c8 -30 -18 -48 -49 -34 -31 14 -30 22 4 40 36 20 39 20 45 -6z m24 -40 c-3 -8
-6 -5 -6 6 -1 11 2 17 5 13 3 -3 4 -12 1 -19z m4399 7 c4 -8 15 -15 25 -15 22
0 25 -19 6 -45 -16 -21 -24 -13 -43 43 -11 31 1 47 12 17z m-5566 -11 c0 -8
-5 -12 -10 -9 -6 4 -8 11 -5 16 9 14 15 11 15 -7z m490 -20 c0 -8 -4 -12 -10
-9 -5 3 -10 13 -10 21 0 8 5 12 10 9 6 -3 10 -13 10 -21z m3828 -16 c22 -37 4
-68 -61 -104 -40 -21 -65 -28 -113 -28 -34 -1 -65 2 -69 6 -9 9 18 58 47 85
24 22 143 72 166 69 7 0 21 -13 30 -28z m1142 11 c17 -30 6 -47 -24 -42 -28 6
-35 30 -14 51 17 17 26 15 38 -9z m-1575 -71 l-2 -51 -74 0 c-73 1 -66 -1 38
-13 52 -5 68 -19 56 -50 -4 -11 -8 -12 -13 -4 -5 8 -12 7 -23 -4 -17 -18 -33
-5 -21 17 9 13 -26 -11 -38 -28 -5 -6 -11 -5 -17 3 -7 11 -15 10 -47 -4 -42
-18 -154 -30 -226 -24 -7 1 -22 0 -32 -2 -10 -2 -21 2 -23 8 -4 11 61 23 148
28 50 2 66 18 72 73 7 65 40 91 122 96 33 2 65 4 71 5 7 1 10 -17 9 -50z
m-1155 7 c0 -8 -9 -15 -19 -15 -29 0 -35 18 -9 23 13 2 24 5 26 6 1 0 2 -6 2
-14z m418 -36 c22 -35 -1 -50 -69 -45 -32 2 -66 9 -76 14 -14 8 -7 13 42 27
33 9 65 18 70 20 18 6 20 5 33 -16z m862 -60 c0 -15 -22 -21 -31 -8 -14 22
-11 28 11 22 11 -3 20 -9 20 -14z m-565 -79 c4 -6 -5 -10 -20 -10 -15 0 -24 4
-20 10 3 6 12 10 20 10 8 0 17 -4 20 -10z"/>
</g>
</svg>
