<?xml version="1.0" standalone="no"?>
<svg version="1.0" xmlns="http://www.w3.org/2000/svg"
 width="800.500000pt" height="400.500000pt" viewBox="0 0 4419.000000 2206.000000"
 preserveAspectRatio="xMidYMid meet">
   <defs>
    <radialGradient 
      id="exampleGradient"
      cx="0.6"
      cy="0.5"
      fx="0.60"
      fy="0.8"
      fr="10%"
    >
      <stop offset="2%" stop-color="#A9A9A9" />
      <stop offset="100%" stop-color="#000000" />
    </radialGradient>
  </defs>

<g transform="translate(0.000000,2206.000000) scale(0.100000,-0.100000)"
fill="#000000" stroke="none" style="filter: blur(10px); fill: url(#exampleGradient);">
<path d="M29884 17765 c3 -16 56 -316 117 -665 61 -349 164 -921 230 -1270 66
-349 131 -696 145 -770 14 -74 43 -223 65 -330 22 -107 49 -240 59 -295 21
-114 73 -337 95 -409 8 -27 20 -79 26 -115 6 -36 17 -88 25 -115 13 -46 19
-106 10 -106 -11 0 -111 48 -177 86 -63 36 -91 45 -160 54 -81 10 -109 24
-109 54 -3 207 -6 230 -41 306 -19 42 -51 101 -71 132 -21 31 -38 59 -38 62 0
3 -16 31 -35 63 -19 32 -35 63 -35 69 0 30 -177 292 -218 324 -48 38 -96 69
-142 93 -25 13 -81 43 -125 67 -186 101 -229 121 -278 132 -112 24 -138 45
-468 372 l-135 135 7 68 c10 93 34 189 62 254 13 30 37 83 52 119 16 35 44 86
64 111 20 26 44 59 53 75 16 26 97 145 116 169 51 65 54 74 43 128 -5 28 -8
104 -7 168 2 64 0 143 -3 177 l-6 61 -48 -30 c-27 -16 -52 -41 -58 -57 -6 -15
-25 -43 -43 -62 -19 -19 -37 -42 -42 -51 -5 -9 -51 -55 -102 -102 -88 -81 -96
-86 -156 -96 -34 -6 -83 -11 -108 -11 -33 0 -66 -10 -119 -37 -68 -36 -169
-121 -169 -144 0 -6 -10 -25 -23 -42 -25 -35 -31 -51 -82 -202 -57 -171 -61
-176 -116 -142 -19 11 -59 33 -89 49 -30 16 -73 41 -95 57 -105 75 -244 86
-382 30 -82 -33 -133 -37 -156 -11 -8 9 -27 42 -41 74 -32 70 -96 168 -133
202 -100 94 -159 126 -229 126 -33 0 -123 42 -183 86 -48 34 -81 41 -96 20 -7
-9 -16 -49 -19 -89 -6 -56 -3 -81 9 -111 9 -21 14 -48 12 -58 -3 -11 1 -34 8
-52 11 -26 12 -65 4 -204 -8 -140 -7 -181 5 -224 42 -158 45 -246 13 -412 -14
-69 -21 -84 -56 -120 -23 -23 -41 -47 -41 -53 0 -6 -11 -25 -25 -42 -20 -23
-29 -52 -42 -128 -8 -54 -20 -107 -26 -118 -6 -11 -18 -58 -28 -105 -9 -47
-26 -105 -37 -130 -11 -25 -23 -62 -27 -84 -5 -32 -22 -54 -96 -126 -49 -48
-89 -92 -89 -96 0 -5 -15 -23 -33 -41 -18 -18 -39 -45 -47 -60 -8 -15 -30 -45
-48 -67 -19 -21 -43 -58 -54 -82 -10 -24 -23 -44 -29 -44 -11 0 -27 -36 -59
-135 -43 -133 -85 -194 -119 -176 -10 6 -22 18 -26 28 -16 40 -35 126 -35 156
0 18 -7 42 -15 55 -14 18 -14 30 -4 81 9 41 10 69 3 92 l-10 34 -22 -45 c-12
-25 -39 -76 -61 -115 -22 -38 -51 -92 -66 -120 -15 -27 -44 -70 -64 -95 -69
-85 -92 -120 -127 -193 -58 -124 -66 -240 -22 -351 10 -27 24 -72 29 -100 15
-72 49 -175 60 -182 5 -3 9 -13 9 -23 0 -9 22 -62 49 -116 28 -54 52 -117 56
-139 3 -23 11 -60 17 -84 8 -31 8 -70 -1 -145 -21 -194 -31 -313 -37 -472 -3
-98 -11 -173 -19 -192 -9 -21 -42 -53 -92 -90 -79 -58 -158 -139 -197 -202
-11 -19 -31 -51 -44 -70 -27 -44 -48 -89 -76 -162 -21 -56 -23 -58 -176 -161
-85 -58 -211 -136 -280 -175 -69 -39 -162 -93 -207 -120 -71 -44 -90 -51 -155
-57 -93 -8 -196 -57 -278 -132 -14 -12 -52 -37 -84 -55 -33 -17 -75 -43 -94
-56 -20 -13 -47 -26 -61 -30 -27 -6 -49 -16 -118 -51 -23 -12 -49 -22 -58 -22
-21 0 -146 -62 -203 -101 -24 -16 -47 -29 -51 -29 -15 0 -134 -83 -186 -128
-54 -48 -156 -115 -220 -146 -46 -21 -54 -26 -115 -66 -25 -16 -53 -30 -63
-30 -10 0 -28 -5 -40 -11 -31 -17 -195 -14 -342 6 l-130 18 -79 61 c-43 34
-88 68 -100 75 -11 8 -43 33 -71 56 -27 22 -58 46 -67 53 -19 15 -119 53 -216
82 -34 10 -76 26 -94 34 -37 19 -65 20 -139 2 -155 -37 -228 -145 -216 -323 4
-69 11 -94 41 -153 24 -48 34 -79 30 -95 -8 -32 -154 -162 -210 -187 -75 -33
-234 -89 -301 -106 -60 -15 -64 -15 -105 5 -92 45 -113 48 -171 30 -71 -22
-112 -21 -153 4 -26 16 -61 22 -161 30 -191 14 -226 20 -245 36 -53 47 -171
56 -239 18 -24 -13 -59 -32 -77 -41 -55 -28 -86 -85 -90 -165 -4 -65 -3 -70
32 -117 51 -71 123 -95 251 -86 79 6 152 -5 325 -50 30 -7 91 -21 135 -30 90
-19 151 -46 206 -92 20 -17 52 -36 70 -43 19 -7 45 -17 59 -23 l25 -10 -32
-26 c-78 -65 -241 -107 -405 -107 -106 1 -121 3 -145 23 -62 49 -78 53 -145
41 -35 -6 -76 -13 -93 -16 -16 -3 -42 -14 -57 -24 -14 -11 -30 -19 -35 -20 -4
0 -39 -21 -77 -47 -50 -34 -77 -59 -93 -91 -13 -25 -31 -53 -39 -62 -17 -19
-16 -42 5 -129 32 -128 110 -181 290 -200 57 -5 145 -7 195 -4 79 5 97 3 137
-15 26 -12 50 -28 53 -37 3 -9 6 -49 6 -89 0 -70 2 -76 43 -137 39 -59 49 -66
141 -111 l99 -49 71 10 c93 13 161 33 238 71 82 39 152 55 180 40 18 -10 19
-16 12 -52 -17 -87 3 -339 32 -387 24 -42 43 -52 154 -81 77 -20 91 -21 150
-9 104 20 160 50 227 121 34 35 103 108 154 162 128 134 338 342 369 364 28
20 156 84 270 133 100 44 186 84 360 168 174 83 251 115 368 147 48 14 101 29
117 34 17 5 48 13 70 17 22 4 48 11 58 16 10 5 39 13 65 18 26 4 79 18 117 30
39 12 88 25 110 30 75 16 170 39 205 50 19 5 48 10 65 10 16 0 57 9 90 19 51
16 97 19 280 21 358 4 396 3 484 -14 105 -20 247 -21 281 -1 14 8 33 14 43 15
10 0 37 8 60 18 23 10 62 27 87 36 57 23 170 81 205 105 13 9 108 45 157 61
43 13 181 32 252 34 45 1 50 -1 56 -25 16 -57 -28 -409 -59 -483 -25 -57 -150
-222 -238 -313 -47 -50 -99 -109 -108 -124 -5 -9 -29 -41 -52 -70 -24 -30 -62
-80 -85 -112 -38 -51 -97 -126 -227 -292 -21 -27 -46 -66 -55 -85 -8 -19 -34
-64 -56 -99 -22 -34 -40 -66 -40 -71 0 -4 -8 -18 -19 -31 -21 -28 -63 -133
-117 -299 -48 -149 -74 -200 -144 -285 -31 -38 -82 -117 -113 -175 -55 -105
-69 -151 -83 -284 -3 -32 -12 -76 -20 -98 -20 -56 -42 -237 -64 -517 -6 -74
-19 -168 -30 -209 -11 -42 -20 -87 -20 -101 0 -14 -12 -66 -25 -116 -16 -55
-30 -143 -37 -226 -10 -129 -10 -137 11 -183 26 -60 26 -73 1 -111 -15 -23
-20 -47 -20 -103 0 -62 5 -82 31 -133 l31 -59 -7 -118 -7 -117 31 -45 c17 -25
31 -58 31 -75 0 -17 11 -47 25 -67 13 -20 31 -56 39 -80 8 -23 23 -47 32 -53
64 -38 80 -54 91 -88 7 -20 33 -62 58 -94 81 -104 87 -114 81 -120 -3 -4 -21
8 -39 25 -42 40 -63 40 -116 -1 -88 -67 -105 -77 -126 -77 -51 0 -72 78 -39
141 8 17 13 33 10 37 -13 13 -86 -39 -176 -125 -54 -51 -104 -93 -112 -93 -8
0 -35 20 -60 45 -58 56 -80 57 -203 9 -225 -89 -384 -126 -700 -165 -151 -19
-245 -23 -590 -27 -225 -2 -431 -4 -457 -4 -52 -1 -98 22 -98 50 0 37 83 66
297 105 114 21 138 29 173 57 22 17 40 35 40 39 0 3 -35 41 -78 84 l-77 77
-357 0 -357 0 -37 -25 c-59 -40 -108 -49 -188 -34 -65 12 -70 12 -112 -10 -25
-14 -66 -51 -96 -89 -87 -107 -151 -125 -290 -82 -76 23 -93 43 -85 99 14 105
93 237 214 360 66 67 83 90 83 113 0 26 -3 29 -27 28 -65 -5 -69 11 -21 72 30
38 24 36 -91 -43 -68 -46 -135 -97 -150 -114 -112 -128 -265 -257 -344 -290
-34 -14 -37 -14 -50 6 -8 11 -23 49 -33 84 -21 73 1 65 -222 91 -134 16 -145
16 -171 1 -109 -64 -480 -62 -766 5 -110 25 -165 51 -165 78 0 36 80 66 455
171 137 38 262 76 278 84 16 8 147 40 291 70 195 42 270 63 296 80 61 42 119
56 265 65 133 8 261 34 370 73 40 14 40 15 40 65 -1 28 -3 54 -7 57 -12 12
-300 -59 -470 -116 -230 -78 -259 -81 -341 -40 l-63 32 -169 -60 -170 -59 3
-40 3 -40 -58 -22 c-115 -43 -374 -103 -558 -130 -44 -6 -129 -27 -189 -47
-95 -31 -117 -35 -173 -30 -56 6 -69 3 -93 -14 -59 -44 -198 -35 -630 42 -124
22 -283 53 -355 68 -71 16 -194 35 -272 42 l-143 12 0 29 c0 33 -2 33 -35 12
-47 -31 -172 -16 -210 26 -39 44 5 80 130 105 44 9 88 18 98 21 15 5 17 20 17
135 0 71 -3 129 -7 129 -5 0 -43 -7 -86 -15 -91 -17 -158 -19 -206 -5 -77 22
-121 103 -121 224 0 75 -22 180 -50 243 -21 48 -110 146 -202 225 -43 36 -56
41 -140 54 -51 8 -164 28 -251 45 -216 42 -231 39 -317 -52 -36 -38 -73 -69
-82 -69 -25 0 -80 71 -134 173 -27 50 -61 106 -77 123 -28 33 -116 94 -134 94
-6 0 -16 -20 -22 -45 -6 -25 -14 -45 -17 -45 -3 0 -120 79 -260 176 -140 97
-261 173 -268 171 -8 -3 -177 -91 -376 -196 -199 -105 -366 -191 -372 -191 -6
0 -57 29 -114 65 -86 54 -108 64 -133 59 -17 -4 -42 -4 -55 0 -33 8 -90 58
-127 113 -26 37 -111 103 -157 120 -9 4 -3 -15 16 -53 38 -75 67 -167 59 -187
-10 -27 -86 -40 -222 -40 -149 1 -239 12 -413 50 -138 30 -154 27 -132 -27 21
-50 -2 -65 -98 -65 -97 1 -162 23 -227 76 -27 22 -51 36 -53 30 -13 -38 128
-240 179 -256 51 -17 0 -61 -121 -106 -144 -52 -177 -42 -328 102 l-90 86 96
98 c64 63 87 92 67 82 -16 -8 -234 -126 -484 -261 -250 -135 -457 -246 -461
-246 -4 0 -13 11 -20 25 l-13 24 -85 -80 c-88 -82 -165 -139 -189 -139 -7 0
-27 19 -43 42 -30 42 -47 74 -133 260 -44 95 -110 181 -147 193 -47 15 -146
-61 -385 -295 -191 -187 -276 -249 -349 -257 -50 -6 -67 10 -75 70 -8 53 -24
57 -45 9 -31 -68 -130 -104 -183 -67 -18 13 -22 12 -37 -4 -10 -11 -40 -29
-68 -41 -46 -20 -65 -21 -187 -18 -153 4 -179 13 -267 89 -26 23 -80 56 -120
74 -59 27 -88 50 -168 131 -77 80 -98 96 -106 84 -7 -12 12 -37 89 -115 116
-119 153 -163 145 -176 -8 -13 -675 -11 -770 2 -149 20 -257 79 -453 246 -107
90 -131 117 -118 129 4 5 63 11 130 15 188 11 299 42 332 93 37 56 -23 86
-184 95 -111 6 -116 5 -155 -20 -23 -14 -56 -31 -75 -37 -42 -15 -418 -16
-455 -2 -24 9 -25 8 -20 -20 6 -28 4 -30 -107 -84 -217 -104 -788 -333 -1024
-409 -164 -53 -258 -53 -271 -1 -21 82 17 190 121 344 151 225 193 480 79 480
-34 0 -84 -51 -84 -85 0 -56 -47 -105 -100 -105 -44 0 -80 -75 -108 -223 -28
-149 -130 -277 -220 -277 -53 0 -57 17 -37 153 9 67 48 246 85 397 103 414
143 620 122 620 -22 0 -91 -229 -218 -725 -53 -203 -100 -387 -105 -407 l-10
-38 -394 0 -394 0 -49 -49 c-62 -61 -127 -85 -237 -84 -92 0 -125 11 -229 80
-115 76 -168 137 -376 433 -225 322 -370 489 -465 535 -49 23 -169 32 -219 15
-78 -25 -97 -76 -147 -397 -62 -406 -146 -769 -203 -881 -51 -101 -185 -172
-323 -172 -46 0 -58 4 -92 35 -21 19 -42 35 -46 35 -4 0 -25 -15 -46 -34 -42
-39 -108 -62 -214 -76 -179 -24 -266 1 -282 81 -4 23 -10 28 -22 23 -36 -16
-150 -16 -197 0 -26 9 -60 16 -75 16 -15 0 -58 16 -96 36 l-68 37 -128 -2
c-172 -3 -217 14 -217 79 0 14 -8 24 -20 27 -12 3 -53 21 -91 39 l-71 34 -209
0 c-204 0 -209 -1 -199 -19 5 -11 10 -40 10 -64 0 -76 -53 -99 -85 -36 -20 38
-19 47 11 86 l25 33 -130 0 -131 0 0 -2560 0 -2560 22095 0 22095 0 0 2395 0
2395 -123 -3 c-121 -2 -124 -2 -172 28 -61 38 -122 125 -209 300 -69 138 -101
238 -91 284 3 15 21 49 40 76 55 76 52 80 -79 88 -52 4 -73 10 -89 26 -20 20
-20 24 -9 91 20 118 16 123 -63 60 -27 -21 -51 -37 -54 -35 -2 3 1 29 8 58 7
28 11 63 10 77 -3 21 -10 25 -45 28 -36 3 -45 -1 -67 -28 -55 -65 -45 -164 28
-270 52 -76 120 -269 184 -517 70 -275 115 -523 95 -523 -5 0 -148 -9 -319
-20 -495 -32 -674 -26 -762 26 -40 23 -49 24 -222 24 l-180 0 -10 -37 c-31
-115 -114 -143 -426 -143 -268 0 -356 17 -383 73 -7 15 -20 27 -28 27 -12 0
-14 36 -14 233 0 127 -5 282 -11 342 -24 260 -29 304 -39 375 -6 41 -15 122
-20 180 -27 300 -50 379 -146 525 l-34 51 5 219 c4 196 7 221 22 233 10 7 39
29 66 48 26 19 52 32 57 29 6 -4 22 -29 36 -57 23 -45 25 -56 15 -88 -6 -20
-24 -46 -41 -58 -27 -20 -30 -28 -30 -77 0 -50 -21 -108 -51 -140 -5 -5 -9
-19 -9 -32 0 -17 6 -23 23 -23 30 0 67 59 67 106 0 21 8 47 20 61 11 14 20 34
20 43 0 10 6 23 14 29 10 9 20 0 44 -39 35 -56 72 -77 112 -63 19 7 32 5 52
-9 16 -11 32 -16 38 -13 15 9 12 51 -5 65 -18 15 -20 40 -2 40 6 -1 23 -7 37
-15 39 -23 60 -19 60 10 0 33 25 81 45 89 9 3 32 6 51 6 45 0 44 -19 -2 -70
-36 -39 -36 -41 -19 -60 21 -23 40 -25 96 -7 64 19 120 116 100 171 -5 11 -10
62 -12 111 -4 83 -3 90 15 90 13 0 27 -15 43 -45 46 -89 101 -113 150 -64 23
23 25 31 20 83 -8 89 -81 259 -162 379 -43 63 -39 66 88 59 61 -4 155 -14 207
-22 78 -13 108 -14 165 -4 105 17 201 55 271 104 58 42 65 51 96 126 27 67 40
86 70 105 21 13 42 24 46 24 5 0 30 19 56 41 57 51 96 124 103 195 3 30 10 54
14 54 5 0 9 23 9 50 0 28 -4 50 -10 50 -5 0 -10 11 -10 25 0 34 -43 128 -81
178 -18 23 -60 71 -94 107 -34 36 -78 85 -98 109 -41 49 -122 111 -146 111 -8
0 -34 10 -59 21 -36 18 -48 31 -68 77 -14 31 -37 72 -52 91 -29 38 -72 125
-72 145 0 7 19 22 43 34 23 13 71 43 107 67 36 24 107 72 159 107 166 112 189
138 211 238 13 60 2 99 -39 147 -19 23 -100 63 -127 63 -8 0 -33 10 -56 23
-42 22 -47 26 -108 64 -19 12 -64 31 -100 43 -35 12 -76 28 -92 36 -26 14 -76
78 -93 119 -9 23 -30 196 -45 378 -12 141 -24 175 -86 243 -50 53 -61 72 -69
119 -3 22 -12 49 -19 60 -7 11 -27 58 -46 105 -40 101 -76 153 -167 240 -112
107 -239 197 -308 220 -22 7 -61 27 -86 45 -26 18 -62 41 -80 51 -19 9 -89 69
-155 133 -127 121 -203 185 -316 265 -71 50 -108 92 -108 122 0 17 -9 50 -37
131 -8 24 -31 57 -54 77 -34 31 -46 36 -90 36 -55 0 -99 -18 -144 -60 -63 -58
-148 -110 -181 -110 -41 0 -88 38 -116 94 -27 54 -46 74 -90 97 -59 30 -86 25
-135 -27 -49 -51 -106 -135 -118 -174 -4 -14 -21 -46 -39 -72 -26 -39 -42 -51
-96 -71 -36 -14 -83 -28 -105 -32 -22 -4 -53 -13 -70 -20 -16 -7 -68 -27 -115
-45 -47 -17 -121 -47 -165 -67 -132 -58 -139 -61 -162 -67 -34 -11 -220 -114
-293 -162 -53 -36 -73 -44 -111 -44 -38 0 -57 -8 -105 -40 -56 -38 -63 -40
-134 -40 -110 -1 -189 -45 -236 -132 -10 -20 -41 -40 -107 -71 -99 -47 -111
-57 -121 -100 -10 -41 -83 -117 -112 -117 -13 0 -43 -13 -66 -30 l-41 -30 -43
40 c-24 22 -48 40 -54 40 -5 0 -19 20 -31 44 -11 25 -31 52 -45 60 -13 9 -39
40 -57 69 -19 28 -44 61 -56 71 -15 14 -18 22 -10 32 25 31 6 58 -68 94 -54
26 -72 40 -73 55 0 11 -6 29 -13 40 -7 11 -21 47 -30 80 -9 33 -38 130 -63
215 -26 85 -50 187 -54 225 -5 39 -13 86 -19 105 -18 56 -1 58 94 12 47 -23
92 -42 100 -42 34 0 27 31 -19 80 -25 27 -46 54 -46 59 0 6 -24 26 -54 45 -30
19 -59 44 -65 54 -6 11 -33 34 -60 51 -27 18 -51 40 -53 49 -3 9 1 40 8 67 37
152 46 363 18 403 -20 29 -12 52 19 52 50 0 62 49 25 108 -22 35 -72 232 -62
242 3 3 46 5 95 5 l90 0 69 71 c68 70 70 72 59 103 -7 20 -32 47 -64 71 -30
22 -56 44 -60 50 -3 6 -24 19 -46 30 -22 12 -51 39 -66 63 -15 23 -38 54 -52
70 -23 25 -23 27 -5 27 11 0 25 -5 32 -12 9 -9 16 -7 32 7 47 42 12 68 -141
105 -122 30 -156 78 -110 154 10 17 24 49 31 71 7 22 17 45 21 51 5 6 53 14
107 17 174 10 197 40 52 71 -44 10 -101 29 -126 42 -28 15 -54 22 -66 18 -34
-10 -64 20 -82 84 -18 64 -33 80 -99 101 -30 10 -37 17 -32 31 5 14 -2 21 -32
30 -50 16 -63 28 -63 55 0 31 118 128 223 183 45 24 92 54 104 67 12 14 40 34
62 46 37 19 59 48 29 37 -7 -3 -51 -17 -96 -33 -46 -15 -98 -39 -115 -54 -18
-15 -50 -38 -72 -51 -22 -14 -73 -53 -114 -89 -73 -63 -74 -64 -105 -51 -28
12 -44 14 -116 11 -14 0 -60 0 -104 2 l-78 2 -16 39 c-15 38 -15 40 10 60 14
12 33 35 42 52 8 18 28 41 43 53 23 17 25 22 14 30 -15 9 -85 -23 -122 -55
-25 -22 -46 -7 -53 39 -10 63 -85 207 -107 207 -28 0 -42 -36 -35 -89 4 -31 1
-54 -9 -71 -35 -62 -47 -100 -52 -167 -4 -48 -11 -77 -22 -87 -19 -17 -164
-66 -197 -66 -13 0 -25 8 -29 18 -3 11 -17 24 -31 30 -13 7 -48 30 -77 52 -29
21 -74 49 -100 60 -25 11 -49 25 -52 30 -3 6 -17 10 -31 10 -57 0 -13 -61 96
-133 30 -19 68 -48 83 -62 l28 -27 -21 -24 c-28 -29 -80 -54 -115 -54 -36 0
-85 -27 -85 -47 0 -21 -67 -83 -90 -83 -23 0 -76 -82 -85 -133 -4 -20 -20 -53
-36 -73 -16 -20 -29 -40 -29 -44 0 -10 -97 -38 -157 -46 -50 -6 -54 -5 -83 26
-16 18 -30 41 -30 52 0 10 -5 28 -10 39 -9 15 -15 17 -30 9 -26 -14 -28 -94
-4 -129 16 -22 15 -24 -10 -48 -34 -31 -29 -47 17 -51 27 -2 43 -12 67 -40 59
-71 100 -132 100 -152 0 -35 -36 -93 -83 -136 -25 -23 -54 -59 -65 -80 -11
-21 -29 -48 -41 -58 -13 -12 -21 -31 -21 -50 0 -40 -121 -287 -148 -303 -11
-7 -23 -26 -27 -43 -4 -17 -27 -54 -51 -82 -41 -48 -54 -81 -36 -91 14 -9 50
12 57 32 5 17 15 21 46 21 43 0 60 -20 39 -45 -7 -8 -25 -41 -40 -72 -29 -61
-164 -203 -193 -203 -8 0 -39 -24 -70 -53 -60 -57 -88 -115 -93 -198 -2 -26
-12 -71 -23 -100 -10 -30 -27 -81 -36 -114 -10 -33 -23 -78 -30 -100 -7 -22
-16 -103 -20 -180 -7 -143 -28 -228 -61 -256 -24 -20 -64 -105 -64 -137 0 -26
-6 -31 -56 -51 -83 -32 -118 -28 -159 15 l-34 36 -83 -7 c-46 -4 -89 -12 -95
-17 -7 -6 -56 -10 -108 -9 -83 2 -99 -1 -132 -22 -21 -13 -52 -29 -70 -36 -18
-7 -38 -20 -44 -28 -7 -8 -62 -48 -123 -89 -155 -105 -208 -144 -229 -171 -11
-13 -36 -32 -56 -43 -21 -10 -50 -35 -65 -54 -32 -42 -42 -43 -151 -15 -44 11
-116 24 -160 28 -84 8 -116 20 -245 95 -88 50 -105 82 -97 176 9 93 25 123
102 184 67 54 231 136 271 136 33 1 151 35 168 49 20 17 21 51 1 77 -8 10 -20
37 -26 59 -16 59 -50 105 -77 105 -14 0 -34 -13 -49 -30 -13 -16 -28 -30 -31
-30 -4 0 -8 94 -10 210 -3 280 -12 325 -94 461 -78 128 -105 230 -93 347 6 60
4 75 -15 111 -21 42 -21 44 -4 119 9 42 23 92 30 110 7 18 20 68 29 110 9 42
24 100 34 127 31 84 60 224 72 345 13 136 13 143 0 285 -5 61 -7 170 -4 243 8
178 -12 272 -58 272 -16 0 -19 -8 -19 -50 0 -67 -24 -135 -71 -197 -21 -29
-39 -58 -39 -65 -1 -27 -29 -62 -66 -83 -32 -17 -41 -29 -49 -64 -10 -48 -38
-72 -185 -166 -124 -78 -153 -102 -205 -161 -25 -30 -82 -86 -127 -125 l-81
-72 -60 6 c-44 4 -66 12 -86 30 -14 13 -33 27 -41 30 -8 3 -50 35 -92 72 -80
70 -79 68 -108 185 -6 25 -16 61 -21 80 -5 19 -16 67 -23 105 -33 176 -58 294
-72 341 -8 28 -14 60 -14 72 0 19 -70 313 -240 1012 -38 157 -110 454 -160
660 -50 206 -122 501 -160 655 l-69 280 -191 449 c-105 248 -193 452 -196 455
-4 3 -4 -7 0 -24z m6061 -3166 c4 -17 13 -42 21 -57 22 -42 17 -69 -19 -109
-24 -26 -39 -34 -51 -30 -12 5 -16 13 -11 25 3 9 11 53 17 97 6 44 12 86 14
93 6 22 22 12 29 -19z m580 -409 c3 -5 -3 -10 -15 -10 -12 0 -18 5 -15 10 3 6
10 10 15 10 5 0 12 -4 15 -10z m-10412 -145 c-2 -21 -16 -67 -33 -101 -16 -35
-30 -66 -30 -71 0 -15 -52 -178 -68 -212 -17 -35 -152 -161 -172 -161 -6 0
-20 21 -31 48 -36 82 -10 233 46 262 33 17 59 43 80 81 8 15 30 36 49 47 27
16 36 29 43 63 7 35 15 46 48 65 55 32 71 28 68 -21z m10657 -110 c16 -19 4
-35 -25 -35 -32 0 -42 20 -20 37 24 17 30 16 45 -2z m-30 -118 c0 -7 -7 -23
-16 -35 -13 -18 -19 -21 -30 -11 -17 14 -18 46 -1 52 23 10 47 7 47 -6z
m-1805 -111 c0 -25 -16 -30 -39 -13 -24 17 -12 39 17 35 14 -2 22 -10 22 -22z
m2049 -486 c-1 -35 -7 -48 -30 -67 -52 -43 -86 -49 -99 -15 -6 17 102 133 120
128 6 -2 10 -22 9 -46z m-128 -3030 c15 -6 33 -19 40 -28 6 -9 51 -64 99 -121
l87 -104 -5 -56 c-5 -60 6 -205 18 -233 6 -14 2 -18 -15 -18 -13 0 -39 -4 -59
-10 -20 -5 -66 -12 -103 -15 -81 -8 -114 -29 -105 -67 5 -19 21 -30 74 -51 38
-14 82 -29 98 -33 17 -4 35 -10 40 -15 6 -4 36 -12 67 -17 31 -5 69 -17 84
-28 54 -38 69 -43 107 -37 28 4 42 1 58 -13 18 -16 19 -26 13 -80 -6 -62 -7
-64 -88 -147 -44 -46 -114 -110 -154 -142 -51 -40 -80 -72 -94 -103 -12 -24
-36 -53 -54 -65 -54 -35 -57 -83 -8 -105 30 -14 156 -16 170 -3 5 5 38 11 74
12 59 3 65 1 68 -18 2 -13 -12 -35 -41 -64 -50 -49 -97 -127 -97 -159 0 -32
46 -45 89 -25 39 18 55 12 24 -10 -26 -18 -43 -67 -41 -119 1 -26 -4 -41 -14
-47 -9 -5 -39 -27 -67 -49 -28 -22 -76 -54 -108 -70 -32 -17 -65 -35 -73 -40
-24 -16 -155 -76 -190 -88 -41 -15 -69 -2 -63 30 5 26 -52 205 -73 229 -8 8
-14 21 -14 28 0 19 -47 139 -75 192 -29 54 -31 93 -11 179 37 156 7 249 -121
378 l-73 72 74 73 c63 62 77 72 97 65 12 -5 30 -6 39 -3 24 8 44 59 35 92 -3
16 -10 64 -15 108 -5 44 -16 96 -24 116 -8 20 -27 67 -40 103 -27 71 -28 69
27 80 33 8 37 45 8 82 -15 19 -17 32 -11 53 4 15 11 69 15 119 12 149 23 143
153 -78 19 -32 29 -40 53 -40 33 0 79 38 79 65 0 9 -11 38 -25 65 -14 27 -25
54 -25 60 0 6 11 15 25 20 21 8 25 16 25 50 0 43 4 46 46 30z m-6804 -579 c4
-25 10 -73 14 -106 6 -60 24 -131 50 -193 8 -18 14 -37 14 -43 0 -21 80 -127
147 -194 99 -100 226 -181 424 -269 42 -19 98 -50 125 -69 27 -19 66 -40 86
-46 20 -7 42 -18 48 -26 29 -35 284 -92 491 -110 104 -9 106 -12 90 -75 -12
-48 -9 -146 6 -186 7 -19 43 -18 43 2 0 8 14 20 31 26 17 6 34 21 39 34 16 42
94 154 111 159 10 3 79 -4 156 -15 76 -12 174 -26 218 -31 137 -16 277 -41
319 -56 23 -7 81 -23 131 -34 166 -38 210 -50 218 -58 4 -4 12 -35 17 -67 5
-32 23 -97 40 -144 18 -47 36 -107 41 -135 10 -60 25 -115 49 -175 10 -25 23
-80 29 -123 6 -43 15 -87 21 -97 5 -10 10 -27 10 -37 0 -10 10 -34 23 -53 47
-70 107 -244 107 -308 0 -34 7 -47 48 -90 63 -67 101 -74 208 -38 42 14 82 26
90 26 24 0 37 38 25 72 -6 17 -11 44 -11 59 0 19 -7 32 -22 40 -28 15 -38 28
-38 54 0 11 -9 26 -20 33 -13 8 -20 23 -20 43 0 22 -14 48 -47 89 -59 72 -103
142 -103 163 0 9 -13 36 -29 60 -40 59 -61 116 -77 217 -7 47 -27 130 -44 185
-18 55 -34 108 -37 118 -3 9 0 17 6 17 13 0 81 -99 81 -120 0 -8 9 -26 21 -40
11 -14 46 -63 79 -110 93 -134 247 -252 427 -326 28 -12 82 -43 118 -70 37
-27 82 -59 100 -71 56 -37 103 -92 108 -126 3 -18 -2 -63 -11 -102 -15 -67
-20 -74 -94 -147 -45 -43 -92 -81 -111 -86 -17 -6 -70 -22 -117 -36 -254 -76
-244 -72 -265 -107 -14 -24 -19 -49 -18 -93 l2 -59 63 -58 63 -58 -25 -20
c-14 -12 -29 -21 -34 -21 -10 0 -143 -61 -186 -85 -77 -43 -133 -65 -167 -65
-21 0 -58 -7 -82 -16 -27 -9 -94 -17 -170 -19 -106 -4 -128 -8 -144 -24 -19
-19 -19 -20 14 -56 19 -20 63 -56 99 -80 36 -24 90 -68 120 -98 46 -45 70 -60
145 -87 154 -55 322 -81 526 -80 197 0 372 13 497 36 46 9 87 13 90 9 8 -8 8
-67 -3 -376 -7 -211 -6 -239 9 -260 23 -33 20 -75 -15 -234 -16 -77 -34 -162
-39 -190 -5 -27 -16 -78 -25 -111 -8 -34 -13 -69 -9 -78 4 -11 1 -16 -12 -16
-68 0 -483 53 -544 70 -95 25 -101 25 -69 -4 15 -12 34 -35 44 -50 16 -25 16
-28 1 -45 -28 -31 -87 -43 -247 -48 -259 -9 -756 28 -837 63 -34 14 -35 17
-18 27 100 63 108 82 47 123 -41 27 -58 55 -45 75 12 20 89 48 150 55 123 12
150 41 74 79 -112 57 -276 18 -456 -108 -97 -67 -190 -115 -309 -157 -107 -37
-277 -80 -322 -80 -31 0 -32 1 -26 38 3 20 12 55 20 77 109 306 118 862 17
1092 -8 17 -14 34 -14 38 0 4 -14 37 -31 74 -33 68 -62 110 -121 173 -21 22
-37 51 -41 72 -12 72 -118 316 -219 501 -29 53 -119 203 -313 524 -33 55 -67
108 -76 118 -8 10 -34 50 -56 88 -50 85 -87 141 -195 291 -92 128 -210 295
-236 334 -9 14 -46 66 -83 115 -70 94 -96 149 -156 325 -19 58 -42 119 -51
135 -9 17 -19 50 -23 75 -4 25 -15 81 -24 125 -9 44 -20 157 -25 250 -7 135
-13 180 -29 215 -17 39 -19 55 -11 105 12 86 41 239 47 248 3 5 28 -17 57 -49
40 -45 53 -68 58 -103z m6458 -1651 c0 -5 -5 -10 -11 -10 -5 0 -7 5 -4 10 3 6
8 10 11 10 2 0 4 -4 4 -10z m514 -398 c3 -5 1 -38 -4 -73 -5 -35 -16 -143 -25
-239 -9 -96 -20 -195 -25 -220 -13 -64 -44 -278 -61 -420 -6 -52 -19 -156 -30
-230 -19 -134 -44 -513 -36 -527 3 -5 1 -60 -4 -123 -11 -138 3 -245 34 -261
10 -6 94 -12 185 -15 172 -4 338 -19 379 -35 28 -10 28 -19 4 -67 -25 -49 -74
-189 -116 -331 -31 -101 -74 -192 -135 -281 -9 -14 -24 -39 -33 -57 -16 -30
-19 -31 -49 -21 -50 17 -78 36 -143 100 l-61 58 -119 -11 -120 -12 -255 74
c-242 70 -261 74 -380 79 l-125 5 3 30 c4 39 57 198 76 228 8 12 19 49 26 82
6 33 18 72 26 87 37 69 80 227 94 344 6 50 17 77 56 138 27 42 69 101 95 131
53 63 99 153 107 207 2 21 8 38 11 38 4 0 17 9 29 20 19 18 22 32 22 93 0 40
-4 88 -10 107 -5 19 -14 73 -19 120 -6 47 -13 103 -16 125 l-5 40 19 -41 c11
-23 22 -68 26 -100 8 -68 29 -124 45 -124 72 0 102 131 60 263 -10 34 -21 76
-22 92 l-3 30 57 -3 c53 -4 60 -1 88 26 29 30 30 33 30 124 0 51 -5 127 -10
168 -8 61 -7 82 6 117 9 23 14 55 11 70 -3 16 1 42 10 60 17 37 53 56 187 102
49 17 92 33 94 36 8 8 20 6 26 -3z m1131 -283 c13 -49 13 -55 -2 -67 -9 -6
-20 -9 -24 -5 -11 11 -38 146 -32 157 11 17 44 -32 58 -85z m5 -269 c0 -78
-64 -300 -89 -308 -23 -7 -8 205 19 288 31 93 38 104 56 89 9 -7 14 -31 14
-69z m3398 -276 c27 -18 29 -55 5 -95 -27 -46 -40 -43 -52 12 -14 63 -14 72 1
87 15 15 19 15 46 -4z m-13865 -879 c35 -66 97 -176 137 -245 40 -69 90 -156
112 -195 23 -38 55 -90 73 -115 18 -25 45 -72 62 -105 16 -33 45 -91 63 -130
19 -38 50 -87 68 -107 19 -20 55 -65 80 -100 30 -40 64 -72 93 -88 26 -14 78
-55 118 -92 39 -37 82 -75 96 -84 14 -9 22 -20 19 -26 -8 -12 -44 0 -69 22
-20 18 -410 200 -430 200 -5 0 -182 -59 -392 -132 -336 -117 -383 -136 -393
-158 -67 -148 -392 -373 -671 -464 -120 -38 -123 -38 -127 9 -8 116 -50 327
-98 497 -4 12 5 19 33 28 21 6 53 18 70 26 18 8 50 22 70 31 134 56 216 111
318 210 78 76 246 282 272 334 7 14 22 34 33 44 11 10 20 23 20 28 0 6 6 18
14 26 7 9 41 72 75 141 34 69 67 134 73 145 32 58 110 224 168 358 19 42 37
74 41 70 4 -5 36 -62 72 -128z m-20261 -482 c13 -30 23 -76 26 -123 3 -66 1
-79 -20 -110 -58 -86 -174 -102 -303 -42 -71 34 -125 76 -125 98 0 28 57 77
148 128 153 85 175 95 215 96 36 0 39 -3 59 -47z m180 -238 c8 -30 2 -66 -14
-99 -8 -15 -12 -16 -19 -5 -10 17 -12 123 -2 133 12 12 27 0 35 -29z m31869
-100 c5 -4 9 -19 9 -36 0 -25 -4 -29 -27 -29 -41 0 -255 20 -283 27 -24 5 -24
6 10 21 19 8 49 19 65 23 32 9 209 4 226 -6z m-36138 -37 c27 -36 35 -129 14
-147 -24 -19 -49 -10 -73 27 -28 41 -39 103 -24 132 15 29 57 23 83 -12z
m30945 -158 c-2 -59 -8 -82 -27 -108 -32 -46 -49 -29 -28 30 8 23 20 75 27
113 6 39 14 77 18 85 9 23 14 -35 10 -120z m-126 -127 c8 -10 18 -26 21 -35 3
-10 19 -18 39 -20 22 -2 34 -9 36 -20 2 -10 -3 -18 -10 -18 -24 0 -87 50 -103
80 -17 33 -7 40 17 13z m568 7 c0 -5 -4 -10 -9 -10 -6 0 -13 5 -16 10 -3 6 1
10 9 10 9 0 16 -4 16 -10z m-12927 -1306 c36 -19 57 -61 36 -75 -49 -31 -162
-36 -221 -8 -32 14 -35 28 -10 58 38 48 128 59 195 25z"/>
<path d="M35025 14287 c-10 -8 -15 -18 -12 -24 12 -19 152 -63 212 -66 34 -2
40 1 43 19 3 24 -23 36 -140 68 -69 19 -79 20 -103 3z"/>
<path d="M9705 5949 c-14 -17 -23 -34 -20 -37 3 -3 6 -3 8 -1 1 2 12 19 25 37
29 41 22 42 -13 1z"/>
<path d="M2403 5768 c-11 -13 -29 -36 -39 -53 -10 -16 -58 -73 -107 -126 -88
-95 -180 -219 -170 -229 11 -10 216 216 240 265 14 27 40 70 57 95 39 55 48
70 43 70 -2 0 -13 -10 -24 -22z"/>
</g>
</svg>
