<?xml version="1.0" standalone="no"?>
<svg version="1.0" xmlns="http://www.w3.org/2000/svg"
 width="800.500000pt" height="400.500000pt" viewBox="0 0 4419.000000 2206.000000"
 preserveAspectRatio="xMidYMid meet">

<g transform="translate(0.000000,2206.000000) scale(0.100000,-0.100000)"
fill="#000000" stroke="none">
<path d="M28150 14813 c-67 -25 -68 -117 -1 -138 48 -15 100 37 87 89 -5 20
-53 59 -68 55 -2 0 -10 -3 -18 -6z"/>
<path d="M26885 14750 c-53 -21 -60 -88 -14 -123 54 -40 126 18 100 80 -10 24
-50 57 -64 52 -1 0 -11 -4 -22 -9z"/>
<path d="M35741 14066 c-17 -20 -2 -48 23 -44 24 3 34 37 14 49 -18 12 -24 11
-37 -5z"/>
<path d="M36251 13856 c-17 -20 -2 -48 23 -44 24 3 34 37 14 49 -18 12 -24 11
-37 -5z"/>
<path d="M39362 9828 c-28 -28 -7 -78 33 -78 27 0 45 18 45 45 0 27 -18 45
-45 45 -12 0 -26 -5 -33 -12z"/>
<path d="M40112 9738 c-28 -28 -7 -78 33 -78 27 0 45 18 45 45 0 27 -18 45
-45 45 -12 0 -26 -5 -33 -12z"/>
</g>
</svg>
