<?xml version="1.0" standalone="no"?>
<svg version="1.0" xmlns="http://www.w3.org/2000/svg"
 width="700.000000pt" height="350.000000pt" viewBox="0 0 4419.000000 2206.000000"
 preserveAspectRatio="xMidYMid meet">

    <defs>
    <radialGradient 
      id="exampleGradient"
      cx="0.6"
      cy="0.75"
      fx="0.61"
      fy="1.0"
      fr="5%"
    >
      <stop offset="20%" stop-color="#696969" />
      <stop offset="90%" stop-color="#000000"/>
    </radialGradient>
  </defs>

<g transform="translate(-60.000000,2500.000000) scale(0.100000,-0.100000)"
fill="#000000" stroke="none" style="fill: url(#exampleGradient);">
<path d="M22072 13344 c-20 -14 -22 -21 -16 -63 6 -44 4 -51 -26 -85 -38 -42
-78 -66 -114 -66 -58 0 -73 -76 -36 -185 11 -32 20 -73 20 -92 0 -18 9 -59 21
-91 19 -53 21 -83 24 -422 4 -438 -6 -731 -29 -815 -9 -32 -16 -89 -16 -126 0
-39 -8 -92 -20 -129 -11 -34 -20 -72 -20 -84 0 -12 -11 -42 -25 -68 -30 -56
-31 -70 -6 -92 10 -10 22 -34 26 -54 4 -20 15 -47 26 -60 25 -32 25 -84 -1
-107 -11 -10 -20 -24 -20 -30 0 -7 -10 -24 -21 -39 -24 -30 -23 -65 6 -166 8
-30 15 -82 15 -115 0 -33 7 -98 15 -145 9 -47 20 -175 25 -285 5 -110 14 -229
21 -265 6 -36 11 -179 12 -319 l2 -255 -60 -23 c-33 -13 -94 -27 -136 -32 -41
-5 -86 -14 -98 -20 -12 -7 -75 -16 -139 -21 -64 -5 -137 -14 -162 -19 -25 -6
-128 -13 -230 -16 -261 -8 -434 -44 -505 -106 -11 -10 -36 -25 -56 -33 -51
-21 -79 -1 -79 55 0 45 -15 51 -32 12 -43 -101 -210 -247 -308 -270 -14 -3
-44 -11 -67 -19 -28 -9 -64 -11 -107 -7 -55 5 -66 3 -66 -9 0 -9 13 -21 29
-28 44 -18 64 -45 57 -75 -4 -14 -11 -25 -17 -25 -18 0 -111 -94 -145 -146
-18 -28 -36 -64 -40 -80 -3 -16 -14 -40 -23 -54 -24 -37 -23 -304 1 -340 9
-14 20 -43 24 -65 3 -22 12 -47 19 -55 6 -8 23 -36 38 -61 38 -66 150 -172
216 -204 31 -15 68 -33 83 -41 34 -18 92 -18 108 1 7 8 18 15 26 15 15 0 325
301 322 312 -2 4 -64 9 -138 11 -95 3 -146 9 -174 21 -21 9 -48 16 -60 16 -11
0 -32 7 -46 15 -14 8 -35 19 -48 24 -40 19 -92 65 -125 111 -31 44 -32 48 -32
150 0 98 2 108 30 155 16 28 34 55 40 61 5 6 24 27 41 46 40 45 80 72 98 65 7
-3 16 -18 19 -34 8 -36 73 -123 92 -123 11 0 15 12 15 48 0 39 7 57 41 105 22
31 44 57 49 57 5 0 21 10 37 23 15 13 52 33 80 45 49 21 55 21 89 7 43 -18 50
-15 35 13 -21 40 -13 71 22 87 29 14 63 32 107 57 8 4 26 13 40 19 14 6 32 15
40 20 8 5 26 14 40 20 14 6 44 20 68 30 23 10 52 19 63 19 11 0 40 9 64 20 44
20 179 31 203 16 20 -12 13 -41 -18 -81 -28 -35 -30 -44 -30 -120 0 -75 2 -85
30 -123 17 -23 36 -42 44 -42 7 0 25 -9 39 -20 35 -28 151 -28 185 -1 37 32
27 41 -43 41 -60 0 -68 3 -103 34 -50 46 -65 99 -45 166 20 68 69 104 193 142
46 14 205 4 252 -16 21 -9 56 -16 78 -16 27 0 47 -7 60 -20 19 -19 20 -35 22
-557 2 -705 0 -780 -21 -818 -23 -40 -75 -65 -138 -65 -154 0 -226 -24 -364
-119 -77 -54 -259 -228 -259 -248 0 -29 87 -5 212 58 20 11 46 19 58 19 12 0
38 9 58 19 57 30 424 73 445 52 8 -8 12 -62 12 -176 l0 -164 -30 -31 -29 -30
21 -93 c13 -53 24 -146 28 -221 3 -70 10 -137 16 -148 8 -15 6 -42 -6 -102
-15 -77 -15 -86 0 -127 27 -71 28 -85 10 -118 -10 -20 -17 -60 -18 -104 -2
-60 2 -77 20 -102 36 -50 38 -92 7 -150 -34 -62 -36 -151 -5 -218 l20 -44 -25
-73 c-31 -87 -27 -154 11 -210 38 -57 38 -71 4 -135 -40 -75 -44 -159 -11
-205 28 -38 29 -107 2 -157 -28 -52 -27 -171 0 -232 25 -55 25 -75 -2 -119
-19 -31 -22 -50 -22 -137 1 -90 4 -106 29 -153 23 -45 27 -61 22 -105 -3 -29
-16 -74 -30 -100 l-24 -48 -47 52 c-25 28 -54 64 -63 79 -12 21 -26 29 -55 33
-44 6 -72 27 -95 70 -20 39 -37 29 -45 -27 -8 -57 -28 -90 -71 -117 -58 -35
-105 -43 -181 -28 -65 12 -70 12 -112 -10 -25 -14 -66 -51 -96 -89 -87 -107
-151 -125 -290 -82 -76 23 -93 43 -85 99 15 114 94 240 244 388 101 100 129
134 106 133 -5 -1 -30 -7 -58 -14 -108 -29 -101 6 30 143 105 110 128 151 85
151 -55 0 -199 -99 -298 -205 -58 -62 -75 -88 -88 -133 -14 -48 -29 -68 -103
-142 -91 -91 -194 -170 -255 -195 -34 -14 -36 -14 -50 7 -40 63 -108 355 -109
468 0 184 78 244 338 261 77 4 169 15 205 24 202 48 410 142 410 185 0 43
-438 -44 -711 -141 -166 -58 -228 -68 -282 -45 -35 14 -43 14 -100 -2 -46 -13
-101 -17 -215 -17 -83 0 -152 -1 -152 -1 0 -1 9 -21 20 -45 32 -72 28 -84 -37
-109 -199 -75 -616 -152 -803 -149 -107 2 -128 -4 -188 -54 -29 -25 -57 -38
-90 -43 -60 -9 -218 7 -446 46 l-179 31 -66 -18 c-94 -25 -319 -25 -416 1 -93
25 -175 59 -249 106 -39 24 -83 42 -121 49 -95 17 -137 60 -99 102 17 19 17
21 -5 50 -120 162 -181 334 -181 508 0 148 -44 265 -140 373 -65 73 -130 106
-243 124 -51 8 -163 28 -250 45 -216 42 -231 39 -317 -52 -36 -38 -73 -69 -82
-69 -25 0 -80 71 -134 173 -27 50 -60 105 -74 121 -32 38 -132 103 -183 118
-39 12 -39 12 -33 52 4 23 17 77 30 121 14 44 34 121 45 170 11 50 36 150 55
223 20 73 49 201 66 285 64 320 163 719 181 725 5 2 9 11 9 20 0 17 49 53 150
111 98 56 254 154 268 168 7 7 17 13 22 13 4 0 11 7 14 16 5 13 0 12 -29 -5
-19 -11 -35 -18 -35 -15 0 4 27 32 61 63 l61 56 -39 -1 c-21 -1 -47 -5 -58 -9
l-20 -7 20 17 c50 40 66 57 61 62 -3 3 -12 0 -21 -7 -33 -28 -14 18 28 66 34
40 37 46 15 31 -16 -10 -28 -13 -28 -7 0 6 7 13 15 16 8 3 21 19 29 35 12 24
12 29 1 29 -8 0 -17 -5 -20 -10 -3 -6 -21 -17 -38 -26 l-32 -16 40 41 c35 37
37 41 17 41 -36 0 -25 23 33 69 55 44 65 68 20 51 -34 -13 -31 -2 12 42 34 35
36 55 3 26 -12 -11 -12 -10 -2 3 6 8 31 25 56 38 55 27 69 44 29 36 l-28 -7
23 19 c30 25 17 36 -19 18 -35 -19 -35 -19 -43 2 -5 11 1 23 16 35 18 14 20
20 10 27 -10 6 1 17 40 41 55 34 53 54 -2 25 -51 -27 -48 -8 9 45 56 53 56 59
-3 35 -30 -13 -36 -13 -36 -1 0 8 7 17 16 20 8 3 13 10 9 15 -3 6 8 20 25 32
16 13 30 29 30 36 0 15 -16 17 -25 3 -8 -13 -25 -13 -25 -1 0 5 11 23 25 39
28 33 31 43 13 40 -29 -7 -16 32 22 62 47 37 53 57 10 35 -37 -19 -38 -14 -5
21 14 15 23 34 20 41 -3 7 -7 19 -9 26 -3 6 18 29 45 50 28 21 48 41 45 44 -3
3 -12 1 -19 -5 -17 -15 -87 -44 -87 -37 0 3 34 42 75 86 41 44 75 84 75 89 0
5 19 22 42 37 36 24 39 28 20 31 -11 2 -32 -4 -46 -14 -14 -9 -26 -12 -26 -6
0 5 11 17 25 26 14 9 25 21 25 26 0 10 -119 -67 -160 -104 -46 -41 -61 -51
-54 -35 3 8 42 43 87 79 44 36 88 72 98 81 9 9 25 21 35 27 11 6 19 22 19 36
1 23 -5 20 -70 -38 -88 -78 -224 -177 -336 -244 -48 -29 -89 -52 -92 -52 -3 0
-7 12 -9 28 -2 21 -8 26 -23 24 -11 -2 -25 -10 -31 -18 -17 -22 -32 -17 -50
19 -9 17 -24 41 -34 52 -10 11 -21 30 -25 43 -3 12 -10 20 -15 17 -12 -7 -17
12 -30 121 -7 54 -19 113 -27 131 -8 18 -20 99 -28 185 l-12 153 -2 -160 c-2
-99 -6 -152 -11 -140 -6 15 -8 6 -8 -30 0 -68 -13 -165 -22 -165 -10 0 -20 37
-20 80 0 19 -5 42 -11 50 -7 11 -9 -46 -6 -197 3 -117 1 -213 -3 -213 -12 0
-17 50 -31 272 -7 109 -15 196 -17 193 -2 -2 -6 -93 -7 -202 -1 -109 -3 -218
-5 -243 -2 -42 -2 -43 -10 -16 -5 15 -10 57 -12 92 -2 35 -6 64 -11 64 -4 0
-5 -80 -3 -178 3 -141 1 -181 -10 -197 -15 -21 -19 -105 -5 -105 5 0 8 -24 8
-52 -1 -29 1 -82 6 -118 5 -45 4 -58 -3 -42 -5 12 -15 69 -22 126 -7 58 -15
103 -18 101 -3 -2 -7 -50 -8 -107 -2 -56 -8 -107 -13 -112 -5 -6 -9 4 -9 27 0
20 -4 37 -10 37 -14 0 -13 -53 1 -67 6 -6 13 -26 15 -45 2 -18 6 -58 9 -88 6
-64 -10 -49 -25 23 -9 39 -9 37 -6 -20 4 -59 -5 -89 -18 -61 -3 7 -4 4 -2 -7
3 -11 7 -40 11 -65 5 -40 4 -43 -8 -27 -13 16 -16 16 -28 1 -9 -11 -10 -17 -1
-23 11 -7 13 -51 1 -51 -3 0 -5 -18 -3 -40 1 -23 -1 -38 -7 -35 -5 4 -9 13 -9
21 0 8 -5 14 -11 14 -8 0 -10 -31 -7 -100 2 -55 2 -100 -1 -100 -2 0 -10 8
-17 18 -11 13 -11 6 1 -33 19 -66 20 -85 0 -59 -12 16 -14 17 -15 2 0 -20 55
-185 68 -201 5 -7 15 -33 22 -59 7 -26 18 -49 26 -52 8 -3 14 -15 14 -26 0
-22 -58 -273 -165 -710 -35 -146 -94 -386 -130 -535 -84 -344 -84 -345 -96
-345 -5 0 -27 18 -49 40 -24 25 -48 40 -63 40 -14 0 -62 12 -108 26 -77 23
-101 26 -271 27 -168 2 -187 0 -197 -15 -16 -25 -28 -22 -45 11 -11 20 -30 34
-60 44 l-45 16 -35 -47 c-19 -26 -52 -64 -73 -85 l-40 -38 -32 103 c-18 57
-40 121 -48 143 -47 122 -82 221 -143 405 -38 113 -98 284 -133 380 -36 96
-85 238 -110 315 -25 77 -62 183 -82 235 -20 52 -72 199 -115 325 -43 127 -87
255 -98 285 -65 175 -109 301 -149 425 -24 77 -48 149 -53 160 -5 11 -23 58
-40 104 -32 86 -33 98 -9 177 14 47 8 79 -23 117 -13 15 -34 47 -48 71 -14 24
-44 76 -67 115 -23 40 -48 90 -55 112 -11 40 -11 41 25 74 20 19 37 38 37 44
0 19 113 124 164 151 70 38 258 92 304 88 l37 -3 6 -57 c4 -32 12 -65 19 -74
19 -22 63 -43 97 -45 33 -2 103 25 103 41 0 6 12 16 26 22 41 19 77 110 69
173 -9 69 -50 131 -100 150 -77 29 -160 12 -340 -67 -49 -22 -124 -55 -165
-73 -41 -19 -97 -41 -125 -50 -27 -9 -59 -20 -70 -25 -39 -18 -149 -50 -170
-50 -28 0 -45 20 -83 99 -20 41 -29 73 -26 87 4 15 -2 34 -16 54 -45 63 -84
170 -224 610 -68 213 -88 297 -89 372 -2 57 -6 71 -28 95 -15 15 -30 46 -34
68 -3 22 -13 54 -20 70 -37 87 -41 120 -32 290 4 79 -23 237 -49 287 -31 59
-98 129 -142 149 -82 36 -243 22 -352 -30 -90 -43 -134 -85 -177 -169 -33 -66
-38 -83 -37 -141 1 -54 8 -80 38 -145 38 -82 47 -95 134 -201 65 -79 112 -167
112 -209 0 -17 9 -42 20 -56 14 -18 20 -41 20 -80 0 -57 24 -112 61 -138 20
-14 114 -249 199 -497 32 -93 70 -201 85 -240 15 -38 31 -101 36 -138 6 -48
16 -78 34 -101 18 -23 25 -45 25 -75 0 -24 8 -56 17 -71 34 -58 -18 -96 -197
-144 -30 -8 -82 -24 -115 -36 -33 -12 -91 -28 -130 -35 -86 -16 -220 -50 -260
-65 -16 -6 -53 -27 -81 -45 -63 -42 -85 -87 -76 -160 9 -81 38 -118 127 -154
72 -30 79 -32 131 -21 77 16 105 43 111 107 5 46 3 54 -21 76 -57 53 -24 87
151 158 40 16 83 29 95 29 13 1 54 3 93 5 54 2 87 -2 145 -21 41 -13 85 -24
96 -24 31 0 44 -21 55 -87 31 -183 38 -232 38 -266 1 -55 28 -105 74 -138 67
-48 79 -76 207 -459 38 -113 83 -243 100 -290 18 -47 78 -220 134 -385 57
-165 128 -372 158 -460 31 -88 67 -194 81 -235 14 -41 39 -113 57 -160 18 -47
63 -177 100 -290 38 -113 83 -243 100 -290 49 -129 160 -462 160 -478 0 -26
-235 -10 -340 22 -47 15 -137 33 -200 41 -63 8 -159 24 -214 36 -89 21 -101
21 -125 8 -19 -11 -26 -23 -26 -44 0 -35 -31 -55 -90 -55 -30 0 -179 -42 -204
-58 -8 -4 72 -82 91 -88 50 -16 -3 -61 -122 -105 -91 -33 -146 -37 -192 -13
-35 18 -224 195 -221 206 2 4 -16 12 -39 19 -23 6 -72 26 -108 44 l-65 33 -36
-18 c-53 -28 -155 -60 -236 -76 l-72 -13 -178 -182 c-178 -181 -302 -291 -345
-305 -39 -12 -72 39 -191 298 -44 95 -110 181 -147 193 -47 15 -146 -61 -385
-295 -191 -187 -276 -249 -349 -257 -50 -6 -67 10 -75 70 -8 53 -24 57 -45 9
-21 -46 -77 -82 -128 -82 -43 0 -66 17 -77 55 -8 29 -10 30 -62 28 -95 -4
-117 4 -183 66 -86 82 -92 85 -162 60 -96 -33 -190 -49 -285 -49 l-90 0 45
-56 c26 -31 44 -60 40 -65 -8 -13 -676 -11 -770 2 -149 20 -257 79 -453 246
-107 90 -131 117 -118 129 4 5 63 11 130 15 120 7 237 28 280 50 32 17 67 51
67 65 0 7 -10 23 -22 35 -21 19 -30 20 -97 15 -59 -5 -90 -14 -150 -45 -140
-71 -264 -101 -415 -101 -75 0 -220 21 -232 33 -2 2 -20 59 -39 128 -20 68
-54 159 -76 202 -22 44 -81 194 -130 335 -50 142 -107 304 -129 362 -21 58
-47 132 -58 165 -59 181 -177 508 -227 630 -67 164 -194 511 -224 613 -33 108
-31 126 26 238 104 203 163 337 163 367 -1 17 -5 14 -19 -16 -9 -20 -20 -34
-24 -31 -3 4 -3 14 2 23 5 9 11 34 15 56 4 22 10 49 13 60 l6 20 -23 -20 c-12
-11 -24 -18 -27 -15 -2 3 -11 -6 -19 -20 l-15 -25 6 25 c4 14 10 40 15 58 9
36 4 41 -16 15 -12 -16 -13 -13 -14 22 0 22 4 55 9 73 12 39 7 41 -14 5 -16
-28 -16 -14 0 32 l7 20 -18 -20 c-16 -19 -16 -15 1 28 4 9 3 17 -2 17 -5 0
-19 -21 -31 -47 -22 -51 -29 -42 -12 16 11 40 7 49 -15 31 -25 -21 -27 8 -5
79 11 36 17 67 15 70 -3 2 -14 -4 -25 -14 -27 -25 -30 -18 -15 38 6 26 8 47 3
47 -4 0 -8 -8 -9 -17 0 -10 -3 -13 -5 -6 -3 6 6 34 20 62 31 61 32 70 5 45
-20 -18 -20 -18 -14 9 9 34 -8 36 -23 3 -8 -18 -16 -23 -32 -19 -15 4 -19 11
-14 22 16 41 17 51 0 45 -21 -8 -20 -1 4 46 30 59 25 82 -7 35 -26 -37 -28
-38 -31 -17 -2 13 4 44 12 69 19 54 18 53 8 53 -5 0 -17 -16 -28 -35 -22 -41
-38 -46 -32 -10 3 14 1 28 -3 31 -5 3 -5 14 1 24 12 23 13 60 1 60 -5 0 -12
-7 -15 -16 -11 -29 -24 -4 -20 37 4 35 3 41 -11 35 -23 -9 -29 18 -15 70 15
53 8 67 -14 27 l-16 -28 6 47 c5 41 4 47 -15 53 -25 8 -25 7 -6 69 22 71 19
76 -16 22 -16 -27 -32 -46 -35 -43 -3 2 2 38 11 78 8 41 15 97 15 124 1 28 7
61 15 75 18 32 18 40 2 40 -7 0 -21 -15 -30 -32 l-16 -33 5 45 5 45 -29 -65
c-16 -36 -37 -93 -47 -125 -10 -33 -19 -55 -21 -50 -3 6 7 49 22 95 14 47 32
108 41 135 8 28 17 59 20 69 4 13 2 17 -5 12 -8 -4 -12 0 -13 11 0 10 -13 -25
-29 -77 -54 -185 -180 -489 -202 -490 -4 0 -10 9 -13 20 -12 37 -55 16 -55
-27 0 -28 -15 -29 -58 -3 -18 11 -41 20 -51 20 -10 0 -24 7 -31 15 -7 9 -19
14 -26 11 -16 -6 -31 7 -100 89 -57 69 -88 98 -111 106 -12 4 -95 110 -152
192 -18 27 -35 46 -38 44 -5 -6 97 -167 133 -210 27 -32 33 -57 9 -37 -8 6 8
-26 35 -72 28 -45 50 -89 50 -96 0 -20 -37 7 -67 51 -23 34 -54 54 -37 25 24
-42 126 -194 171 -254 49 -65 68 -104 43 -89 -12 7 -218 276 -251 327 -13 21
-28 38 -32 38 -10 0 13 -39 88 -155 117 -178 145 -223 151 -240 13 -32 -12 -8
-63 61 -26 36 -49 60 -51 54 -2 -6 19 -42 47 -81 28 -38 51 -73 51 -78 0 -5 7
-11 15 -15 8 -3 23 -22 33 -43 9 -21 22 -41 29 -46 7 -4 15 -24 19 -45 8 -44
41 -102 58 -102 7 0 20 -15 28 -34 9 -19 37 -57 62 -85 25 -29 46 -55 46 -58
0 -11 -59 49 -113 114 -28 35 -53 61 -55 58 -3 -3 10 -28 28 -57 81 -129 97
-169 44 -110 l-25 27 3 -25 c2 -17 13 -29 33 -38 26 -12 58 -47 115 -125 14
-19 13 -19 -7 -9 -12 7 -30 24 -41 39 -11 16 -23 25 -26 22 -3 -3 10 -24 29
-46 19 -23 35 -47 35 -55 0 -10 -3 -9 -10 2 -5 8 -10 10 -10 4 0 -5 16 -25 35
-44 19 -19 35 -40 35 -48 0 -11 -3 -12 -14 -3 -11 9 -15 8 -20 -5 -7 -19 2
-37 14 -29 11 7 32 -30 23 -39 -4 -3 3 -15 15 -26 25 -24 31 -50 7 -30 -9 7
-18 10 -22 7 -6 -7 56 -107 90 -144 24 -26 16 -42 -10 -22 -10 7 2 -9 27 -35
37 -40 41 -47 21 -41 -16 5 -21 4 -17 -4 11 -17 138 -116 172 -134 17 -9 37
-23 45 -33 8 -9 29 -23 46 -31 39 -16 48 -32 108 -198 25 -71 60 -166 77 -210
17 -44 75 -204 128 -355 136 -383 375 -1045 564 -1564 42 -115 76 -214 76
-222 0 -15 -20 -24 -305 -144 -385 -161 -722 -282 -833 -299 -113 -18 -139 5
-130 115 5 52 4 55 -16 50 -106 -29 -317 -32 -406 -7 -21 6 -275 12 -630 14
-399 2 -606 7 -627 15 -31 10 -33 9 -33 -14 0 -36 -18 -64 -39 -64 -27 0 -117
70 -175 137 -28 32 -99 105 -157 163 -113 112 -160 181 -214 310 -50 121 -223
318 -321 365 -48 23 -168 32 -218 15 -78 -25 -97 -76 -147 -397 -62 -406 -146
-769 -203 -881 -51 -101 -185 -172 -323 -172 -46 0 -58 4 -92 35 -21 19 -42
35 -46 35 -4 0 -25 -15 -46 -34 -44 -41 -110 -63 -229 -78 -147 -18 -235 2
-259 60 -7 16 -9 41 -5 55 7 32 3 33 -68 8 -96 -33 -198 -45 -316 -36 -59 4
-132 7 -162 7 -30 -1 -125 -2 -210 -4 -134 -2 -166 0 -235 19 -57 16 -119 23
-215 26 -158 6 -251 27 -376 87 -46 22 -90 40 -99 40 -13 0 -15 -270 -15
-2505 l0 -2505 22095 0 22095 0 0 2395 0 2395 -123 -3 c-121 -2 -124 -2 -172
28 -61 38 -122 125 -209 300 -69 138 -101 238 -91 284 3 15 21 49 40 76 55 76
52 80 -79 88 -52 4 -73 10 -89 26 -20 20 -20 24 -9 91 20 118 16 123 -63 60
-27 -21 -51 -37 -54 -35 -2 3 1 29 8 58 7 28 11 63 10 77 -3 21 -10 25 -45 28
-36 3 -45 -1 -67 -28 -55 -65 -45 -164 28 -270 52 -76 120 -269 184 -517 70
-275 115 -523 95 -523 -5 0 -148 -9 -319 -20 -571 -37 -744 -23 -803 61 -11
16 -26 19 -106 19 -81 0 -176 11 -228 26 -14 4 -19 -6 -29 -55 -30 -152 -99
-181 -434 -181 -268 0 -356 17 -383 73 -10 21 -19 27 -42 25 -16 -1 -37 6 -49
16 -19 18 -30 37 -125 236 -54 114 -120 197 -213 267 -131 100 -287 153 -446
153 -118 0 -215 -28 -351 -100 -134 -72 -206 -90 -356 -90 -113 0 -414 23
-520 40 -158 26 -207 62 -244 180 l-24 74 -108 -3 c-116 -2 -217 13 -318 48
-33 12 -61 21 -63 21 -1 0 -3 -11 -3 -24 0 -13 -7 -29 -15 -36 -24 -20 -64 15
-100 84 -43 83 -96 119 -181 124 l-65 4 6 42 c4 22 22 111 41 196 19 85 50
236 69 335 18 99 51 257 73 350 22 94 50 226 62 295 l23 124 68 72 69 72 -4
109 c-2 59 -2 178 2 263 5 143 7 156 28 177 14 14 35 23 54 23 17 0 53 11 80
25 65 33 120 47 206 52 l71 4 11 37 c22 76 23 98 9 111 -8 6 -55 18 -103 27
-126 21 -251 61 -268 85 -10 15 -12 29 -5 52 5 17 8 63 8 103 -1 40 2 77 5 82
3 5 17 73 31 151 14 78 41 206 59 284 19 78 41 178 51 222 9 44 28 121 41 170
13 50 39 153 59 230 92 358 134 505 151 525 7 9 13 38 12 65 -1 57 39 164 77
205 12 14 31 41 40 60 10 19 23 42 31 50 27 31 92 177 110 245 11 42 18 105
17 157 0 84 -1 90 -38 145 -73 112 -99 137 -186 180 -96 47 -176 64 -299 65
-71 1 -98 -4 -155 -27 -101 -39 -129 -59 -180 -126 -76 -100 -103 -262 -77
-463 21 -160 20 -313 -1 -351 -9 -16 -17 -47 -17 -67 0 -55 -159 -994 -186
-1101 -8 -32 -19 -77 -23 -100 -73 -357 -105 -479 -133 -503 -12 -12 -18 -31
-18 -59 0 -28 -6 -47 -18 -59 -17 -15 -26 -15 -133 4 -63 11 -142 29 -174 40
-101 33 -108 29 -119 -78 -6 -55 -5 -63 11 -68 61 -19 130 -65 180 -122 30
-34 75 -76 98 -92 24 -17 47 -39 50 -51 7 -22 -14 -91 -57 -187 -15 -34 -28
-65 -28 -68 0 -6 -49 -107 -69 -144 -41 -75 -44 -87 -31 -142 7 -29 18 -64 25
-78 28 -57 27 -129 -5 -270 -17 -74 -44 -202 -60 -285 -16 -82 -45 -220 -65
-305 -20 -85 -47 -216 -61 -290 -14 -74 -32 -162 -40 -195 -19 -74 -56 -247
-90 -420 -14 -71 -36 -173 -49 -225 -12 -52 -35 -158 -50 -235 -15 -77 -30
-143 -34 -148 -9 -9 -96 20 -141 48 -38 25 -136 124 -165 168 -9 15 -20 41
-24 58 l-6 30 -140 2 c-121 2 -154 6 -239 31 -92 27 -99 28 -108 11 -28 -49
-45 -56 -136 -54 -49 1 -100 -4 -117 -11 -55 -22 -176 -40 -266 -40 -112 0
-219 21 -329 66 l-85 34 -27 -32 c-20 -22 -28 -43 -28 -69 0 -63 -71 -183
-133 -224 -25 -16 -28 -16 -53 0 -14 9 -33 30 -42 46 -10 16 -21 27 -27 25 -5
-2 -27 -11 -47 -20 -34 -15 -37 -15 -42 2 -4 10 5 83 19 162 14 80 46 267 70
415 25 149 57 324 70 390 13 66 33 192 45 280 25 196 44 311 63 367 8 24 20
90 27 148 13 117 36 241 74 405 15 61 29 153 32 205 3 52 23 196 44 320 21
124 46 272 55 330 9 58 23 139 32 180 8 41 23 127 33 190 10 63 28 165 40 225
25 129 60 385 60 436 0 32 -4 37 -46 57 -26 13 -49 20 -52 17 -8 -8 -225
-1314 -433 -2610 -17 -104 -44 -266 -60 -360 -41 -236 -134 -803 -169 -1023
-16 -101 -32 -187 -35 -190 -4 -4 -91 -7 -193 -8 -177 0 -190 -2 -247 -26 -35
-15 -90 -28 -133 -32 l-73 -6 -17 31 c-9 17 -35 54 -58 83 -22 28 -80 110
-129 181 -82 121 -120 171 -265 359 -135 174 -342 467 -371 524 -34 69 -34 73
-4 217 15 74 42 240 50 313 3 24 1 51 -5 60 -7 13 -9 7 -10 -25 0 -24 -4 -43
-10 -43 -6 0 -10 34 -10 81 l0 82 -25 -25 c-13 -14 -29 -36 -35 -49 -8 -19 -9
-15 -4 23 3 26 1 54 -5 65 -10 17 -10 16 -11 -4 0 -13 -4 -23 -9 -23 -13 0
-25 50 -22 93 3 42 -16 51 -22 10 l-4 -28 -2 30 c-1 17 -8 39 -16 49 -13 18
-15 16 -21 -23 -9 -58 -24 -62 -24 -7 0 25 -4 46 -10 46 -5 0 -10 -5 -10 -11
0 -6 -6 -9 -12 -6 -9 2 -13 26 -13 72 0 69 -16 97 -29 53 -7 -22 -8 -22 -17 7
-5 17 -7 40 -4 53 6 23 -10 32 -18 10 -2 -7 -3 1 0 17 2 17 6 48 9 70 5 39 5
40 -10 15 l-15 -25 -1 28 c0 36 -17 35 -25 -3 -9 -43 -45 -42 -45 1 0 23 -4
30 -15 25 -12 -4 -14 5 -10 57 5 59 -1 60 -19 4 -11 -35 -26 -5 -26 54 0 67
-14 78 -27 22 -9 -37 -30 -45 -26 -10 2 9 -2 17 -7 17 -6 0 -10 18 -10 39 0
44 -18 65 -27 32 -9 -34 -21 -24 -29 24 -5 38 -9 44 -21 33 -21 -17 -33 6 -33
70 0 33 -4 51 -10 47 -5 -3 -10 -17 -10 -31 0 -13 -4 -24 -10 -24 -5 0 -10 18
-10 40 0 39 -6 45 -37 41 -9 -1 -13 19 -14 71 l-1 73 -17 -60 c-10 -32 -20
-54 -24 -48 -4 6 -9 46 -12 89 -3 44 -10 94 -16 112 -6 18 -9 53 -7 76 3 49
-18 54 -28 7 -10 -46 -12 -47 -13 -1 -2 85 -20 26 -29 -95 l-9 -120 -2 163 c0
96 -5 161 -10 158 -5 -4 -11 0 -13 6 -3 7 -8 -69 -11 -170 -5 -155 -37 -413
-53 -431 -2 -2 -13 4 -25 15 -20 18 -21 18 -35 0 -8 -11 -11 -29 -7 -44 l6
-24 -74 7 c-41 4 -82 11 -91 16 -11 6 -18 5 -21 -4 -2 -8 -36 9 -93 48 -107
72 -134 86 -144 80 -7 -5 -123 76 -214 149 -20 16 -39 26 -42 24 -3 -3 45 -47
106 -99 72 -61 106 -95 98 -100 -8 -5 -4 -11 13 -20 13 -7 47 -37 74 -67 48
-53 49 -55 21 -48 -16 4 -44 19 -63 33 -18 14 -36 24 -38 21 -7 -7 144 -139
232 -205 65 -48 88 -73 66 -73 -10 0 -310 224 -345 258 -16 14 -28 21 -28 15
0 -11 24 -34 235 -219 94 -82 125 -114 109 -114 -3 0 -23 13 -43 28 -65 51
-101 74 -101 64 0 -5 28 -31 63 -58 34 -27 63 -52 65 -56 2 -4 19 -15 37 -24
19 -9 37 -25 40 -36 4 -10 17 -23 31 -28 13 -5 30 -25 38 -43 13 -33 72 -85
83 -74 3 3 16 -7 29 -22 13 -16 53 -47 89 -71 36 -23 65 -44 65 -46 0 -12 -27
3 -115 61 -54 36 -100 64 -102 61 -2 -2 30 -34 71 -72 75 -66 101 -102 50 -69
-14 9 -28 14 -31 11 -11 -11 30 -46 46 -41 16 5 166 -94 156 -103 -2 -2 -26 8
-52 23 -44 26 -46 26 -28 6 11 -13 33 -30 50 -39 24 -12 27 -16 13 -21 -12 -5
-4 -13 33 -36 46 -27 68 -54 33 -41 -12 4 -15 0 -12 -17 2 -15 9 -21 21 -19 9
2 17 -1 17 -6 0 -6 17 -26 38 -46 36 -37 36 -37 10 -31 -42 10 -33 -6 25 -48
83 -60 99 -76 94 -91 -4 -10 8 -20 36 -32 37 -16 39 -18 18 -22 -23 -4 -23 -4
7 -22 16 -10 72 -33 123 -50 52 -18 107 -39 122 -47 15 -8 36 -12 46 -8 19 6
44 -18 107 -105 181 -247 294 -403 369 -510 49 -69 154 -214 233 -323 79 -109
142 -201 140 -206 -5 -12 -133 17 -218 50 -140 54 -285 166 -378 292 -31 41
-51 58 -89 72 -26 10 -259 110 -518 223 -258 112 -491 213 -518 225 -47 20
-48 20 -83 1 -49 -26 -61 -42 -38 -50 51 -19 729 -316 864 -379 249 -117 400
-210 435 -268 16 -26 16 -30 1 -46 -28 -31 -87 -43 -247 -48 -259 -9 -756 28
-837 63 -34 14 -35 17 -18 27 100 63 108 82 47 123 -41 27 -58 55 -45 75 12
19 87 47 144 54 81 9 97 13 114 30 38 39 -23 75 -126 75 -119 0 -234 -40 -345
-119 -31 -23 -61 -41 -68 -41 -10 0 -26 39 -70 175 -9 28 -23 66 -32 85 -9 19
-21 55 -29 80 -7 25 -27 81 -44 125 -17 44 -38 105 -47 135 -8 30 -20 64 -26
75 -9 18 -62 163 -119 330 -12 33 -24 65 -28 70 -5 6 -13 26 -18 45 -6 19 -23
67 -37 105 -15 39 -37 102 -49 140 -13 39 -28 79 -34 90 -6 11 -16 36 -22 55
-7 19 -25 71 -42 115 -16 44 -35 103 -43 130 -8 28 -21 66 -29 85 -60 147
-110 293 -136 394 -41 159 -42 147 4 174 42 25 61 60 70 128 5 43 2 64 -24
130 -46 116 -50 124 -79 126 -48 2 -86 -3 -115 -18 -15 -7 -43 -16 -62 -20
-27 -5 -37 -2 -56 19 -13 13 -29 42 -37 63 -8 22 -21 50 -30 64 -23 35 -41 87
-52 149 -17 94 -48 194 -68 215 -10 12 -28 39 -40 61 -12 22 -33 58 -46 80
-14 22 -25 54 -25 70 0 17 -7 55 -15 85 -9 30 -20 77 -25 103 -5 27 -18 61
-29 75 -51 72 -72 125 -86 214 -30 196 -31 201 -81 258 -37 44 -57 142 -50
246 6 92 6 97 -43 290 -5 18 -31 72 -59 120 -99 172 -138 325 -129 504 4 76 1
112 -8 130 -7 14 -16 44 -20 65 -4 22 -20 63 -37 92 -16 28 -35 74 -44 102
-24 83 -107 129 -308 172 -84 18 -92 18 -147 3 -49 -14 -62 -23 -80 -53 -31
-51 -41 -101 -46 -223 l-4 -107 41 -68 c22 -37 43 -84 46 -105 5 -28 17 -46
48 -72 24 -19 57 -62 76 -98 l34 -63 2 -178 c1 -98 7 -199 13 -225 6 -26 19
-110 31 -187 25 -177 42 -266 74 -385 13 -52 39 -149 56 -214 17 -66 37 -131
45 -145 7 -15 24 -66 38 -116 14 -49 39 -124 56 -165 16 -41 44 -111 60 -155
16 -44 48 -117 70 -163 23 -45 41 -86 41 -90 0 -9 139 -284 203 -404 61 -112
60 -127 -2 -134 -53 -6 -117 -28 -153 -53 -37 -26 -38 -27 -38 -92 0 -81 39
-221 71 -256 22 -22 30 -24 102 -21 l79 3 30 -90 c29 -87 51 -156 117 -370 17
-55 40 -111 50 -125 9 -14 26 -56 36 -95 10 -38 24 -81 30 -95 7 -14 22 -61
35 -105 12 -44 32 -109 45 -145 13 -36 35 -103 49 -150 13 -47 31 -105 39
-130 9 -25 36 -112 62 -195 26 -82 58 -181 72 -219 13 -39 35 -113 49 -165 13
-53 33 -116 43 -141 11 -25 31 -85 45 -135 14 -49 37 -121 50 -160 l23 -70
-76 -3 c-90 -4 -171 9 -276 43 -83 27 -125 25 -125 -6 0 -50 -129 -78 -276
-60 -103 12 -175 36 -236 76 -22 15 -42 24 -46 21 -3 -4 2 -22 11 -41 22 -46
21 -57 -4 -89 -36 -46 -79 -25 -79 38 0 44 -22 33 -69 -36 -17 -27 -36 -48
-41 -48 -10 0 -30 63 -30 95 0 19 -7 20 -167 20 -151 1 -176 4 -249 26 l-81
25 1 -39 c1 -48 -21 -67 -80 -67 -61 0 -74 22 -49 83 12 28 -27 21 -105 -18
-82 -41 -121 -45 -135 -12 -9 19 -19 23 -90 28 -116 8 -218 -23 -273 -83 -61
-66 -79 -82 -121 -101 -56 -25 -157 -33 -191 -15 -37 20 -36 60 3 181 31 94
33 107 18 111 -9 2 -51 12 -94 22 l-78 17 -62 -60 c-86 -83 -133 -117 -224
-162 -117 -59 -207 -81 -356 -88 l-128 -6 -19 -37 c-31 -61 -134 -184 -195
-234 -139 -113 -300 -179 -482 -198 -84 -8 -130 -19 -203 -48 -158 -63 -244
-80 -460 -92 -125 -7 -214 -8 -246 -2 l-51 9 87 265 c48 146 89 272 92 280 4
8 52 152 108 320 55 168 107 319 115 336 8 17 16 40 18 50 1 11 6 24 9 29 6
10 539 1650 590 1815 18 58 41 117 69 175 5 11 25 67 44 124 30 91 34 111 28
170 -3 36 -7 129 -7 207 -1 136 0 142 25 180 15 21 30 51 33 67 4 15 11 27 18
27 14 0 225 -67 253 -80 11 -5 47 -19 80 -31 33 -12 65 -25 70 -29 6 -4 47
-19 92 -34 45 -15 87 -34 93 -42 7 -8 20 -14 29 -15 9 0 45 -16 81 -34 36 -19
77 -39 93 -46 15 -6 27 -15 27 -20 0 -5 11 -14 24 -18 33 -13 125 -74 161
-106 129 -117 178 -173 213 -241 l21 -41 53 8 c29 5 80 11 113 14 33 2 60 5
60 5 0 3 202 23 252 25 18 1 35 4 38 7 6 5 -15 25 -45 43 -10 5 -51 33 -92 60
-86 59 -126 83 -150 91 -10 4 -18 10 -18 14 0 8 -25 21 -155 86 -16 8 -37 19
-45 25 -8 5 -42 21 -75 36 -33 15 -84 40 -114 55 -29 15 -59 28 -66 28 -7 0
-29 11 -49 25 -20 13 -62 32 -94 41 -31 9 -64 23 -73 30 -9 8 -49 25 -90 39
-41 14 -89 32 -107 41 -30 14 -131 49 -417 145 -49 17 -93 34 -98 38 -7 7 10
67 32 116 5 11 21 45 35 76 14 31 32 92 41 135 9 43 22 102 30 129 7 28 21 86
30 130 9 44 23 104 31 133 8 29 12 56 9 61 -3 6 12 67 34 138 22 70 50 166 62
213 12 47 32 119 45 160 13 41 24 85 24 96 0 12 6 39 14 60 7 22 16 60 19 87
3 26 8 51 12 56 3 5 8 44 11 87 3 43 9 85 14 94 5 10 7 20 3 23 -10 10 18 37
61 59 53 27 49 20 53 83 2 30 7 65 13 79 8 21 5 31 -14 53 -20 23 -22 31 -13
59 6 21 20 37 37 44 28 12 50 61 50 114 0 25 5 48 36 176 9 36 17 76 19 90 3
38 107 353 122 371 7 8 13 20 13 26 0 5 21 31 48 58 51 51 190 125 236 125
l27 0 -38 41 c-73 79 -88 95 -128 125 -22 17 -51 35 -65 39 -14 4 -43 18 -65
30 -51 28 -106 46 -153 50 -20 2 -63 7 -95 11 -39 4 -86 1 -150 -11 -50 -10
-94 -19 -96 -21 -2 -2 13 -25 33 -52 66 -91 89 -155 89 -257 0 -81 -5 -104
-48 -235 -26 -80 -51 -147 -55 -150 -4 -3 -15 -30 -25 -60 -10 -30 -28 -75
-41 -100 -13 -25 -24 -50 -24 -56 0 -6 -10 -26 -23 -45 -33 -49 -52 -121 -38
-147 25 -47 5 -90 -49 -101 -28 -5 -36 -13 -49 -51 -9 -25 -24 -57 -34 -72
-17 -25 -17 -28 -1 -59 35 -69 35 -86 3 -140 -17 -27 -34 -49 -39 -49 -4 0
-11 -12 -15 -27 -3 -16 -12 -35 -20 -43 -7 -8 -18 -33 -25 -55 -7 -22 -17 -45
-22 -51 -5 -7 -26 -63 -48 -125 -21 -63 -54 -157 -74 -209 -19 -52 -54 -147
-77 -210 -22 -63 -47 -122 -54 -130 -7 -8 -18 -33 -25 -55 -7 -22 -16 -44 -20
-50 -5 -5 -19 -39 -33 -75 -14 -36 -32 -78 -41 -95 -9 -16 -16 -34 -16 -38 0
-5 -11 -33 -25 -63 -14 -30 -25 -61 -25 -69 0 -7 -4 -16 -10 -20 -11 -7 -32
-77 -61 -208 -13 -55 -28 -101 -35 -104 -12 -4 -134 30 -380 107 -67 21 -137
41 -157 44 -19 3 -70 17 -112 30 -42 14 -82 23 -89 20 -6 -2 -38 5 -70 16 -33
11 -74 20 -92 20 -18 0 -45 5 -61 11 -15 6 -41 12 -58 14 -16 2 -50 9 -75 14
-56 12 -114 22 -160 27 -41 5 -80 10 -135 18 -22 4 -74 9 -115 11 -41 3 -95 7
-120 9 -25 2 -74 4 -110 5 l-64 1 48 49 c26 27 53 58 60 69 6 11 38 53 71 94
62 74 105 138 105 154 0 5 -14 -7 -30 -26 -21 -24 -30 -30 -30 -18 0 9 3 18 8
20 4 2 19 29 35 61 22 48 24 56 10 49 -10 -5 -23 -7 -30 -5 -6 2 -18 -6 -27
-18 -8 -13 -18 -20 -21 -17 -3 3 4 16 15 30 11 14 24 38 30 54 11 28 11 28 -9
9 -21 -18 -21 -18 -21 11 0 16 9 43 20 59 26 39 25 57 0 26 -11 -13 -20 -18
-20 -11 0 6 7 18 15 27 21 20 11 30 -12 12 -17 -13 -17 -13 0 7 33 39 17 47
-18 8 -38 -43 -46 -37 -15 14 25 41 25 44 -2 40 -28 -4 -27 6 12 71 40 69 39
92 -2 54 -25 -23 -24 1 3 51 11 21 18 41 15 44 -3 2 -8 -3 -12 -12 -3 -9 -11
-16 -16 -16 -5 0 9 22 31 49 46 55 51 67 19 50 -22 -12 -22 -12 -5 15 14 20
14 26 4 26 -8 0 -22 -9 -32 -20 -15 -17 -19 -17 -32 -4 -14 13 -14 17 1 33 20
22 20 31 1 31 -22 0 -19 8 21 52 38 43 39 66 1 30 -44 -42 -50 -19 -12 52 28
52 23 58 -17 19 -29 -28 -46 -26 -33 4 5 10 7 22 6 27 -1 5 6 24 15 42 20 37
10 60 -12 30 -26 -36 -26 1 1 67 6 13 3 16 -9 11 -28 -11 -29 24 -2 70 34 58
33 66 -4 31 -16 -16 -30 -24 -30 -17 0 6 4 13 9 16 19 12 22 58 5 77 -16 17
-15 21 15 67 43 68 39 74 -14 22 l-46 -45 15 40 c8 22 24 60 36 84 12 24 24
60 27 80 4 20 17 51 31 69 14 18 23 35 20 38 -10 9 -34 -7 -51 -34 -9 -15 -16
-20 -16 -12 0 8 6 24 14 34 8 11 15 26 15 34 0 17 -86 -96 -115 -151 -11 -21
-26 -44 -34 -50 -12 -10 -12 -8 -1 13 22 43 111 194 131 222 14 20 17 36 12
55 l-6 28 -11 -25 c-34 -79 -187 -309 -275 -414 -66 -78 -66 -78 -76 -52 -11
33 -35 30 -53 -7 -17 -34 -23 -34 -65 3 -19 17 -40 30 -46 30 -6 0 -18 11 -27
24 -8 14 -21 23 -28 20 -9 -3 -31 29 -62 91 -27 53 -63 113 -81 133 -18 21
-33 41 -33 45 0 4 -13 37 -30 72 -16 35 -40 90 -52 122 -12 32 -23 53 -25 47
-3 -9 43 -146 86 -258 11 -27 10 -28 -6 -15 -9 8 -15 10 -12 4 18 -38 29 -68
43 -121 19 -70 19 -74 7 -74 -4 0 -23 27 -41 61 -17 33 -34 59 -36 56 -6 -5
70 -215 112 -310 38 -87 38 -87 23 -87 -11 0 -64 111 -155 329 -54 129 -55 90
-1 -55 66 -179 68 -184 87 -251 11 -35 17 -63 14 -63 -2 0 -22 37 -44 83 -46
96 -54 78 -10 -24 16 -38 27 -69 24 -69 -3 0 4 -12 15 -26 12 -15 21 -41 21
-60 0 -18 5 -34 11 -36 7 -2 11 -24 11 -51 -1 -48 21 -117 38 -117 6 0 10 -8
10 -18 0 -10 18 -56 40 -101 22 -46 39 -86 37 -88 -6 -5 -48 68 -86 151 -18
37 -35 66 -38 63 -3 -3 9 -49 27 -101 30 -92 38 -154 11 -88 -8 18 -18 32 -23
32 -16 0 2 -53 23 -68 10 -7 29 -34 40 -60 12 -26 28 -60 37 -77 14 -28 14
-29 -2 -16 -10 8 -26 31 -36 50 -11 20 -19 29 -20 21 0 -8 9 -32 20 -53 21
-38 28 -76 10 -47 -21 32 -8 -7 15 -49 29 -49 32 -69 9 -50 -13 10 -17 10 -25
-2 -6 -9 -3 -18 7 -26 9 -7 17 -25 19 -40 1 -15 7 -39 12 -53 13 -32 7 -39
-11 -14 -29 38 -25 6 9 -81 41 -103 43 -115 13 -89 -17 15 -15 9 9 -26 47 -70
50 -78 30 -61 -54 43 2 -49 85 -143 29 -32 72 -78 94 -102 41 -42 42 -45 54
-146 6 -57 20 -175 31 -263 10 -88 26 -227 34 -310 34 -334 99 -924 180 -1645
13 -118 40 -359 60 -535 20 -176 42 -372 50 -435 8 -63 26 -230 40 -370 14
-140 41 -394 60 -565 19 -170 35 -314 35 -318 0 -4 -8 -3 -18 2 -15 8 -27 1
-68 -40 -94 -97 -242 -187 -364 -222 -53 -16 -56 -18 -73 -67 -23 -65 -40 -71
-81 -31 -41 39 -62 39 -115 -2 -88 -67 -105 -77 -126 -77 -37 0 -58 33 -53 82
3 24 8 51 12 61 7 14 3 17 -17 17 -29 0 -96 -51 -182 -139 -33 -34 -66 -61
-75 -61 -9 0 -37 20 -62 45 -58 56 -80 57 -203 9 -319 -126 -648 -181 -1146
-191 l-265 -6 0 104 c1 87 -3 111 -22 151 -21 45 -21 48 -5 90 20 51 22 265 4
338 -6 25 -16 171 -21 325 -8 225 -13 288 -27 318 -14 33 -15 43 -4 70 38 95
38 195 0 281 -24 54 -22 112 6 166 21 40 18 106 -5 159 -23 50 -26 137 -9 224
10 48 9 67 -6 119 -10 35 -24 72 -31 83 -19 26 -18 73 3 126 14 37 18 97 23
364 l6 320 27 66 28 67 -30 57 c-30 56 -31 62 -31 191 0 87 4 135 11 140 6 3
76 6 156 5 117 -2 154 -6 194 -21 27 -11 56 -20 64 -20 13 0 49 -16 165 -75
19 -10 42 -24 50 -31 8 -7 27 -16 43 -19 37 -10 36 13 -2 69 -33 47 -179 188
-216 208 -13 7 -49 28 -81 46 -32 17 -65 32 -73 32 -9 0 -36 9 -60 20 -28 13
-65 20 -106 20 -82 0 -123 15 -131 47 -4 14 -7 332 -8 706 l-1 681 35 20 c31
19 55 21 221 24 171 4 189 2 225 -16 92 -47 154 -132 154 -209 0 -44 -5 -55
-40 -93 l-40 -43 -65 7 c-76 8 -84 -4 -25 -34 53 -27 94 -25 158 7 74 37 115
97 120 175 3 45 0 64 -14 85 -24 35 -44 81 -44 99 0 25 47 28 83 5 19 -12 43
-21 53 -21 11 0 35 -8 54 -19 19 -10 51 -21 71 -25 21 -4 42 -13 48 -20 7 -8
33 -17 59 -21 26 -3 57 -13 69 -21 13 -8 62 -18 109 -23 54 -5 90 -14 95 -22
17 -26 9 -53 -25 -89 -33 -33 -40 -49 -37 -77 2 -24 24 -13 58 27 29 34 41 40
72 40 89 0 257 -111 281 -186 7 -20 10 -51 7 -70 -4 -24 -2 -34 7 -34 18 0 50
48 56 85 4 26 10 30 42 33 33 3 40 -1 68 -39 16 -23 30 -52 30 -65 0 -12 7
-53 16 -91 15 -63 15 -74 -1 -153 -10 -47 -24 -96 -33 -109 -23 -38 -111 -121
-139 -132 -13 -5 -65 -9 -114 -9 -70 0 -98 4 -129 20 -52 27 -91 26 -118 -3
-34 -36 -28 -60 24 -98 25 -19 67 -51 94 -71 27 -21 52 -38 54 -38 3 0 26 -15
52 -32 52 -37 88 -59 176 -107 53 -28 69 -32 105 -27 66 9 126 51 172 121 36
56 80 156 81 183 0 13 7 37 16 55 24 46 26 358 3 402 -9 17 -19 47 -23 69 -7
37 -98 210 -117 222 -19 11 -9 54 16 70 33 21 27 37 -16 46 -19 4 -59 12 -89
18 -30 7 -62 18 -70 25 -8 7 -26 16 -40 20 -14 4 -32 13 -40 20 -8 6 -36 22
-63 34 -26 13 -87 62 -139 112 -51 49 -96 89 -100 89 -4 0 -7 -21 -5 -47 2
-42 -1 -48 -19 -51 -11 -2 -32 7 -47 18 -38 30 -133 80 -152 80 -9 0 -30 7
-48 17 -18 9 -68 20 -112 25 -44 5 -105 13 -135 19 -30 5 -140 14 -245 18
-118 6 -212 15 -248 25 -32 9 -75 16 -95 16 -21 0 -53 8 -72 18 -19 11 -55 22
-79 26 -24 4 -56 13 -72 21 -15 8 -50 15 -76 15 -28 0 -58 7 -71 16 -19 13
-22 24 -22 87 0 40 7 117 15 172 8 59 14 179 15 291 0 125 5 222 15 279 9 48
20 156 25 239 5 83 16 176 24 206 9 30 16 69 16 86 0 17 9 43 20 57 11 14 20
34 20 45 0 10 -25 56 -55 101 -56 84 -66 119 -40 141 8 7 15 20 15 29 0 10 12
41 27 70 l26 54 -23 71 c-17 53 -25 110 -31 221 -5 83 -13 170 -19 195 -5 25
-12 115 -16 200 -3 89 -13 178 -21 210 -12 42 -17 129 -20 362 -5 292 -4 311
16 375 12 36 21 84 21 105 0 21 9 55 19 76 11 22 22 71 26 125 9 103 8 103
-97 174 -68 46 -82 66 -92 136 -9 65 -38 83 -84 51z m2748 -3048 c0 -3 -4 -8
-10 -11 -5 -3 -10 -1 -10 4 0 6 5 11 10 11 6 0 10 -2 10 -4z m-30 -46 c-6 -11
-13 -20 -16 -20 -2 0 0 9 6 20 6 11 13 20 16 20 2 0 0 -9 -6 -20z m210 -185
c-7 -9 -15 -13 -17 -11 -7 7 7 26 19 26 6 0 6 -6 -2 -15z m-19087 -335 c-3
-12 -8 -19 -11 -16 -5 6 5 36 12 36 2 0 2 -9 -1 -20z m247 -131 c-7 -11 -14
-19 -16 -16 -7 7 7 37 17 37 6 0 5 -9 -1 -21z m-13 -241 c-3 -8 -6 -5 -6 6 -1
11 2 17 5 13 3 -3 4 -12 1 -19z m10213 -302 c0 -2 -8 -10 -17 -17 -16 -13 -17
-12 -4 4 13 16 21 21 21 13z m8704 -131 c-9 -14 -26 -31 -38 -37 -17 -9 -15
-4 9 25 35 41 53 49 29 12z m-8574 -120 c-7 -8 -17 -15 -22 -15 -6 0 -5 7 2
15 7 8 17 15 22 15 6 0 5 -7 -2 -15z m8491 -227 c25 -23 79 -72 119 -108 40
-36 92 -81 114 -101 l40 -36 32 19 c39 23 163 55 249 64 66 8 215 8 285 0 25
-3 65 -8 90 -10 77 -9 104 -14 133 -25 16 -6 33 -9 37 -6 5 3 49 -6 97 -19 48
-14 126 -35 173 -47 107 -27 328 -98 334 -108 2 -3 0 -27 -5 -51 -6 -25 -15
-65 -20 -90 -5 -25 -16 -50 -24 -56 -8 -6 -15 -14 -15 -17 0 -11 -64 -97 -72
-97 -4 0 -8 -4 -8 -10 0 -5 -8 -18 -17 -28 -84 -87 -107 -124 -144 -238 -21
-64 -37 -123 -37 -133 2 -21 -14 -71 -353 -1119 -159 -491 -289 -901 -289
-910 0 -9 -24 -91 -54 -182 -30 -91 -76 -237 -102 -325 -25 -88 -50 -169 -54
-180 -5 -11 -43 -129 -86 -262 -43 -134 -79 -241 -80 -240 -4 4 -58 499 -73
672 -6 66 -20 179 -31 250 -11 72 -24 202 -29 290 -6 88 -17 200 -26 250 -8
49 -20 177 -25 285 -7 124 -17 224 -30 276 -10 45 -33 218 -49 385 -17 167
-34 315 -37 328 -3 13 -9 76 -14 140 -5 64 -13 154 -19 201 -5 47 -15 144 -21
215 -6 72 -23 204 -36 295 -36 235 -74 585 -75 684 0 46 4 93 11 105 11 22 11
22 38 2 15 -10 48 -39 73 -63z m-18495 -76 c-9 -17 -21 -34 -27 -37 -6 -4 -1
12 11 35 12 23 24 40 26 37 3 -3 -2 -19 -10 -35z m9679 -791 c-16 -10 -41 -22
-55 -25 -14 -4 -5 4 20 18 53 29 79 34 35 7z m16621 -578 c-11 -11 -17 4 -9
23 7 18 8 18 11 1 2 -10 1 -21 -2 -24z m481 -575 c-3 -8 -6 -5 -6 6 -1 11 2
17 5 13 3 -3 4 -12 1 -19z m133 -404 c-17 -51 -23 -35 -8 22 7 27 14 41 16 31
2 -9 -2 -33 -8 -53z m-25968 -781 c28 -62 36 -189 15 -218 -14 -18 -16 -17
-26 25 -17 68 -36 129 -60 188 l-21 52 36 0 c32 0 37 -4 56 -47z m-144 -155
c29 -82 47 -147 42 -152 -32 -32 -237 33 -295 94 -31 32 -28 54 10 90 29 27
164 109 181 110 6 0 34 -64 62 -142z m30832 -115 c207 -133 340 -241 340 -279
0 -35 -175 -94 -418 -139 -170 -32 -186 -32 -179 -2 2 12 14 72 26 132 12 61
36 172 53 247 32 134 33 137 53 123 11 -8 67 -45 125 -82z m-30508 32 c8 -30
2 -66 -14 -99 -8 -15 -12 -16 -19 -5 -10 17 -12 123 -2 133 12 12 27 0 35 -29z
m-4269 -137 c27 -36 35 -129 14 -147 -24 -19 -49 -10 -73 27 -28 41 -39 103
-24 132 15 29 57 23 83 -12z m16590 -678 c58 -68 101 -158 101 -213 1 -43 -3
-52 -35 -82 -27 -24 -54 -37 -107 -49 -232 -53 -842 30 -842 114 0 36 80 66
450 170 135 38 263 75 285 84 22 8 57 15 77 15 31 1 42 -5 71 -39z m5283 -358
c9 -5 6 -26 -10 -77 l-22 -70 -27 52 c-30 58 -33 73 -15 91 13 13 57 16 74 4z
m-3230 -487 c-4 -14 -11 -23 -16 -20 -14 9 -12 43 3 48 18 6 20 1 13 -28z
m-183 -61 c36 -19 57 -61 36 -75 -49 -31 -162 -36 -221 -8 -32 14 -35 28 -10
58 38 48 128 59 195 25z"/>
<path d="M24430 10410 c0 -5 5 -10 11 -10 5 0 7 5 4 10 -3 6 -8 10 -11 10 -2
0 -4 -4 -4 -10z"/>
<path d="M24395 9330 c3 -5 8 -10 11 -10 2 0 4 5 4 10 0 6 -5 10 -11 10 -5 0
-7 -4 -4 -10z"/>
<path d="M16071 9314 c0 -11 3 -14 6 -6 3 7 2 16 -1 19 -3 4 -6 -2 -5 -13z"/>
<path d="M5740 8751 c0 -6 5 -13 10 -16 6 -3 10 1 10 9 0 9 -4 16 -10 16 -5 0
-10 -4 -10 -9z"/>
<path d="M15670 8309 c0 -5 5 -7 10 -4 6 3 10 8 10 11 0 2 -4 4 -10 4 -5 0
-10 -5 -10 -11z"/>
<path d="M32625 6210 c3 -5 8 -10 11 -10 2 0 4 5 4 10 0 6 -5 10 -11 10 -5 0
-7 -4 -4 -10z"/>
<path d="M16907 6189 c-10 -35 -9 -39 7 -39 22 0 26 13 12 39 l-13 23 -6 -23z"/>
<path d="M41380 5373 c0 -6 9 -21 21 -34 l20 -24 -17 30 c-24 39 -24 40 -24
28z"/>
<path d="M23257 3841 c-9 -16 -37 -51 -63 -80 -25 -28 -43 -51 -40 -51 15 0
90 78 107 113 24 46 21 59 -4 18z"/>
</g>
</svg>
