<svg version="1.0" xmlns="http://www.w3.org/2000/svg"
 width="500.000000pt" height="500.000000pt" viewBox="0 0 500.000000 500.000000"
 preserveAspectRatio="xMidYMid meet">

<g transform="translate(0.000000,500.000000) scale(0.100000,-0.100000)"
fill="#FF0000" stroke="none">
<path d="M2806 4643 c-23 -6 -41 -23 -42 -40 -1 -7 -2 -21 -2 -32 -1 -10 -10
-21 -20 -23 -10 -3 -19 -11 -20 -19 0 -8 -3 -28 -7 -45 -6 -35 6 -50 45 -56
23 -3 25 -7 26 -61 1 -52 -1 -59 -24 -71 -24 -13 -24 -13 -3 -19 11 -3 21 -1
21 3 0 5 12 2 28 -7 26 -15 27 -18 24 -86 -3 -47 0 -72 8 -77 7 -4 9 -13 6
-19 -10 -16 -36 -14 -36 3 0 16 -27 29 -41 20 -5 -3 -9 0 -9 6 0 21 -22 5 -35
-27 -16 -39 0 -79 30 -76 75 10 70 14 70 -55 0 -52 3 -62 18 -62 19 0 23 -15
6 -26 -6 -3 -15 0 -20 7 -6 10 -9 8 -9 -9 0 -12 -9 -39 -20 -59 -11 -21 -20
-43 -20 -50 0 -7 -4 -13 -9 -13 -18 0 -41 44 -41 77 0 41 -42 117 -67 121 -13
2 -23 -6 -31 -23 -13 -29 -9 -32 42 -37 25 -3 31 -9 38 -38 4 -19 13 -50 19
-67 8 -26 7 -37 -5 -55 -21 -29 -20 -53 1 -89 13 -22 24 -29 43 -27 24 3 25 1
22 -47 -2 -37 0 -46 7 -35 6 8 11 29 11 46 0 29 20 50 42 46 3 -1 10 12 13 29
5 21 2 36 -9 48 -9 10 -16 30 -16 45 0 15 -7 38 -16 51 -9 14 -12 25 -7 25 32
0 76 91 52 106 -5 3 0 17 11 31 11 14 20 34 20 44 0 11 5 28 12 38 9 15 7 26
-10 55 -20 34 -21 39 -7 66 8 16 15 45 15 65 0 31 3 35 25 35 54 0 84 29 85
82 0 23 -41 60 -58 53 -8 -3 -27 6 -43 20 -25 20 -34 23 -56 14 -14 -5 -27 -8
-28 -7 -19 25 -22 45 -9 70 8 15 22 31 31 37 11 6 17 21 16 44 -1 44 -9 57
-34 57 -11 0 -17 5 -14 10 3 6 5 9 3 9 -2 -1 -12 -4 -22 -6z"/>
<path d="M2657 4368 c2 -5 -3 -8 -11 -8 -18 0 -21 -17 -7 -39 7 -11 71 -40 91
-41 8 0 -21 25 -30 26 -6 1 -20 3 -32 4 -18 2 -19 3 -5 7 9 2 17 9 17 14 0 6
3 8 8 6 4 -3 8 5 8 18 1 18 -3 22 -21 21 -13 0 -21 -4 -18 -8z"/>
<path d="M2677 3662 c-5 -10 -7 -62 -3 -62 10 0 36 32 36 45 0 14 -27 28 -33
17z"/>
<path d="M2467 3540 c-7 -25 3 -100 13 -100 11 0 22 83 14 103 -8 23 -21 21
-27 -3z"/>
<path d="M2780 3496 c0 -7 -3 -29 -6 -47 -4 -24 -2 -29 4 -19 16 25 25 80 13
80 -6 0 -11 -6 -11 -14z"/>
<path d="M2716 3443 c-5 -17 -17 -22 -56 -25 -28 -1 -50 -1 -50 2 0 4 -16 4
-35 2 -36 -4 -62 -32 -50 -52 4 -6 -3 -26 -15 -46 -13 -21 -20 -45 -17 -59 2
-14 0 -25 -4 -25 -5 0 -9 5 -9 10 0 14 0 17 -9 48 -6 19 -4 34 5 47 16 22 18
39 4 30 -9 -5 -15 23 -11 48 1 4 -8 3 -20 -3 -11 -7 -27 -9 -34 -6 -7 2 -21
-4 -31 -15 -18 -20 -18 -21 3 -37 22 -18 47 -88 36 -104 -3 -6 -5 -27 -5 -48
1 -30 -4 -40 -18 -45 -10 -3 -22 -15 -25 -26 -4 -10 -18 -26 -33 -34 -15 -8
-21 -14 -14 -15 18 0 6 -55 -19 -92 -26 -36 -26 -88 1 -88 11 0 20 5 20 12 0
6 8 20 17 30 12 13 13 22 6 29 -12 12 -5 51 8 44 13 -9 49 18 49 35 0 9 6 25
14 35 13 18 14 18 27 -2 7 -12 20 -19 28 -17 9 3 6 -1 -6 -7 -13 -7 -23 -16
-23 -21 0 -5 5 -6 12 -2 7 5 8 3 3 -6 -7 -11 -10 -11 -18 2 -9 14 -13 12 -35
-9 -13 -14 -24 -36 -24 -50 0 -13 -7 -27 -14 -30 -8 -3 -11 -10 -7 -16 3 -5
-3 -17 -13 -25 -13 -10 -15 -16 -7 -19 9 -3 7 -11 -7 -25 -19 -21 -19 -21 8
-42 15 -12 30 -20 34 -19 4 2 5 -4 2 -12 -7 -18 12 -20 23 -2 4 6 9 23 11 37
5 41 54 132 64 118 6 -11 8 -11 8 0 0 27 76 117 85 102 4 -7 13 -6 26 0 25 14
25 30 0 23 -13 -3 -23 2 -31 16 -10 20 -12 20 -28 4 -16 -16 -17 -15 -21 2 -2
11 2 21 9 23 26 9 72 66 95 120 23 51 39 58 75 32 26 -19 28 -24 26 -83 -2
-34 -6 -75 -10 -92 l-8 -30 21 33 c12 18 21 44 21 57 0 18 5 25 20 25 23 0 50
42 31 48 -23 8 -42 36 -37 54 2 11 2 17 -1 14 -12 -12 -33 17 -33 45 0 19 5
29 15 29 22 0 31 31 13 44 -8 6 -19 20 -25 30 -10 19 -11 19 -17 -1z m-186
-232 c0 -20 -11 -35 -27 -38 -14 -3 -17 15 -8 40 8 19 35 17 35 -2z"/>
<path d="M2189 3403 c-13 -16 -12 -17 4 -4 9 7 17 15 17 17 0 8 -8 3 -21 -13z"/>
<path d="M2212 3370 c1 -16 5 -30 10 -30 8 0 12 16 8 35 -1 5 8 1 19 -9 20
-18 20 -18 8 8 -17 37 -46 35 -45 -4z"/>
<path d="M2776 3363 c-4 -9 -2 -21 3 -26 15 -15 41 0 41 23 0 25 -35 28 -44 3z"/>
<path d="M2795 3310 c3 -5 8 -10 11 -10 2 0 4 5 4 10 0 6 -5 10 -11 10 -5 0
-7 -4 -4 -10z"/>
<path d="M2672 3235 c0 -16 2 -22 5 -12 2 9 2 23 0 30 -3 6 -5 -1 -5 -18z"/>
<path d="M2310 3200 c0 -5 5 -10 10 -10 6 0 10 5 10 10 0 6 -4 10 -10 10 -5 0
-10 -4 -10 -10z"/>
<path d="M2695 3170 c-3 -5 -2 -10 4 -10 5 0 13 5 16 10 3 6 2 10 -4 10 -5 0
-13 -4 -16 -10z"/>
<path d="M2677 3144 c-4 -4 -7 -14 -7 -23 0 -11 3 -12 11 -4 6 6 10 16 7 23
-2 6 -7 8 -11 4z"/>
<path d="M2772 3125 c0 -16 2 -22 5 -12 2 9 2 23 0 30 -3 6 -5 -1 -5 -18z"/>
<path d="M2132 3040 c0 -14 2 -19 5 -12 2 6 2 18 0 25 -3 6 -5 1 -5 -13z"/>
<path d="M2697 3013 c-11 -10 -8 -20 8 -27 10 -4 15 1 15 14 0 20 -11 26 -23
13z"/>
<path d="M2155 3000 c-3 -5 -3 -10 2 -10 4 0 0 -5 -9 -11 -12 -6 -17 -21 -16
-45 1 -22 4 -30 9 -22 5 7 9 9 9 4 0 -5 8 -2 18 6 42 36 71 25 35 -14 -19 -22
-15 -29 14 -22 26 7 37 32 23 49 -6 8 -6 15 2 23 7 7 9 13 5 13 -4 1 -13 2
-19 3 -7 1 -12 7 -11 12 1 6 -11 8 -29 6 -21 -3 -29 -1 -24 7 4 6 5 11 2 11
-3 0 -8 -4 -11 -10z"/>
<path d="M2756 2993 c-8 -21 10 -41 24 -27 11 11 3 44 -10 44 -4 0 -11 -8 -14
-17z"/>
<path d="M2270 2878 c-7 -12 -20 -30 -30 -38 -14 -11 -16 -21 -9 -37 12 -32
26 -29 49 10 17 27 18 33 5 35 -18 4 -19 14 -3 30 6 6 9 14 6 18 -4 3 -12 -5
-18 -18z m-10 -58 c0 -5 -4 -10 -10 -10 -5 0 -10 5 -10 10 0 6 5 10 10 10 6 0
10 -4 10 -10z"/>
<path d="M2453 2883 c-15 -5 -18 -33 -4 -33 5 0 11 9 14 20 3 11 4 20 4 19 -1
0 -8 -3 -14 -6z"/>
<path d="M2717 2874 c-9 -9 4 -35 14 -28 5 3 9 12 9 20 0 14 -12 19 -23 8z"/>
<path d="M2162 2840 c0 -14 2 -19 5 -12 2 6 2 18 0 25 -3 6 -5 1 -5 -13z"/>
<path d="M2860 2850 c0 -5 5 -10 10 -10 6 0 10 5 10 10 0 6 -4 10 -10 10 -5 0
-10 -4 -10 -10z"/>
<path d="M2545 2809 c-4 -6 -5 -12 -2 -15 2 -3 7 2 10 11 7 17 1 20 -8 4z"/>
<path d="M2175 2687 c3 -139 8 -153 57 -162 24 -5 25 -3 15 19 -6 13 -17 21
-24 19 -9 -4 -13 5 -13 26 0 23 4 31 18 31 10 0 19 6 19 14 0 8 -6 12 -15 9
-20 -8 -10 77 12 92 31 23 12 45 -39 45 -14 0 -25 7 -28 18 -2 9 -3 -41 -2
-111z"/>
<path d="M2343 2798 c-5 -7 -9 -24 -8 -38 0 -14 -6 -31 -13 -39 -13 -13 -16
-12 -29 5 -9 11 -14 13 -11 4 3 -8 -1 -21 -9 -28 -17 -18 -17 -46 0 -39 8 3
20 -3 27 -13 11 -16 15 -16 41 -3 16 8 29 20 29 28 0 7 7 15 15 19 12 4 13 2
5 -13 -7 -15 -6 -20 7 -25 9 -4 18 -4 21 -1 3 3 0 5 -6 5 -6 0 -9 7 -5 16 3 8
12 13 20 10 9 -4 21 10 35 39 18 36 19 48 10 67 -6 13 -11 16 -9 7 2 -16 -61
-86 -75 -81 -4 1 -8 -3 -8 -9 0 -8 -4 -9 -13 0 -8 6 -18 7 -23 3 -5 -4 0 3 10
15 15 19 16 25 6 38 -7 8 -10 22 -6 30 7 18 2 19 -11 3z"/>
<path d="M2387 2756 c-4 -10 -1 -13 8 -9 8 3 12 9 9 14 -7 12 -11 11 -17 -5z"/>
<path d="M2504 2762 c-14 -9 -27 -45 -14 -37 9 6 34 45 28 45 -2 0 -8 -4 -14
-8z"/>
<path d="M2640 2751 c0 -5 6 -13 13 -19 10 -8 13 -6 14 9 1 10 -5 19 -13 19
-8 0 -14 -4 -14 -9z"/>
<path d="M2521 2694 c0 -11 3 -14 6 -6 3 7 2 16 -1 19 -3 4 -6 -2 -5 -13z"/>
<path d="M2489 2669 c-1 -8 -1 -18 0 -23 1 -4 -6 -14 -16 -21 -14 -11 -16 -16
-5 -26 6 -7 12 -24 12 -37 l0 -24 -30 29 c-16 15 -30 38 -30 50 0 18 -35 43
-44 31 -2 -1 -24 -29 -49 -61 -32 -40 -47 -67 -47 -87 0 -17 -5 -30 -11 -30
-8 0 -8 -4 -1 -12 5 -7 8 -31 7 -53 -1 -22 1 -50 6 -63 8 -20 6 -25 -11 -29
-11 -3 -20 -9 -20 -13 0 -13 -49 -60 -62 -60 -7 0 -24 -9 -38 -20 -19 -14 -22
-22 -13 -31 9 -9 19 -8 43 4 23 12 38 13 56 7 17 -7 23 -7 19 0 -6 9 3 12 49
14 27 1 58 -53 42 -73 -9 -12 -8 -13 3 -6 11 7 13 2 8 -25 -4 -18 -7 -36 -7
-41 0 -5 -11 -9 -24 -9 -13 0 -27 -7 -30 -16 -3 -8 -2 -13 3 -9 5 3 12 -9 16
-26 5 -23 3 -34 -12 -44 -14 -11 -16 -18 -7 -32 24 -39 -19 -59 -60 -28 -11 8
-14 15 -7 15 7 0 10 4 7 9 -3 5 1 11 9 15 9 3 15 0 15 -10 0 -8 5 -12 10 -9
16 10 12 35 -6 35 -8 0 -13 4 -10 8 3 5 -1 9 -9 9 -8 0 -15 -4 -15 -9 0 -4
-11 -8 -25 -8 -14 0 -25 -4 -25 -9 0 -5 -18 -9 -40 -9 -38 -1 -108 -37 -96
-50 3 -2 12 1 21 8 8 7 28 10 44 8 17 -2 28 -1 25 3 -2 4 4 9 13 11 15 3 32
-2 62 -19 2 -2 -2 -10 -10 -19 -11 -13 -11 -18 -1 -21 6 -3 12 -16 12 -29 0
-13 5 -24 10 -24 6 0 10 -7 10 -15 0 -20 -17 -19 -29 3 -6 10 -11 12 -11 4 0
-7 -4 -10 -10 -7 -5 3 -10 1 -10 -4 0 -6 5 -11 10 -11 20 0 10 -42 -11 -47
-14 -4 -17 -8 -8 -13 9 -6 4 -15 -16 -34 -22 -20 -38 -26 -75 -26 -43 0 -48
-2 -53 -25 -4 -24 -3 -24 13 -10 9 8 35 16 58 18 26 2 47 9 55 21 11 15 17 16
40 5 15 -7 27 -17 27 -24 0 -33 83 -44 118 -14 32 26 52 23 52 -9 0 -24 -5
-31 -25 -36 -14 -4 -30 -4 -35 -1 -6 4 -10 1 -10 -6 0 -9 -3 -9 -15 1 -16 13
-55 5 -55 -12 0 -6 11 -8 25 -6 13 3 23 2 21 -1 -2 -3 2 -11 9 -18 10 -10 14
-9 19 2 6 16 36 21 36 6 0 -5 -13 -20 -28 -33 -26 -22 -64 -28 -124 -19 -4 1
-9 11 -11 24 -3 12 -4 6 -4 -13 2 -30 6 -35 30 -38 24 -3 27 -7 26 -35 -2 -47
-9 -68 -21 -61 -6 4 -5 -3 2 -15 7 -15 9 -42 4 -78 -6 -48 -4 -55 8 -50 13 5
14 1 5 -24 -9 -22 -8 -37 1 -61 8 -23 9 -35 1 -45 -8 -9 -8 -13 -1 -13 7 0 10
-22 10 -55 -1 -30 -5 -55 -9 -55 -4 0 -10 -24 -14 -52 -4 -29 -13 -63 -21 -75
-16 -25 -17 -33 -6 -33 4 0 20 25 35 55 15 30 34 55 42 55 8 0 15 4 15 8 0 5
7 9 15 9 8 0 15 -4 15 -9 0 -4 -4 -8 -10 -8 -5 0 -14 -17 -19 -37 -14 -48 -14
-56 1 -47 7 4 8 3 4 -4 -14 -23 6 -64 39 -77 17 -8 37 -21 44 -29 7 -9 17 -13
22 -10 5 3 9 2 8 -3 -3 -10 16 -58 35 -93 12 -23 24 -71 31 -127 9 -70 45
-122 83 -120 21 2 27 -2 26 -18 0 -16 6 -21 30 -21 17 0 38 -2 46 -5 19 -5 40
-31 33 -42 -2 -4 -1 -6 4 -5 23 6 52 -15 58 -43 4 -17 14 -33 23 -35 10 -3 25
-10 34 -15 11 -5 19 -5 23 2 5 7 11 6 21 -2 8 -6 14 -8 14 -5 0 4 13 -2 29
-14 l30 -20 -10 32 c-13 45 -12 45 19 60 22 11 28 21 30 57 2 27 -2 49 -11 60
-8 9 -21 35 -31 59 -20 53 -64 102 -93 105 -12 0 -24 9 -26 19 -4 14 -15 17
-62 16 -39 -2 -59 2 -65 12 -5 8 -7 17 -5 20 1 3 -3 11 -11 18 -8 7 -14 10
-14 7 0 -3 -13 1 -29 9 -46 24 -110 96 -123 138 -6 21 -15 38 -20 38 -4 0 -7
3 -6 8 0 4 -6 24 -15 44 -22 48 -21 55 3 63 21 7 28 25 9 25 -5 0 -7 4 -4 10
3 5 0 10 -8 10 -20 0 -68 78 -71 117 -1 18 1 33 6 33 5 0 7 28 4 62 -6 85 -6
86 -16 63 -7 -17 -9 -15 -9 12 -1 17 5 34 12 36 9 4 9 8 -1 15 -8 5 -13 12
-12 16 0 3 -2 34 -7 69 -8 74 -8 79 20 137 11 24 20 52 20 62 -2 23 16 23 47
1 37 -26 60 -27 60 -2 0 17 -3 19 -14 10 -10 -8 -20 -8 -41 3 -32 17 -61 72
-42 79 8 3 5 10 -8 20 -19 15 -19 16 -2 35 16 17 16 20 2 25 -9 4 -15 19 -15
41 0 27 -3 34 -15 30 -9 -4 -15 0 -15 9 0 18 33 29 80 27 31 -2 33 -1 20 17
-7 10 -24 27 -37 38 -22 20 -23 25 -14 85 10 71 -2 103 -17 49 -6 -19 -11 -25
-11 -15 -1 28 31 126 42 126 5 0 6 -19 2 -46 l-7 -47 47 6 c44 4 64 18 65 41
0 6 -5 5 -12 -2 -21 -21 -42 -13 -72 29 -18 26 -30 57 -32 83 -3 36 0 42 18
43 28 2 42 18 32 35 -13 21 -15 50 -5 79 8 23 7 27 -5 22 -21 -8 -17 7 7 28
11 10 19 26 18 36 -2 10 4 34 13 53 25 54 32 124 13 140 -12 10 -15 10 -16 -1z
m-29 -563 c0 -11 -19 -15 -25 -6 -3 5 1 10 9 10 9 0 16 -2 16 -4z m-70 -111
c0 -8 -4 -15 -10 -15 -5 0 -10 7 -10 15 0 8 5 15 10 15 6 0 10 -7 10 -15z
m-163 -147 c-3 -8 -6 -5 -6 6 -1 11 2 17 5 13 3 -3 4 -12 1 -19z m91 -61 c18
-51 16 -105 -5 -109 -21 -4 -83 41 -83 60 0 15 39 32 57 25 9 -4 9 -9 -3 -20
-17 -18 -12 -28 11 -20 19 8 20 36 0 43 -18 7 -20 54 -2 54 7 0 18 -15 25 -33z
m8 -371 c-2 -11 -7 -19 -12 -17 -5 1 -8 7 -7 12 2 4 -4 6 -13 2 -12 -5 -13 -7
-3 -14 8 -4 10 -11 6 -15 -10 -10 -20 2 -22 29 -2 26 10 36 36 30 12 -4 17
-12 15 -27z m-31 -56 c3 -5 1 -10 -4 -10 -6 0 -11 5 -11 10 0 6 2 10 4 10 3 0
8 -4 11 -10z m9 -158 c3 -5 -1 -9 -9 -9 -8 0 -12 4 -9 9 3 4 7 8 9 8 2 0 6 -4
9 -8z m26 -17 c0 -2 -10 -9 -22 -15 -22 -11 -22 -10 -4 4 21 17 26 19 26 11z
m13 -107 c-12 -13 -20 -15 -34 -7 -11 5 -19 14 -19 20 0 6 -5 7 -12 3 -7 -5
-8 -3 -3 5 5 9 13 7 30 -9 13 -12 25 -17 29 -12 3 6 0 13 -6 15 -10 4 -9 8 2
16 22 15 33 -10 13 -31z m217 -428 c0 -5 -4 -10 -10 -10 -5 0 -10 5 -10 10 0
6 5 10 10 10 6 0 10 -4 10 -10z m50 -122 c0 -9 -23 -16 -37 -10 -21 7 -14 17
12 17 14 0 25 -3 25 -7z m30 -67 c0 -5 -9 -19 -19 -32 l-19 -24 1 27 c1 14 5
24 10 21 4 -2 7 1 7 6 0 6 5 11 10 11 6 0 10 -4 10 -9z m-63 -28 c3 -8 -5 -11
-24 -9 -39 5 -40 5 -23 16 19 12 42 9 47 -7z m169 -107 c8 -8 11 -17 7 -19 -5
-2 -17 4 -27 14 -12 12 -15 19 -7 19 7 0 19 -6 27 -14z m44 -52 c0 -8 -4 -12
-10 -9 -5 3 -10 10 -10 16 0 5 5 9 10 9 6 0 10 -7 10 -16z m80 -35 c0 -5 -4
-9 -10 -9 -5 0 -10 7 -10 16 0 8 5 12 10 9 6 -3 10 -10 10 -16z"/>
<path d="M2436 2654 c-9 -24 -2 -26 12 -4 7 11 8 20 3 20 -5 0 -12 -7 -15 -16z"/>
<path d="M2040 2420 c0 -5 5 -10 10 -10 6 0 10 5 10 10 0 6 -4 10 -10 10 -5 0
-10 -4 -10 -10z"/>
<path d="M2101 2155 c-11 -19 -25 -35 -31 -35 -5 0 -10 -7 -10 -16 0 -12 6
-15 25 -10 14 4 34 1 46 -6 18 -11 23 -10 39 10 24 29 34 28 59 -6 16 -23 18
-32 8 -42 -9 -10 -9 -11 1 -6 7 4 19 2 27 -4 12 -10 15 -9 15 9 0 11 5 20 11
19 6 -2 13 5 14 16 2 10 8 23 14 29 16 16 13 42 -7 60 -21 19 -42 22 -42 7 0
-5 7 -7 16 -3 13 5 15 2 10 -15 -5 -13 -2 -23 8 -29 13 -7 12 -12 -5 -33 -12
-14 -18 -20 -15 -13 10 20 -4 41 -25 36 -13 -4 -19 0 -19 11 0 22 -27 20 -57
-4 -26 -20 -26 -20 -39 -1 -8 11 -11 26 -8 34 12 32 -15 25 -35 -8z m37 -33
c2 -7 -3 -12 -12 -12 -9 0 -16 7 -16 16 0 17 22 14 28 -4z"/>
<path d="M2090 2070 c-6 -11 -8 -20 -5 -20 18 0 -25 -27 -60 -37 -31 -10 -41
-10 -47 0 -6 9 -10 8 -18 -3 -7 -11 -4 -17 9 -22 10 -3 21 -21 25 -38 5 -27 8
-31 21 -20 8 7 25 10 40 6 20 -5 25 -3 25 13 0 10 7 22 16 25 14 5 14 9 3 23
-10 11 -10 17 -3 20 6 2 20 10 30 18 18 14 18 15 -4 21 -18 5 -20 9 -11 20 8
10 8 14 1 14 -6 0 -16 -9 -22 -20z"/>
<path d="M2251 2026 c-1 -14 -4 -16 -14 -8 -7 6 -28 10 -47 8 -27 -2 -35 -8
-41 -29 l-7 -26 29 22 c26 18 31 19 39 7 9 -13 10 -13 10 0 0 10 3 11 8 4 4
-6 17 -10 29 -9 27 2 44 15 20 15 -8 0 -18 8 -20 18 -4 15 -5 15 -6 -2z"/>
<path d="M2490 1977 c-13 -7 -26 -19 -28 -27 -4 -12 -1 -11 15 3 25 22 28 21
52 -4 l20 -21 -6 20 c-8 33 -26 43 -53 29z"/>
<path d="M1912 1968 c-16 -16 -15 -25 3 -32 11 -4 14 1 13 19 -1 14 -3 25 -3
25 -1 0 -6 -5 -13 -12z"/>
<path d="M1580 1897 c0 -19 10 -27 25 -20 17 6 8 33 -11 33 -8 0 -14 -6 -14
-13z"/>
<path d="M1670 1900 c-18 -12 -2 -12 25 0 13 6 15 9 5 9 -8 0 -22 -4 -30 -9z"/>
<path d="M2005 1883 c-11 -2 -30 -6 -42 -9 -25 -5 -32 -24 -10 -24 15 0 77 29
77 36 0 2 -1 3 -2 3 -2 -1 -12 -3 -23 -6z"/>
<path d="M2150 1875 c7 -8 18 -15 24 -14 7 0 6 2 -2 6 -6 2 -10 9 -6 14 3 5
-2 9 -12 9 -13 0 -14 -3 -4 -15z"/>
<path d="M1948 1733 c7 -3 16 -2 19 1 4 3 -2 6 -13 5 -11 0 -14 -3 -6 -6z"/>
<path d="M2018 1733 c7 -3 16 -2 19 1 4 3 -2 6 -13 5 -11 0 -14 -3 -6 -6z"/>
<path d="M2098 1718 c9 -9 15 -9 24 0 9 9 7 12 -12 12 -19 0 -21 -3 -12 -12z"/>
<path d="M1888 1713 c7 -3 16 -2 19 1 4 3 -2 6 -13 5 -11 0 -14 -3 -6 -6z"/>
<path d="M2178 1622 c3 -15 10 -30 16 -34 8 -5 7 -8 -1 -8 -7 0 -13 -7 -13
-16 0 -14 2 -14 16 1 13 12 14 19 5 28 -6 6 -11 19 -11 28 0 10 -4 20 -9 23
-4 3 -6 -7 -3 -22z"/>
<path d="M2539 1567 c5 -5 19 -7 32 -5 20 3 19 5 -9 9 -20 3 -29 2 -23 -4z"/>
<path d="M1926 1561 c-3 -4 -16 -6 -29 -4 -17 3 -26 -1 -31 -12 -5 -15 -2 -17
24 -11 38 7 84 36 58 36 -9 0 -19 -4 -22 -9z"/>
<path d="M2217 1563 c-4 -3 -7 -13 -7 -21 0 -18 13 -7 16 13 2 17 1 18 -9 8z"/>
<path d="M1795 1533 c-16 -3 -34 -9 -40 -15 -13 -14 55 -2 69 12 6 6 8 9 6 9
-3 -1 -18 -4 -35 -6z"/>
<path d="M2692 1503 c4 -21 33 -25 33 -3 0 8 -8 16 -18 18 -14 3 -18 -1 -15
-15z"/>
</g>
</svg>
