<?xml version="1.0" standalone="no"?>
<svg version="1.0" xmlns="http://www.w3.org/2000/svg"
 width="150.000000pt" height="247.000000pt" viewBox="0 0 206.000000 247.000000"
 preserveAspectRatio="xMidYMid meet">
  <defs>
    <radialGradient
      id="MyGradient"
      cx="0.3"
      cy="0.75"
      fx="0.2"
      fy="0.9"
      fr="30%"
    >
      <stop offset="5%" stop-color="#FF0000" />
      <stop offset="95%" stop-color="#000000" />
    </radialGradient>

    <filter id="blurEffect">
      <feGaussianBlur stdDeviation="0 20"/>
    </filter>
  </defs>
<g transform="translate(0.000000,247.000000) scale(0.100000,-0.100000)"
fill="url(#MyGradient)" stroke="none" filter="url(#blurEffect)">
<path d="M1464 2279 c-16 -18 -16 -24 -5 -52 17 -42 25 -172 12 -208 -6 -18
-6 -31 0 -34 14 -9 11 -60 -5 -92 -8 -15 -20 -66 -27 -113 -6 -47 -25 -118
-40 -158 -16 -40 -29 -80 -29 -90 0 -22 -54 -137 -69 -146 -6 -4 -20 -39 -32
-79 -22 -73 -34 -88 -137 -180 -30 -27 -32 -33 -32 -97 0 -48 4 -71 14 -77 17
-10 32 -59 47 -157 12 -75 11 -79 -9 -95 -14 -10 -22 -30 -24 -56 -3 -36 -6
-40 -32 -43 -23 -3 -27 0 -23 12 3 8 -2 23 -11 33 -9 9 -17 27 -17 39 0 34
-122 182 -164 200 -71 30 -72 33 -65 168 4 80 11 126 20 137 19 22 18 27 -8
31 -21 3 -23 9 -26 71 -2 43 1 67 7 63 17 -11 24 15 6 27 -12 10 -14 18 -7 37
15 40 25 150 14 150 -12 0 -22 -24 -22 -50 0 -25 -20 -36 -31 -19 -15 24 -10
59 14 82 12 13 23 35 23 50 4 66 -70 -2 -86 -81 -7 -28 -16 -54 -20 -57 -5 -3
-5 -18 1 -33 6 -15 11 -79 12 -142 0 -91 -4 -131 -22 -190 -12 -41 -22 -86
-22 -100 0 -14 -3 -32 -6 -40 -9 -22 -44 -142 -46 -160 -1 -9 -11 -27 -22 -42
-17 -22 -24 -25 -44 -17 l-24 9 21 23 c25 26 45 75 36 89 -4 5 -31 7 -68 3
-37 -3 -86 0 -126 8 -114 24 -177 -1 -216 -87 -22 -47 -23 -59 -14 -107 6 -30
17 -69 26 -87 9 -18 18 -58 21 -88 3 -30 10 -57 15 -60 5 -3 25 9 45 27 l37
32 18 -23 c23 -28 23 -37 -1 -45 -35 -11 -35 -42 -2 -76 34 -33 39 -60 16 -79
-25 -21 -18 -35 49 -97 99 -93 160 -113 369 -124 92 -4 172 -11 178 -14 5 -4
7 -14 5 -23 -7 -22 8 -47 23 -38 6 4 11 16 11 27 0 24 5 24 42 -2 25 -18 32
-19 39 -8 5 8 9 19 9 26 0 30 61 41 116 21 29 -10 40 -9 83 12 55 25 85 53 95
87 6 19 15 22 64 25 45 2 58 7 60 21 2 10 -3 17 -12 17 -9 0 -16 5 -16 10 0 6
5 10 10 10 16 0 100 81 116 111 18 36 18 125 0 177 -16 45 -22 128 -11 155 4
9 4 29 0 45 -4 15 -8 39 -10 53 -2 14 -15 51 -29 83 -14 32 -26 70 -26 83 0
14 -8 47 -17 72 -9 26 -14 55 -11 63 4 9 30 21 60 28 72 17 80 25 76 76 -3 39
1 46 47 95 l49 52 8 -31 c12 -47 38 -42 38 7 0 45 21 56 71 39 40 -14 55 1 69
69 9 40 9 62 1 79 -8 19 -6 35 9 74 24 61 26 138 4 209 -25 84 -74 82 -86 -4
-4 -26 -11 -51 -16 -54 -5 -3 -16 -19 -25 -36 -25 -49 -62 -78 -92 -73 -24 5
-26 3 -20 -23 5 -21 1 -36 -13 -54 l-19 -25 5 45 c3 35 1 46 -12 51 -11 4 -16
18 -15 43 1 46 13 79 23 63 9 -15 36 -16 36 -1 0 7 -8 17 -17 24 -15 11 -13
17 26 54 23 22 47 41 51 41 5 0 14 9 20 21 14 25 -14 88 -66 150 -19 23 -34
46 -34 52 0 22 -57 132 -85 165 -15 18 -40 39 -55 47 -25 13 -29 12 -46 -6z
m-629 -1553 l16 -38 -30 22 c-41 28 -58 60 -40 71 18 11 34 -5 54 -55z"/>
</g>
</svg>
